<svg width="165" height="193" viewBox="0 0 165 193" fill="none" xmlns="http://www.w3.org/2000/svg">
<g opacity="0.1" clip-path="url(#clip0)">
<path d="M154.267 57.4979C154.251 43.2931 142.738 31.7803 128.533 31.7646H118.739C117.074 13.5452 101.796 -0.402084 83.5 -0.402084C65.2036 -0.402084 49.926 13.5452 48.2611 31.7646H38.4666C24.2539 31.7646 12.7333 43.2852 12.7333 57.4979C12.7333 71.7106 24.2539 83.2313 38.4666 83.2313H73.85V76.7979H38.4666C27.8083 76.7979 19.1666 68.1563 19.1666 57.4979C19.1666 46.8396 27.8083 38.1979 38.4666 38.1979H54.55V34.9813C54.55 18.9922 67.5109 6.03125 83.5 6.03125C99.4891 6.03125 112.45 18.9922 112.45 34.9813V38.1979H128.533C139.192 38.1979 147.833 46.8396 147.833 57.4979C147.833 68.1563 139.192 76.7979 128.533 76.7979H93.15V83.2313H128.533C142.738 83.2156 154.251 71.7028 154.267 57.4979Z" fill="white"/>
<path d="M141.4 182.948V128.265C141.394 122.937 137.078 118.621 131.75 118.615H125.317V111.589C129.55 110.1 132.193 105.885 131.689 101.426C131.185 96.9665 127.665 93.4467 123.206 92.9425C118.747 92.4383 114.531 95.0817 113.042 99.3146H86.7167V58.8298L94.0924 66.2055L98.6409 61.657L83.5 46.516L68.359 61.657L72.9076 66.2055L80.2833 58.8298V99.3146H53.9579C52.4689 95.0817 48.2533 92.4368 43.7942 92.9425C39.3352 93.4467 35.8154 96.9649 35.3112 101.424C34.8071 105.883 37.4504 110.1 41.6833 111.588V121.831H22.3833C17.0557 121.838 12.7396 126.154 12.7333 131.481V170.081C12.7396 175.409 17.0557 179.725 22.3833 179.731H41.6833V186.165H32.0333V192.598H57.7667V186.165H48.1166V179.731H67.4167C72.7443 179.725 77.0604 175.409 77.0667 170.081V131.481C77.0604 126.154 72.7443 121.838 67.4167 121.831H48.1166V111.589C50.8417 110.617 52.9856 108.473 53.9579 105.748H113.042C114.014 108.473 116.158 110.617 118.883 111.588V118.615H99.5833C94.2557 118.621 89.9396 122.937 89.9333 128.265V182.948C89.9396 188.276 94.2557 192.592 99.5833 192.598H131.75C137.078 192.592 141.394 188.276 141.4 182.948ZM70.6333 170.081C70.6318 171.858 69.193 173.296 67.4167 173.298H22.3833C20.6069 173.296 19.1682 171.858 19.1666 170.081V163.648H70.6333V170.081ZM67.4167 128.265C69.193 128.266 70.6318 129.705 70.6333 131.481V157.215H19.1666V131.481C19.1682 129.705 20.6069 128.266 22.3833 128.265H67.4167ZM44.9 105.748C43.1236 105.748 41.6833 104.308 41.6833 102.531C41.6833 100.755 43.1236 99.3146 44.9 99.3146C46.6764 99.3146 48.1166 100.755 48.1166 102.531C48.1151 104.308 46.6764 105.746 44.9 105.748ZM122.1 99.3146C123.876 99.3146 125.317 100.755 125.317 102.531C125.317 104.308 123.876 105.748 122.1 105.748C120.324 105.748 118.883 104.308 118.883 102.531C118.885 100.755 120.324 99.3162 122.1 99.3146ZM96.3667 128.265C96.3682 126.488 97.8069 125.049 99.5833 125.048H131.75C133.526 125.049 134.965 126.488 134.967 128.265V170.081H96.3667V128.265ZM96.3667 182.948V176.515H134.967V182.948C134.965 184.724 133.526 186.163 131.75 186.165H99.5833C97.8069 186.163 96.3682 184.724 96.3667 182.948Z" fill="white"/>
</g>
<defs>
<clipPath id="clip0">
<rect width="193" height="193" fill="white" transform="translate(-13)"/>
</clipPath>
</defs>
</svg>
