<svg width="165" height="178" viewBox="0 0 165 178" fill="none" xmlns="http://www.w3.org/2000/svg">
<g opacity="0.1">
<path d="M164.179 84.4212L123.017 40.8109C120.487 38.1277 116.264 38.0053 113.58 40.5373C110.901 43.0672 110.777 47.2923 113.309 49.9734L150.149 89.0002L113.309 128.031C110.777 130.713 110.901 134.936 113.58 137.468C114.871 138.685 116.52 139.288 118.162 139.288C119.935 139.288 121.706 138.585 123.017 137.198L164.18 93.5858C166.607 91.0117 166.607 86.9932 164.179 84.4212Z" fill="white"/>
<path d="M40.6932 128.029L3.856 89.0002L40.6932 49.9714C43.2231 47.2902 43.1007 43.0648 40.4196 40.5352C37.7405 38.0053 33.513 38.1277 30.9834 40.8088L-10.1793 84.4191C-12.6067 86.9911 -12.6067 91.0117 -10.1793 93.5841L30.9855 137.196C32.2983 138.587 34.0672 139.288 35.8406 139.288C37.4825 139.288 39.1315 138.683 40.4196 137.465C43.1031 134.936 43.2231 130.71 40.6932 128.029Z" fill="white"/>
<path d="M87.7991 18.3205C84.1567 17.7688 80.7479 20.2695 80.1917 23.9119L60.6116 152.073C60.0553 155.717 62.5584 159.124 66.2029 159.68C66.5457 159.731 66.8837 159.756 67.2198 159.756C70.4618 159.756 73.3053 157.391 73.8104 154.089L93.3905 25.928C93.9468 22.2832 91.4436 18.8768 87.7991 18.3205Z" fill="white"/>
</g>
</svg>
