<svg width="141" height="114" viewBox="0 0 141 114" fill="none" xmlns="http://www.w3.org/2000/svg">
<path d="M22.159 79.2957C22.8494 79.2957 23.5404 79.0926 24.08 78.6852C37.5754 68.4891 48.8782 59.6391 61.8859 48.3627C62.6308 48.5021 63.3966 48.601 64.1817 48.6504C64.2552 48.6551 64.3281 48.6573 64.401 48.6573C65.2467 48.6573 66.0522 48.3509 66.5843 47.8188C69.1672 45.2368 71.9174 42.4427 74.8291 39.4845C75.717 38.5825 76.6225 37.6627 77.5369 36.7347C80.2829 36.6214 85.2865 35.9358 88.4876 32.6528C89.8826 31.222 90.7429 29.4732 91.0445 27.4557C92.6052 17.0521 99.679 13.4059 99.9588 13.2659C101.024 12.754 101.534 11.742 101.213 10.7839C100.891 9.82581 99.8119 9.1525 98.5682 9.13268C98.5682 9.13268 98.4797 9.13135 98.3118 9.13135C94.9262 9.13135 77.6232 9.5702 69.456 18.234C67.0984 20.7322 65.75 23.6766 65.4324 26.9982C64.2451 27.7421 63.0685 28.4784 61.9144 29.2C58.2067 31.5194 54.7044 33.7101 51.4679 35.7679C50.7431 36.2288 50.3524 36.9465 50.4252 37.6834C50.4873 38.31 50.6113 38.921 50.7864 39.515C36.6235 49.8973 25.5271 58.9039 12.7495 69.652C11.7083 70.5277 11.7315 71.9051 12.8017 72.7581L20.1841 78.6433C20.7284 79.0777 21.4434 79.2957 22.159 79.2957ZM91.3484 14.0534C89.04 16.66 86.6875 20.5011 85.6748 25.8887L83.7054 25.5442L83.1985 23.7062C82.9645 22.8581 82.1335 22.1957 81.0694 22.0096L78.7661 21.6063L78.2594 19.7685C78.1011 19.1943 77.6651 18.7096 77.0724 18.3956C81.2951 15.8019 86.9229 14.6049 91.3484 14.0534ZM72.9592 22.0757L73.1868 22.1155L73.6938 23.954C73.9275 24.8023 74.7587 25.4645 75.8228 25.6509L78.1262 26.0539L78.6331 27.8919C78.8672 28.74 79.6981 29.4024 80.7619 29.5886L83.0653 29.9918L83.2382 30.6188C81.3202 31.9389 78.6214 32.2324 77.2073 32.2896L70.9988 27.3402C71.1879 25.3841 71.8456 23.622 72.9592 22.0757ZM65.3632 32.7037C66.1879 32.1878 67.0219 31.6662 67.8645 31.1387L72.3917 34.7477C71.7325 35.4173 71.0798 36.0801 70.4346 36.7358C67.9039 39.3068 65.4953 41.7538 63.2182 44.0396C59.7264 43.3977 57.0141 41.2357 56.2089 38.4518C59.074 36.6376 62.1406 34.7195 65.3632 32.7037ZM53.2291 43.7769C54.1511 44.7904 55.2683 45.681 56.5399 46.416C44.7812 56.5545 34.3361 64.7691 22.2096 73.9608L18.6756 71.1436C30.1933 61.4863 40.4974 53.1607 53.2291 43.7769Z" fill="white"/>
<path d="M137.123 46.0063C132.528 37.162 122.92 30.9851 113.759 30.9851C111.98 30.9851 110.27 31.2226 108.677 31.6911L108.632 31.7045C106.452 32.3793 105.042 32.569 104.256 32.6116C104.744 32.073 105.649 31.287 107.221 30.3347L108.297 29.6396C110.218 28.396 112.609 26.8481 117.526 23.641C125.346 18.5408 124.58 13.118 124.305 11.954C123.706 7.60571 120.772 4.25919 115.816 2.27065C112.06 0.763934 107.084 0 101.027 0C93.6157 0 86.2649 1.14156 82.5424 1.822L82.0171 1.91774C77.1084 2.80992 64.0689 5.17987 50.0728 11.2557C32.4455 18.9077 19.263 29.6767 10.8908 43.2634C2.02366 57.6537 -0.933536 71.0581 2.10186 83.1036C4.81272 93.8607 11.7153 101.168 17.028 105.404C23.4784 110.545 38.0697 114 53.3372 114C59.8722 114 66.0863 113.375 71.8068 112.142C92.7287 107.634 112.278 97.5234 119.477 91.7842C145.919 70.7047 140.626 52.7482 137.123 46.0063ZM115.527 88.6357C108.96 93.8708 90.06 103.596 70.3492 107.843C65.1037 108.974 59.3801 109.547 53.3372 109.547C39.8877 109.547 26.2786 106.48 20.9784 102.255C10.907 94.2259 -3.14417 76.1409 15.9047 45.2268C24.3649 31.497 42.9175 13.5914 83.2591 6.25931L83.7912 6.16246C87.2832 5.5241 94.1659 4.45312 101.027 4.45312C112.109 4.45312 118.075 7.16641 118.763 12.5173L118.83 12.8288C118.912 13.1739 119.546 16.5694 113.989 20.1945C109.08 23.3963 106.693 24.9411 104.776 26.1824L103.803 26.812C99.3751 29.5044 97.4614 32.227 98.4141 34.4808C98.7439 35.2607 99.9368 37.0752 103.886 37.0752C103.886 37.0752 103.886 37.0752 103.886 37.0752C105.756 37.0752 108.025 36.6673 110.63 35.863C111.597 35.5809 112.65 35.438 113.76 35.438C119.637 35.438 127.777 39.6535 131.963 47.7103C135.036 53.6259 139.587 69.4549 115.527 88.6357Z" fill="white"/>
<path d="M23.4413 48.0552C23.849 48.2289 24.3043 48.3224 24.7623 48.3224C25.7927 48.3224 26.7367 47.8727 27.2255 47.1512C34.0878 37.0004 44.3855 28.9023 57.8308 23.0799C59.1857 22.4921 59.6881 21.1383 58.9539 20.0607C58.4651 19.3415 57.5239 18.894 56.4961 18.894C56.0352 18.894 55.5741 18.9875 55.1663 19.1656C40.7409 25.4 29.6835 34.1036 22.3073 45.0382C21.5756 46.1203 22.0867 47.4741 23.4413 48.0552Z" fill="white"/>
<path d="M19.0563 56.2445C19.3862 56.3492 19.7294 56.4026 20.0813 56.4026C21.2351 56.4026 22.2543 55.8482 22.6791 54.9932C23.2458 53.851 22.5394 52.5551 21.1094 52.1053C20.7796 52.0007 20.4335 51.9473 20.0844 51.9473C18.9278 51.9473 17.9087 52.5017 17.4839 53.3567C17.4839 53.3567 17.4839 53.3589 17.4839 53.3611C17.2104 53.9133 17.2241 54.5167 17.5202 55.06C17.8162 55.6055 18.3611 56.0263 19.0563 56.2445Z" fill="white"/>
<path d="M33.4233 97.9391C32.281 97.5807 31.2364 97.191 30.4013 96.8103C29.6584 96.4763 29.0998 96.1401 28.8792 95.9575C27.5497 94.8999 26.3068 93.7487 25.1869 92.5375C24.6618 91.9697 23.8211 91.6313 22.9385 91.6313C22.338 91.6313 21.7655 91.7827 21.2823 92.0677C20.6818 92.4195 20.2877 92.9383 20.1763 93.5261C20.0671 94.1139 20.2489 94.7017 20.693 95.1804C21.975 96.5674 23.3994 97.8879 24.9271 99.1059C25.6195 99.6536 26.4521 100.137 27.6307 100.678C28.7063 101.168 29.9656 101.64 31.3761 102.083C31.7057 102.185 32.0492 102.239 32.3983 102.239C33.5546 102.239 34.574 101.684 34.9986 100.827C35.2723 100.275 35.2586 99.6694 34.9623 99.1239C34.6637 98.5782 34.1188 98.1573 33.4233 97.9391Z" fill="white"/>
<path d="M20.2464 85.2744C20.2464 85.2722 20.2464 85.2722 20.2464 85.27C19.8386 84.4083 18.7882 83.8272 17.6322 83.8272C17.297 83.8272 16.9674 83.8762 16.6518 83.9697C15.9536 84.179 15.3978 84.5909 15.0906 85.1319C14.7806 85.673 14.7554 86.2764 15.0149 86.8308C15.0149 86.833 15.0149 86.8353 15.0149 86.8353C15.4227 87.7014 16.4728 88.2825 17.6319 88.2825C17.967 88.2825 18.2966 88.2335 18.6122 88.14C20.0534 87.7081 20.7879 86.4234 20.2464 85.2744Z" fill="white"/>
<path d="M51.8485 90.6042C51.7572 90.6022 51.667 90.6011 51.5757 90.6011C46.2447 90.6011 41.9542 93.9298 41.8073 98.1789C41.7352 100.259 42.6842 102.238 44.4785 103.75C46.2685 105.258 48.6858 106.122 51.2877 106.183C51.3849 106.187 51.4846 106.187 51.5796 106.187H51.5866C56.9164 106.187 61.205 102.858 61.3499 98.6091C61.422 96.5286 60.4732 94.5501 58.6787 93.038C56.884 91.5258 54.4586 90.6614 51.8485 90.6042ZM51.5868 101.734H51.5162L51.4631 101.732C50.3448 101.708 49.3055 101.337 48.5364 100.689C47.7669 100.041 47.3602 99.1931 47.391 98.3014C47.4541 96.4803 49.2921 95.054 51.5754 95.054C51.6153 95.054 51.6544 95.0544 51.6944 95.0553C52.8127 95.0798 53.8522 95.4503 54.6211 96.0985C55.39 96.7466 55.797 97.5945 55.7662 98.4869C55.7045 100.308 53.8684 101.734 51.5868 101.734Z" fill="white"/>
<path d="M84.0194 84.1498C83.928 84.1478 83.8378 84.1469 83.7465 84.1469C78.4155 84.1469 74.1247 87.4754 73.9778 91.7248C73.9057 93.8053 74.8548 95.7838 76.6493 97.2959C78.439 98.8037 80.8563 99.6676 83.4582 99.7291C83.5554 99.7322 83.6554 99.7328 83.7501 99.7328H83.7571C89.0866 99.7328 93.3755 96.4039 93.5208 92.1547C93.5928 90.0742 92.6438 88.0957 90.8496 86.5837C89.0551 85.0714 86.6294 84.207 84.0194 84.1498ZM83.7576 95.2795H83.6878L83.6342 95.2779C82.5159 95.2535 81.4764 94.8829 80.7075 94.235C79.938 93.5869 79.5313 92.739 79.5621 91.8473C79.6252 90.0264 81.4632 88.6 83.7468 88.6C83.7867 88.6 83.8258 88.6005 83.8657 88.6014C86.1747 88.6521 88.0013 90.1911 87.9376 92.0327C87.875 93.8534 86.0392 95.2795 83.7576 95.2795Z" fill="white"/>
<path d="M116.841 70.338C115.1 69.2047 112.904 68.5804 110.659 68.5804C107.712 68.5804 104.952 69.6222 103.086 71.4393C99.6745 74.7662 100.294 79.6856 104.465 82.404C106.205 83.5404 108.402 84.1661 110.65 84.1661C113.595 84.1661 116.354 83.1247 118.222 81.3072C121.633 77.9816 121.014 73.0615 116.841 70.338ZM113.9 78.4868C113.099 79.2661 111.914 79.7132 110.65 79.7132C109.675 79.7132 108.76 79.4524 108.002 78.9577C106.214 77.7923 105.949 75.6838 107.41 74.2588C108.209 73.4801 109.394 73.0335 110.659 73.0335C111.635 73.0335 112.55 73.294 113.306 73.7854C115.094 74.953 115.36 77.0627 113.9 78.4868Z" fill="white"/>
<path d="M118.986 44.0401C117.667 44.0401 116.379 44.2503 115.158 44.6648C112.756 45.4807 110.897 46.9934 109.922 48.9249C108.947 50.8562 108.973 52.9744 109.996 54.8877C111.533 57.7682 115.064 59.6293 118.993 59.6293C120.311 59.6293 121.599 59.4187 122.818 59.0039C125.221 58.1883 127.082 56.676 128.058 54.7454C129.033 52.8147 129.007 50.6966 127.984 48.7822C126.445 45.9015 122.913 44.0401 118.986 44.0401ZM122.876 53.0817C122.458 53.9089 121.661 54.557 120.629 54.9072C120.104 55.0858 119.553 55.1762 118.993 55.1762C117.309 55.1762 115.795 54.3789 115.136 53.1436C114.697 52.3229 114.686 51.4151 115.104 50.5873C115.522 49.7594 116.319 49.1111 117.348 48.7617C117.872 48.5836 118.423 48.4932 118.986 48.4932C120.67 48.4932 122.184 49.2914 122.844 50.5272C123.283 51.3476 123.294 52.2547 122.876 53.0817Z" fill="white"/>
<path d="M98.1926 41.7599C96.3774 40.4159 94.0146 39.6756 91.5392 39.6756C88.8319 39.6756 86.2219 40.582 84.3777 42.1631C80.7102 45.3106 80.937 50.2509 84.8832 53.1759C86.6981 54.5205 89.0604 55.2611 91.5352 55.2611C94.2464 55.2611 96.8575 54.354 98.6978 52.7738C102.367 49.6272 102.141 44.6867 98.1926 41.7599ZM94.605 49.7428C93.8054 50.4296 92.715 50.8079 91.5352 50.8079C90.4759 50.8079 89.464 50.4904 88.6864 49.9144C86.995 48.6609 86.8983 46.5432 88.4697 45.1946C89.2713 44.5072 90.3614 44.1287 91.5392 44.1287C92.5999 44.1287 93.6127 44.4462 94.3899 45.0218C96.0816 46.276 96.1791 48.3932 94.605 49.7428Z" fill="white"/>
<path d="M62.0853 58.3399C61.1678 58.3399 60.309 58.6991 59.7873 59.3009C57.9587 61.411 53.7064 66.6263 53.7064 69.4727C53.7064 73.1559 57.4652 76.1524 62.0853 76.1524C66.7055 76.1524 70.4643 73.1559 70.4643 69.4727C70.4643 66.6263 66.2117 61.411 64.3834 59.3009C63.8619 58.6991 63.0028 58.3399 62.0853 58.3399ZM62.0853 71.6993C60.5453 71.6993 59.2924 70.7005 59.2924 69.4752C59.315 68.7945 60.4769 66.8545 62.0853 64.6939C63.6941 66.8545 64.8557 68.7941 64.8783 69.4727C64.8783 70.7005 63.6254 71.6993 62.0853 71.6993Z" fill="white"/>
</svg>
