<svg width="40" height="40" viewBox="0 0 40 40" fill="none" xmlns="http://www.w3.org/2000/svg">
<g clip-path="url(#clip0)">
<path d="M31.9953 20.305C31.7678 20.0016 31.3374 19.9401 31.0339 20.1677C30.8882 20.2771 30.7918 20.4398 30.7661 20.6202L30.385 23.2916C30.3758 23.3259 30.3638 23.3594 30.3493 23.3918C31.0496 22.4618 31.6149 21.4373 32.0283 20.349L31.9953 20.305Z" fill="black"/>
<path d="M29.7045 23.8808C29.6721 23.8808 29.6397 23.8787 29.6076 23.8746L25.5285 23.2916C25.1531 23.2377 24.8924 22.8898 24.9462 22.5144C24.9462 22.5143 24.9462 22.5143 24.9462 22.5142L25.3273 19.8429C25.3805 19.4673 25.1192 19.1199 24.7436 19.0667C24.564 19.0413 24.3815 19.088 24.2361 19.1967L22.0771 20.8153C21.7737 21.0428 21.3433 20.9814 21.1157 20.6779L18.6435 17.3817C18.416 17.0783 18.4774 16.6479 18.7809 16.4203L20.9392 14.8017C21.2427 14.5741 21.3041 14.1437 21.0766 13.8403C20.9672 13.6946 20.8045 13.5982 20.624 13.5725L17.9527 13.1907C17.5772 13.1373 17.3161 12.7895 17.3696 12.4141C17.3696 12.4138 17.3697 12.4136 17.3697 12.4133L17.9527 8.33492C18.0061 7.95945 18.3538 7.69833 18.7293 7.75181C18.7296 7.75181 18.7298 7.7519 18.7301 7.7519L21.4014 8.13371C21.6762 8.17354 21.9477 8.04289 22.0881 7.8034C22.2339 7.56537 22.2176 7.26201 22.0469 7.04115L20.4297 4.88349C20.2021 4.58005 20.2636 4.14965 20.567 3.92209L20.9564 3.63023C20.3257 3.59976 19.6934 3.61667 19.0652 3.68105C12.2825 4.45549 7.41198 10.5818 8.18642 17.3644C8.60833 21.0594 10.6714 24.368 13.8036 26.3728C14.9471 27.0819 15.6495 28.3257 15.666 29.6711V32.4461C15.666 33.5839 16.5883 34.5063 17.7261 34.5063H23.2198C24.3576 34.5063 25.28 33.5839 25.28 32.4461V29.7281C25.2974 28.3511 26.0141 27.0776 27.1822 26.3481C28.2648 25.6458 29.2316 24.7793 30.0478 23.7798C29.9443 23.8432 29.8258 23.8781 29.7045 23.8808ZM21.1597 32.4461H19.7862V30.386H21.1597V32.4461ZM19.7862 29.0126C19.7858 27.1969 18.6662 25.5694 16.9707 24.9198C12.0256 22.9861 9.58432 17.4099 11.5179 12.4648C12.2666 10.55 13.6095 8.92566 15.3494 7.83018L16.078 8.9921C12.2259 11.4159 11.0682 16.5035 13.4921 20.3555C14.4312 21.8479 15.8242 22.9998 17.4665 23.6418C19.6922 24.4931 21.1614 26.6297 21.1597 29.0126H19.7862Z" fill="black"/>
<path d="M17.7261 37.9398V38.6266C17.7261 39.3851 18.341 40 19.0995 40H21.8464C22.6049 40 23.2198 39.3851 23.2198 38.6266V37.9398H17.7261Z" fill="black"/>
<path d="M13.4327 26.9525C13.0259 26.6887 12.634 26.4023 12.2591 26.0947C11.2225 28.1128 8.74617 28.9084 6.72809 27.8718C5.35449 27.1662 4.49266 25.7498 4.49721 24.2056C4.50039 22.1294 6.04661 20.3793 8.10658 20.1203C7.85456 19.3624 7.67249 18.5829 7.5627 17.7917L7.44253 18.363C7.28647 19.1053 6.55813 19.5805 5.81587 19.4244C5.6381 19.3871 5.46951 19.3148 5.31989 19.2118L3.89153 18.2312L2.64033 19.4796L3.62371 20.9094C4.05411 21.5339 3.89668 22.3892 3.27211 22.8196C3.12232 22.9228 2.95356 22.9953 2.77562 23.0327L1.06364 23.3932V25.0248L2.77562 25.3854C3.51787 25.5417 3.9929 26.2701 3.83659 27.0124C3.79908 27.1906 3.72646 27.3595 3.62302 27.5094L2.64033 28.9316L3.89153 30.18L5.31852 29.1966C5.94309 28.7662 6.79839 28.9237 7.22879 29.5482C7.33197 29.698 7.40441 29.8668 7.44184 30.0447L7.80168 31.7595H9.434L9.79384 30.0475C9.95007 29.3052 10.6784 28.8301 11.4207 28.9863C11.5986 29.0238 11.7674 29.0962 11.9172 29.1994L13.3435 30.18L14.8165 28.707C14.5695 27.9812 14.0811 27.3618 13.4327 26.9525Z" fill="black"/>
<path d="M23.2198 35.193H17.7261V36.5664H23.2198V35.193Z" fill="black"/>
<path d="M37.6195 11.8385C36.4932 11.6775 35.7107 10.6338 35.8718 9.50746C35.9491 8.96659 36.2381 8.47859 36.6753 8.15086L38.2843 6.94361L36.6362 4.74613L35.0272 5.95269C34.1171 6.63562 32.8258 6.45141 32.1429 5.54143C31.8154 5.10502 31.6744 4.55642 31.7509 4.01615L32.0352 2.02468L29.3165 1.63669L29.0322 3.62816C28.871 4.75446 27.8274 5.53697 26.7011 5.37593C26.1602 5.29859 25.6722 5.00957 25.3445 4.57239L24.1373 2.96067L21.9398 4.60879L23.1463 6.21776C23.8291 7.12791 23.6448 8.41919 22.7346 9.10204C22.2973 9.43012 21.7476 9.5709 21.2064 9.49338L19.2149 9.20908L18.8248 11.9285L20.8163 12.2128C21.9426 12.3739 22.7251 13.4175 22.5641 14.5438C22.4867 15.0847 22.1977 15.5727 21.7605 15.9004L20.1523 17.1077L21.8004 19.3052L23.4093 18.0986C24.3195 17.4158 25.6108 17.6001 26.2936 18.5103C26.6217 18.9476 26.7625 19.4974 26.685 20.0386L26.4007 22.03L29.1256 22.4201L29.4099 20.4286C29.571 19.3023 30.6146 18.5198 31.7409 18.6808C32.2818 18.7582 32.7698 19.0472 33.0975 19.4844L34.3048 21.0927L36.5023 19.4446L35.2916 17.8328C34.6091 16.9225 34.7937 15.6312 35.704 14.9487C36.1404 14.6215 36.6888 14.4807 37.2288 14.5572L39.2203 14.8415L39.6083 12.1228L37.6195 11.8385ZM29.219 16.1463C26.9434 16.1463 25.0987 14.3016 25.0987 12.026C25.0987 9.75039 26.9434 7.9057 29.219 7.9057C31.4946 7.9057 33.3392 9.75039 33.3392 12.026C33.3366 14.3005 31.4934 16.1436 29.219 16.1463Z" fill="black"/>
<path d="M38.3275 25.579H33.5205V26.9524H38.3275V25.579Z" fill="black"/>
<path d="M33.2734 29.1712L32.3943 30.2264L36.5149 33.6594L37.394 32.6042L33.2734 29.1712Z" fill="black"/>
<path d="M30.7737 31.0727H29.4002V35.8797H30.7737V31.0727Z" fill="black"/>
<path d="M5.88481 10.4915L0.391479 11.8647L0.72437 13.1964L6.2177 11.8232L5.88481 10.4915Z" fill="black"/>
<path d="M2.32997 3.73294L1.53214 4.84995L6.33876 8.28316L7.1366 7.16616L2.32997 3.73294Z" fill="black"/>
<path d="M8.74659 -0.000445939L7.41602 0.339752L8.82052 5.83304L10.1511 5.49284L8.74659 -0.000445939Z" fill="black"/>
</g>
<defs>
<clipPath id="clip0">
<rect width="40" height="40" fill="white"/>
</clipPath>
</defs>
</svg>
