<svg height="512" viewBox="0 0 74 74" width="512" xmlns="http://www.w3.org/2000/svg"><g id="color_line" data-name="color line"><path d="m71 26.788v34.8a5.674 5.674 0 0 1 -5.683 5.683h-56.634a5.684 5.684 0 0 1 -5.683-5.685v-34.8a5.684 5.684 0 0 1 5.683-5.683h14.6l2.279-7.02a3.268 3.268 0 0 1 3.085-2.234h16.718a3.235 3.235 0 0 1 3.07 2.234l2.279 7.02h14.6a5.674 5.674 0 0 1 5.686 5.685z" fill="#eeefee"/><path d="m67.5 33.56h3.5v-6.77a5.67 5.67 0 0 0 -5.68-5.68h-14.61l-2.28-7.03a3.225 3.225 0 0 0 -3.06-2.23h-16.72a3.242 3.242 0 0 0 -3.082 2.237l-.148.453h16.45a3.225 3.225 0 0 1 3.06 2.23l1.77 5.437a2.291 2.291 0 0 0 2.179 1.583h12.941a5.678 5.678 0 0 1 5.68 5.69z" fill="#e1e6e9"/><path d="m67.5 53.977v10.293a5.631 5.631 0 0 1 -.75 2.82 5.669 5.669 0 0 0 4.25-5.5v-7.613z" fill="#e1e6e9"/><path d="m55.2 33.81h15.8v19.903h-16.213" fill="#9297ab"/><path d="m43 16.662h-11.984a.5.5 0 0 1 0-1h11.984a.5.5 0 0 1 0 1z" fill="#323c6b"/><path d="m18.534 33.81h-15.534v19.903h16" fill="#9297ab"/><path d="m19 54.213h-16a.5.5 0 0 1 -.5-.5v-19.903a.5.5 0 0 1 .5-.5h15.534a.5.5 0 1 1 0 1h-15.034v18.9h15.5a.5.5 0 0 1 0 1z" fill="#323c6b"/><circle cx="37" cy="43.42" fill="#9297ab" r="20.547"/><path d="m51.99 57.47a20.538 20.538 0 0 0 -32.17-25.31 20.544 20.544 0 1 1 32.17 25.31z" fill="#84879c"/><circle cx="37" cy="43.42" fill="#89c5cd" r="15.672"/><path d="m37 59.592a16.172 16.172 0 1 1 16.172-16.172 16.191 16.191 0 0 1 -16.172 16.172zm0-31.345a15.172 15.172 0 1 0 15.172 15.173 15.189 15.189 0 0 0 -15.172-15.172z" fill="#323c6b"/><path d="m26.9 43.92a.5.5 0 0 1 -.5-.5 10.609 10.609 0 0 1 10.6-10.598.5.5 0 0 1 0 1 9.609 9.609 0 0 0 -9.6 9.6.5.5 0 0 1 -.5.498z" fill="#323c6b"/><path d="m56.31 24.899h8.674v3.672h-8.674z" fill="#84879c"/><path d="m64.983 29.071h-8.673a.5.5 0 0 1 -.5-.5v-3.671a.5.5 0 0 1 .5-.5h8.674a.5.5 0 0 1 .5.5v3.672a.5.5 0 0 1 -.501.499zm-8.174-1h7.674v-2.671h-7.673z" fill="#323c6b"/><path d="m15.067 16.162h-3.542a2.012 2.012 0 0 0 -2.012 2.012v2.932h7.565v-2.933a2.012 2.012 0 0 0 -2.011-2.011z" fill="#9297ab"/><g fill="#323c6b"><path d="m17.078 21.6h-7.565a.5.5 0 0 1 -.5-.5v-2.927a2.515 2.515 0 0 1 2.512-2.512h3.542a2.515 2.515 0 0 1 2.512 2.512v2.927a.5.5 0 0 1 -.501.5zm-7.065-1h6.565v-2.427a1.513 1.513 0 0 0 -1.512-1.512h-3.542a1.513 1.513 0 0 0 -1.512 1.512z"/><path d="m32.375 70.769h-9.312a.5.5 0 0 1 0-1h9.313a.5.5 0 0 1 0 1z"/><path d="m20.563 70.769h-1.125a.5.5 0 0 1 0-1h1.125a.5.5 0 0 1 0 1z"/><path d="m40.5 9.351h-1a.5.5 0 0 1 0-1h1a.5.5 0 0 1 0 1z"/><path d="m51.092 13.185a.5.5 0 0 1 -.462-.308 5.694 5.694 0 0 0 -5.265-3.526h-2.24a.5.5 0 0 1 0-1h2.24a6.692 6.692 0 0 1 6.188 4.142.5.5 0 0 1 -.462.692z"/><path d="m65.316 67.769h-56.632a6.191 6.191 0 0 1 -6.184-6.183v-34.8a6.191 6.191 0 0 1 6.184-6.186h14.239l2.167-6.674a3.753 3.753 0 0 1 3.561-2.58h16.714a3.713 3.713 0 0 1 3.545 2.581l2.167 6.673h14.239a6.191 6.191 0 0 1 6.184 6.188v34.8a6.191 6.191 0 0 1 -6.184 6.181zm-56.632-46.169a5.189 5.189 0 0 0 -5.184 5.188v34.8a5.189 5.189 0 0 0 5.184 5.183h56.632a5.189 5.189 0 0 0 5.184-5.185v-34.8a5.189 5.189 0 0 0 -5.184-5.186h-14.6a.5.5 0 0 1 -.476-.346l-2.279-7.02a2.751 2.751 0 0 0 -2.594-1.888h-16.717a2.753 2.753 0 0 0 -2.61 1.892l-2.278 7.016a.5.5 0 0 1 -.476.346z"/></g><path d="m67.5 33.935h3.5v19.375h-3.5z" fill="#84879c"/><path d="m71 54.213h-16.214a.5.5 0 0 1 0-1h15.714v-18.903h-15.3a.5.5 0 0 1 0-1h15.8a.5.5 0 0 1 .5.5v19.9a.5.5 0 0 1 -.5.503z" fill="#323c6b"/><path d="m37 64.467a21.047 21.047 0 1 1 21.047-21.047 21.07 21.07 0 0 1 -21.047 21.047zm0-41.094a20.047 20.047 0 1 0 20.047 20.047 20.07 20.07 0 0 0 -20.047-20.047z" fill="#323c6b"/><path d="m24.024 11.784h-.017a.5.5 0 0 1 -.483-.517 2.032 2.032 0 0 1 2.126-1.987.5.5 0 0 1 -.017 1h-.053a1.06 1.06 0 0 0 -1.056 1.02.5.5 0 0 1 -.5.484z" fill="#323c6b"/><path d="m16.95 12h-.017a.5.5 0 0 1 -.483-.517 9.609 9.609 0 0 1 9.895-9.247.5.5 0 0 1 .483.517.488.488 0 0 1 -.517.482 8.589 8.589 0 0 0 -8.861 8.282.5.5 0 0 1 -.5.483z" fill="#323c6b"/><path d="m20.386 12.117h-.017a.5.5 0 0 1 -.483-.516 6.145 6.145 0 0 1 6.343-5.929.5.5 0 0 1 .483.517.488.488 0 0 1 -.517.482 5.144 5.144 0 0 0 -5.31 4.963.5.5 0 0 1 -.499.483z" fill="#323c6b"/><path d="m6.03 45.855-.012-8.355a.772.772 0 1 1 1.543 0l.012 8.369a.742.742 0 0 1 -.19.5.774.774 0 0 1 -1.353-.51z" fill="#fff"/><path d="m7.561 48.74v.605a.707.707 0 0 1 -.2.51.729.729 0 0 1 -.582.261.768.768 0 0 1 -.76-.772v-.604a.772.772 0 1 1 1.543 0z" fill="#fff"/></g></svg>