<svg width="162" height="175" viewBox="0 0 162 175" fill="none" xmlns="http://www.w3.org/2000/svg">
<g id="Logo">
<path id="Vector" fill-rule="evenodd" clip-rule="evenodd" d="M80.7538 109.516L137.134 132.984C133.605 133.629 117.93 135.726 116.289 137.016C117.109 138.065 117.274 137.984 118.34 138.952C119.079 139.677 119.653 140.403 120.392 141.21L128.517 149.919C130.158 151.774 131.553 152.419 132.784 154.597L126.711 161.371C123.511 158.387 111.119 144.839 109.395 144.113L104.553 164.597L80.7538 109.516ZM79.1945 108.145L78.9483 111.613C75.1733 110.726 65.079 111.371 60.4833 111.29C60.4833 117.903 61.7964 123.226 63.1915 129.032H79.3587C79.4407 124.758 78.8663 115.887 79.6869 112.258C83.8723 121.048 83.5441 120.645 83.6261 129.032H86.9909L88.4681 132.823L83.7903 132.984L83.5441 150.081C88.9605 149.677 87.7295 150.645 92.7356 143.065C93.7204 144.435 94.0486 146.29 94.7872 147.823L95.5258 149.355C95.9362 150.161 96.1824 150.806 96.5106 151.855C84.2006 154.758 75.3374 155.726 63.5198 150.645C54 146.532 47.5167 140.565 42.6748 133.065C31.0213 114.919 34.0578 92.7419 49.8967 76.8548C71.5623 55.1613 111.939 62.1774 124.003 92.5806C128.024 102.742 128.271 115.323 124.167 125.323L120.556 123.871C120.638 121.935 122.362 118.71 122.936 111.29C119.407 111.29 108.164 110.726 105.62 111.613L105.292 117.258C103.65 116.935 102.584 116.452 101.435 115.565L101.599 111.29C98.152 111.29 91.997 111.774 89.0426 110.645C86.3344 109.677 82.1489 106.694 79.1945 108.145ZM60.4833 41.2903V13.4677H102.009V40.8064H76.076C70.2492 40.8064 66.228 41.2903 60.4833 41.2903ZM45.383 13.9516V41.2903H17.9726C17.4802 46.4516 16.3313 52.5806 15.6748 57.6613C12.31 85 8.04255 113.71 4.34954 141.21L0 175H162C162 169.274 153.465 100.806 152.234 91.2903C151.495 85.6452 150.757 80 150.264 74.6774C149.608 67.5806 146.407 45.6452 146.407 40.8064H118.587V13.9516C118.587 12.8226 117.766 12.4194 116.945 11.7742C116.043 11.0484 115.714 10.8065 114.812 10.1613C113.252 8.95161 112.021 7.90323 110.38 6.6129L104.061 1.69355C103.158 0.967742 102.748 0 101.517 0H60.8936C59.9088 0 58.0213 2.09677 56.8723 2.98387L50.8815 8.22581C49.8146 9.19355 45.383 12.9032 45.383 13.9516ZM79.3587 132.984V150.081C75.9119 149.839 74.5167 150.161 72.8754 148.387C70.6596 145.806 65.079 135.968 64.8328 132.984H79.3587ZM67.3769 147.5C61.9605 147.177 51.538 138.548 47.9271 132.984L60.155 133.065C61.4681 135.726 62.2888 138.387 63.5198 140.887C64.6687 143.226 66.228 145.645 67.3769 147.5ZM45.383 128.952C42.4286 125.565 40.3769 116.855 40.0486 111.29H56.3799C56.6261 118.226 57.693 122.742 58.924 129.032L45.383 128.952ZM83.6261 89.4355H98.8906C99.9575 95.5645 101.517 100.242 101.517 107.177H99.6292H85.5137H83.6261V89.4355ZM60.4833 107.177C60.4012 100.968 61.8784 94.9193 63.1094 89.4355H79.3587V107.177H60.4833ZM105.62 106.935C105.21 100.242 104.471 95.6452 103.076 89.4355L118.094 89.5161C120.556 95.8064 122.526 99.0323 122.936 107.177C119.325 107.177 108.328 107.661 105.62 106.935ZM40.0486 107.177C40.3769 99.3548 42.5106 95.5645 44.8906 89.4355L58.924 89.5161C57.693 95.8064 56.8723 100 56.3799 106.935C53.6717 107.742 43.5775 107.177 40.0486 107.177ZM83.7082 68.3064C87.155 68.629 87.6474 68.0645 89.3708 70.4839C92.3252 74.5161 96.0182 80.8064 97.3313 85.4032H83.6261L83.7082 68.3064ZM64.6687 85.4032C65.7356 81.6129 70.2492 73.0645 73.0395 69.9193C74.3526 68.3871 77.0608 68.5484 79.3587 68.3064V85.4032H64.6687ZM47.845 85.2419C52.2766 79.8387 59.6626 72.6613 67.2128 70.8871C65.4894 74.8387 63.2736 77.5806 61.4681 82.2581C61.0578 83.3871 60.7295 85.1613 59.4985 85.4032L47.845 85.2419ZM102.502 85.4032C101.024 84.7581 101.845 85.4839 100.286 81.6129C98.5623 77.3387 95.8541 73.5484 94.459 70.4032C103.158 72.6613 111.529 80 115.14 85.3226L102.502 85.4032ZM79.1945 108.145C82.1489 106.694 86.3344 109.677 89.0426 110.645C91.997 111.774 98.152 111.29 101.599 111.29L101.435 115.565C102.584 116.452 103.65 116.935 105.292 117.258L105.62 111.613C108.164 110.726 119.407 111.29 122.936 111.29C122.362 118.71 120.638 121.935 120.556 123.871L124.167 125.323C128.271 115.323 128.024 102.742 124.003 92.5806C111.939 62.1774 71.5623 55.1613 49.8967 76.8548C34.0578 92.7419 31.0213 114.919 42.6748 133.065C47.5167 140.565 54 146.532 63.5198 150.645C75.3374 155.726 84.2006 154.758 96.5106 151.855C96.1824 150.806 95.9362 150.161 95.5258 149.355L94.7872 147.823C94.0486 146.29 93.7204 144.435 92.7356 143.065C87.7295 150.645 88.9605 149.677 83.5441 150.081L83.7903 132.984L88.4681 132.823L86.9909 129.032H83.6261C83.5441 120.645 83.8723 121.048 79.6869 112.258C78.8663 115.887 79.4407 124.758 79.3587 129.032H63.1915C61.7964 123.226 60.4833 117.903 60.4833 111.29C65.079 111.371 75.1733 110.726 78.9483 111.613L79.1945 108.145ZM104.553 164.597L109.395 144.113C111.119 144.839 123.511 158.387 126.711 161.371L132.784 154.597C131.553 152.419 130.158 151.774 128.517 149.919L120.392 141.21C119.653 140.403 119.079 139.677 118.34 138.952C117.274 137.984 117.109 138.065 116.289 137.016C117.93 135.726 133.605 133.629 137.134 132.984L80.7538 109.516L104.553 164.597ZM60.4833 107.177H79.3587V89.4355H63.1094C61.8784 94.9193 60.4012 100.968 60.4833 107.177ZM83.6261 107.177H85.5137H99.6292H101.517C101.517 100.242 99.9575 95.5645 98.8906 89.4355H83.6261V107.177ZM105.62 106.935C108.328 107.661 119.325 107.177 122.936 107.177C122.526 99.0323 120.556 95.8064 118.094 89.5161L103.076 89.4355C104.471 95.6452 105.21 100.242 105.62 106.935ZM40.0486 107.177C43.5775 107.177 53.6717 107.742 56.3799 106.935C56.8723 100 57.693 95.8064 58.924 89.5161L44.8906 89.4355C42.5106 95.5645 40.3769 99.3548 40.0486 107.177ZM45.383 128.952L58.924 129.032C57.693 122.742 56.6261 118.226 56.3799 111.29H40.0486C40.3769 116.855 42.4286 125.565 45.383 128.952ZM79.3587 150.081V132.984H64.8328C65.079 135.968 70.6596 145.806 72.8754 148.387C74.5167 150.161 75.9119 149.839 79.3587 150.081ZM64.6687 85.4032H79.3587V68.3064C77.0608 68.5484 74.3526 68.3871 73.0395 69.9193C70.2492 73.0645 65.7356 81.6129 64.6687 85.4032ZM83.6261 85.4032H97.3313C96.0182 80.8064 92.3252 74.5161 89.3708 70.4839C87.6474 68.0645 87.155 68.629 83.7082 68.3064L83.6261 85.4032ZM102.502 85.4032L115.14 85.3226C111.529 80 103.158 72.6613 94.459 70.4032C95.8541 73.5484 98.5623 77.3387 100.286 81.6129C101.845 85.4839 101.024 84.7581 102.502 85.4032ZM67.3769 147.5C66.228 145.645 64.6687 143.226 63.5198 140.887C62.2888 138.387 61.4681 135.726 60.155 133.065L47.9271 132.984C51.538 138.548 61.9605 147.177 67.3769 147.5ZM47.845 85.2419L59.4985 85.4032C60.7295 85.1613 61.0578 83.3871 61.4681 82.2581C63.2736 77.5806 65.4894 74.8387 67.2128 70.8871C59.6626 72.6613 52.2766 79.8387 47.845 85.2419Z" fill="#2A7B9B"/>
<g id="2503689518288">
<path id="Vector_2" fill-rule="evenodd" clip-rule="evenodd" d="M78.496 63.6938H82.9276C91.7088 64.097 100.326 67.0002 107.63 72.0002C108.779 72.726 109.763 73.5325 110.83 74.4196L113.785 77.0002C114.687 77.726 118.216 82.0809 118.955 83.0486C121.007 86.1131 122.484 88.5325 123.961 92.0002C124.782 94.097 125.438 96.0325 125.931 98.2099C126.751 101.355 127.162 104.42 127.244 107.403V110.871C127.162 114.097 126.669 117.323 125.766 120.629C125.274 122.645 124.535 125.065 123.633 127C123.304 127.645 123.058 128.291 122.73 128.855C121.991 128.613 119.694 127.323 118.791 126.839C120.76 122.807 122.73 116.274 122.73 112H108.122C108.122 113.532 108.122 114.984 107.876 116.516C107.794 117.645 107.384 119.581 107.384 120.871C106.645 120.629 105.988 120.145 105.25 119.742C104.511 119.42 103.937 119.178 103.28 118.694L103.773 112H83.1738V129.339H87.0309C87.3592 130.871 87.9337 132.323 88.2619 133.774C86.6206 133.774 84.5689 133.936 83.1738 133.613V150.145C83.8303 149.823 84.9793 149.661 85.7999 149.339C89.4929 147.887 90.3136 146.436 91.7088 145.468C92.1191 147.081 93.6784 151.839 93.6784 152.968L88.0978 154.016C86.3744 154.339 84.5689 154.5 82.6814 154.581H79.9732C76.4443 154.42 72.9975 154.016 69.961 153.21C67.2528 152.565 61.9185 150.71 59.7027 149.5L54.4504 146.274C54.0401 146.032 53.958 145.952 53.6297 145.71L48.2954 141.274C47.803 140.71 47.5568 140.387 46.9823 139.742L44.3562 136.678C43.8638 136.113 43.6176 135.791 43.2072 135.145C42.961 134.823 42.7969 134.662 42.5507 134.339C41.5659 132.968 39.5963 129.581 39.0218 128.21C37.4626 124.42 37.2984 124.258 36.1495 120.065C34.9185 115.871 34.8364 112.403 34.8364 107.887C34.8364 104.178 35.493 101.113 36.1495 98.0486C37.0522 93.8551 39.0218 89.8228 41.0735 86.1938C42.2224 84.1776 44.192 81.597 45.7513 79.8228C46.9823 78.4518 47.803 77.4034 49.1981 76.2744C49.5264 76.0325 49.6905 75.7905 49.9367 75.5486C50.5112 74.9841 50.9215 74.7422 51.496 74.1776C54.7787 71.3551 57.9793 69.6615 61.7544 67.8067C67.0887 65.3067 72.7513 64.0164 78.496 63.6938ZM66.268 147.484C65.037 147.323 60.5233 144.984 59.2923 144.178C56.2559 142.242 55.3531 141.678 52.4808 139.178C52.1525 138.855 51.9063 138.613 51.5781 138.291C50.8395 137.565 50.5933 137.323 50.0188 136.436C51.2498 136.436 52.9732 135.952 54.2863 135.71C55.6814 135.468 57.3227 135.307 58.6358 135.065C58.882 135.549 59.1282 136.194 59.3744 136.758C59.6206 137.323 59.8668 137.807 60.1951 138.452L62.0006 141.678C62.4109 142.323 62.493 142.645 62.9854 143.21L66.268 147.484ZM63.3136 134.5C64.2984 134.5 65.5294 134.42 66.5142 134.258C67.3349 134.178 68.8942 134.097 69.7148 134.016C71.9306 133.774 76.5264 133.774 78.9063 133.774V149.903C75.0492 149.903 69.879 145.226 67.5811 142C66.3501 140.145 65.6936 139.178 64.6267 137.162C64.3805 136.758 64.2164 136.355 63.9702 135.871C63.806 135.549 63.806 135.549 63.6419 135.307C63.4778 134.984 63.4778 134.742 63.3136 134.5ZM39.3501 112H53.958C53.958 121.436 56.9945 129.903 56.9945 130.952C54.8607 130.952 47.9671 132.645 46.7361 132.726L44.11 128.371C41.8121 124.581 39.3501 116.355 39.3501 112ZM58.3075 112H78.9063V129.339C74.803 129.339 69.6328 129.581 65.6936 129.903C64.2984 129.984 63.1495 130.226 61.5082 130.226C61.5082 129.42 60.6875 127.403 60.3592 126.032C60.0309 124.5 59.7027 123.129 59.4565 121.678C59.1282 120.065 59.0461 118.694 58.7179 117C58.6358 116.032 58.4717 112.403 58.3075 112ZM83.1738 88.9357C87.2771 88.9357 92.4474 88.6938 96.3866 88.3712C97.7817 88.2905 98.9306 88.0486 100.572 88.0486L101.803 92.4841C102.87 96.597 103.773 103.452 103.773 107.726H83.1738V88.9357ZM61.5082 88.0486C62.9033 88.0486 64.3805 88.1293 65.5294 88.2905C67.0066 88.5325 68.2376 88.4518 69.6328 88.5325L78.9063 88.9357V107.726H58.3075C58.3075 102.484 59.4565 95.468 60.9337 90.3873C61.0978 89.5809 61.5082 88.8551 61.5082 88.0486ZM105.086 87.3228C105.988 87.3228 106.809 87.0809 107.63 87.0002L115.344 85.5486C115.59 85.9518 115.754 86.1938 116.083 86.597C116.329 87.0002 116.411 87.3228 116.739 87.726C118.216 89.9841 119.365 92.4841 120.35 94.9841C121.745 98.5325 122.73 103.21 122.73 107.726H108.122C108.122 102.484 107.466 96.7583 106.235 91.8389L105.086 87.3228ZM53.958 106.274V107.726H39.3501C39.3501 101.839 41.3197 94.7422 43.9458 90.0647L46.7361 85.5486C47.4747 85.6293 48.4595 85.8712 49.1161 86.0325C50.0188 86.1938 50.7574 86.3551 51.6601 86.5163C52.9732 86.7583 55.9276 87.3228 56.9945 87.3228C56.9945 87.968 56.6662 88.8551 56.5021 89.4196C56.2559 90.226 56.0917 90.8712 55.9276 91.6776C54.8607 95.7099 53.958 101.92 53.958 106.274ZM83.1738 84.6615V68.1293C84.0765 68.5325 85.882 68.5325 88.6723 70.3873C90.0674 71.3551 91.7908 72.8067 92.9398 74.0164C96.961 78.7744 96.6328 79.5002 98.9306 83.7744C96.4686 83.7744 90.5598 84.5002 87.1951 84.5002C85.7999 84.4196 84.3227 84.3389 83.1738 84.6615ZM78.9063 68.2905V84.5002C74.885 84.5002 70.6176 84.5002 66.5142 84.0163C65.5294 83.8551 64.2984 83.7744 63.3136 83.7744C63.8881 81.597 67.499 76.1938 69.2224 74.2583C71.192 71.9196 75.7878 68.2905 78.9063 68.2905ZM95.8942 70.7905C97.3714 70.9518 103.362 74.2583 104.922 75.3873C106.235 76.3551 111.733 80.5486 112.143 81.8389L103.444 83.2099L101.885 79.8228C100.572 77.1615 99.7513 75.9518 98.11 73.5325C97.6996 73.0486 97.3714 72.6454 96.961 72.1615C96.6328 71.7583 96.1404 71.1938 95.8942 70.7905ZM66.268 70.7905C64.8729 72.8067 64.2164 72.8873 62.0006 76.597L59.3744 81.4357C59.1282 82.0809 58.882 82.726 58.6358 83.2099L50.0188 81.8389C50.3471 80.468 56.3379 75.9518 57.1586 75.3873C57.8972 74.9034 58.4717 74.5809 59.2923 74.097C60.4413 73.2905 65.1191 70.8712 66.268 70.7905Z" fill="white"/>
<path id="Vector_3" fill-rule="evenodd" clip-rule="evenodd" d="M98.3568 152.564C99.0954 152.403 99.6698 150.951 100.08 150.144L103.691 143.612C104.101 142.725 104.512 141.919 105.497 142.967L107.384 145.386C108.205 146.354 114.524 154.58 115.345 154.58C116.494 154.58 118.463 152.483 119.53 151.677C121.828 149.983 120.187 149.419 115.673 143.773C114.688 142.644 110.749 138.451 110.667 137.322C111.323 136.999 112.554 136.677 113.375 136.435L122.238 133.935C122.156 132.967 121.335 132.967 120.515 132.483L94.3355 118.773C93.5148 118.29 92.8583 118.048 92.1197 117.644C91.2169 117.08 88.4267 115.548 87.5239 115.548C87.5239 116.596 87.7701 116.999 88.0163 117.886C88.2625 118.773 88.4267 119.338 88.6729 120.225C89.1653 121.838 89.6577 123.37 90.068 124.903C90.9707 127.967 91.8735 131.112 92.7762 134.177L97.7823 151.596C97.9464 152.161 97.9464 152.322 98.3568 152.564Z" fill="white"/>
</g>
</g>
</svg>
