<svg width="87" height="64" viewBox="0 0 87 64" fill="none" xmlns="http://www.w3.org/2000/svg">
<g clip-path="url(#clip0)">
<rect width="86.86" height="63.0218" rx="12" fill="#F5CE85"/>
<path d="M77.4083 0H9.43174C4.23103 0 0 3.93246 0 8.76618V54.2556C0 59.0893 4.23103 63.0218 9.43174 63.0218H77.4083C82.609 63.0218 86.84 59.0893 86.84 54.2556V8.76618C86.84 3.93246 82.609 0 77.4083 0ZM78.8528 30.3263H58.2899V21.4021C58.2899 20.6618 58.9378 20.0596 59.7344 20.0596H78.8528V30.3263ZM58.2899 32.6955H78.8528V42.9622H58.2899V32.6955ZM81.4019 26.3775H84.2909V36.6442H81.4019V26.3775ZM81.4019 24.0083V13.7416H84.2909V24.0083H81.4019ZM78.8528 17.6903H59.7344C57.5323 17.6903 55.7407 19.3554 55.7407 21.4021V55.5981H31.0993V7.42361H77.4083C78.2048 7.42361 78.8528 8.02588 78.8528 8.76618V17.6903ZM28.5501 30.3263H7.98724V20.0596H28.5501V30.3263ZM5.43812 36.6442H2.54912V26.3775H5.43812V36.6442ZM7.98724 32.6955H28.5501V42.9622H7.98724V32.6955ZM44.6946 5.05438V2.36924H67.9765V5.05438H44.6946ZM42.1454 5.05438H18.8635V2.36924H42.1454V5.05438ZM28.5501 7.42361V17.6903H7.98724V8.76618C7.98724 8.02588 8.63523 7.42361 9.43174 7.42361H28.5501ZM5.43812 24.0083H2.54912V13.7416H5.43812V24.0083ZM2.54912 39.0135H5.43812V49.2802H2.54912V39.0135ZM7.98724 45.3314H28.5501V55.5981H9.43174C8.63523 55.5981 7.98724 54.9959 7.98724 54.2556V45.3314ZM42.1454 57.9674V60.6525H18.8635V57.9674H42.1454ZM44.6946 57.9674H67.9765V60.6525H44.6946V57.9674ZM58.2899 55.5981V45.3314H78.8528V54.2556C78.8528 54.9959 78.2048 55.5981 77.4083 55.5981H58.2899ZM81.4019 39.0135H84.2909V49.2802H81.4019V39.0135ZM84.2909 8.76618V11.3723H81.4019V8.76618C81.4019 6.71948 79.6104 5.05438 77.4083 5.05438H70.5256V2.36924H77.4083C81.2034 2.36924 84.2909 5.23886 84.2909 8.76618ZM9.43174 2.36924H16.3144V5.05438H9.43174C7.22964 5.05438 5.43812 6.71948 5.43812 8.76618V11.3723H2.54912V8.76618C2.54912 5.23886 5.63661 2.36924 9.43174 2.36924ZM2.54912 54.2556V51.6494H5.43812V54.2556C5.43812 56.3023 7.22964 57.9674 9.43174 57.9674H16.3144V60.6525H9.43174C5.63661 60.6525 2.54912 57.7829 2.54912 54.2556ZM77.4083 60.6525H70.5256V57.9674H77.4083C79.6104 57.9674 81.4019 56.3023 81.4019 54.2556V51.6494H84.2909V54.2556C84.2909 57.7829 81.2034 60.6525 77.4083 60.6525Z" fill="#6D6D6C"/>
</g>
<defs>
<clipPath id="clip0">
<rect width="86.86" height="63.02" fill="white"/>
</clipPath>
</defs>
</svg>
