<svg width="192" height="133" viewBox="0 0 192 133" fill="none" xmlns="http://www.w3.org/2000/svg">
<path d="M12.154 37.4725H7.81738V43.1101H12.154V37.4725Z" fill="#3F3D56"/>
<path d="M108.231 116.478H103.894V122.115H108.231V116.478Z" fill="#3F3D56"/>
<path d="M173.917 62.7987V58.4622H168.28V62.7987H173.917Z" fill="#3F3D56"/>
<path d="M159.402 121.414C168.862 121.414 176.531 113.744 176.531 104.284C176.531 94.8237 168.862 87.1545 159.402 87.1545C149.942 87.1545 142.272 94.8237 142.272 104.284C142.272 113.744 149.942 121.414 159.402 121.414Z" fill="#2F2E41"/>
<path d="M166.018 127.741L171.138 126.814L169.478 116.122L164.357 117.049L166.018 127.741Z" fill="#2F2E41"/>
<path d="M155.777 128.077L160.897 127.15L159.237 117.976L154.116 118.903L155.777 128.077Z" fill="#2F2E41"/>
<path d="M158.495 130.008C160.322 128.46 161.333 126.65 160.753 125.965C160.173 125.279 158.22 125.978 156.393 127.526C154.565 129.074 153.554 130.884 154.134 131.57C154.715 132.255 156.667 131.556 158.495 130.008Z" fill="#2F2E41"/>
<path d="M168.523 129.711C170.351 128.163 171.362 126.352 170.781 125.667C170.201 124.982 168.249 125.681 166.421 127.229C164.593 128.776 163.582 130.587 164.163 131.272C164.743 131.958 166.695 131.258 168.523 129.711Z" fill="#2F2E41"/>
<path d="M158.203 105.948C161.436 105.948 164.057 103.327 164.057 100.094C164.057 96.8608 161.436 94.2397 158.203 94.2397C154.97 94.2397 152.349 96.8608 152.349 100.094C152.349 103.327 154.97 105.948 158.203 105.948Z" fill="white"/>
<path d="M155.797 99.9471C156.874 99.9471 157.748 99.0734 157.748 97.9956C157.748 96.9178 156.874 96.0441 155.797 96.0441C154.719 96.0441 153.845 96.9178 153.845 97.9956C153.845 99.0734 154.719 99.9471 155.797 99.9471Z" fill="#3F3D56"/>
<path d="M172.915 85.649C173.173 79.3074 167.707 73.936 160.707 73.6517C153.708 73.3674 147.824 78.2778 147.567 84.6194C147.309 90.961 152.175 92.4018 159.175 92.6861C166.174 92.9705 172.657 91.9906 172.915 85.649Z" fill="#5FA2FF"/>
<path d="M151.933 103.077C152.265 101.629 148.797 99.5994 144.186 98.5426C139.575 97.4858 135.569 97.8024 135.237 99.2498C134.905 100.697 138.374 102.727 142.984 103.784C147.595 104.841 151.602 104.524 151.933 103.077Z" fill="#2F2E41"/>
<path d="M185.558 108.669C185.89 107.221 182.421 105.191 177.81 104.134C173.2 103.077 169.193 103.394 168.861 104.841C168.53 106.289 171.998 108.319 176.609 109.376C181.22 110.433 185.226 110.116 185.558 108.669Z" fill="#2F2E41"/>
<path d="M164.107 111.034C164.198 111.539 164.19 112.057 164.081 112.558C163.973 113.059 163.767 113.534 163.475 113.955C163.183 114.377 162.81 114.737 162.379 115.014C161.948 115.292 161.466 115.481 160.962 115.573C160.457 115.664 159.94 115.655 159.439 115.546C158.938 115.438 158.463 115.231 158.042 114.939C157.62 114.647 157.261 114.274 156.983 113.843C156.706 113.411 156.517 112.93 156.426 112.425C156.042 110.304 157.682 109.553 159.803 109.169C161.924 108.785 163.723 108.913 164.107 111.034Z" fill="white"/>
<path d="M125.572 10.5208H74.5562V106.002H125.572V10.5208Z" fill="#F2F2F2"/>
<path d="M137.88 106.2H74.3579V0H137.88V106.2ZM74.7549 105.803H137.483V0.397011H74.7549V105.803Z" fill="#3F3D56"/>
<path d="M191.262 131.578H0V132.022H191.262V131.578Z" fill="#3F3D56"/>
<path d="M130.138 55.78H82.0996V11.7118H130.138V55.78ZM82.4966 55.383H129.741V12.1088H82.4966V55.383Z" fill="#3F3D56"/>
<path d="M82.4384 44.0958L82.1577 43.8151L97.1296 28.8432L105.92 37.6338L129.7 13.8543L129.98 14.135L105.92 38.1952L97.1296 29.4046L82.4384 44.0958Z" fill="#3F3D56"/>
<path d="M97.1861 32.1579C98.8305 32.1579 100.164 30.8248 100.164 29.1803C100.164 27.5358 98.8305 26.2027 97.1861 26.2027C95.5416 26.2027 94.2085 27.5358 94.2085 29.1803C94.2085 30.8248 95.5416 32.1579 97.1861 32.1579Z" fill="#5FA2FF"/>
<path d="M106.119 40.2966C107.763 40.2966 109.096 38.9635 109.096 37.319C109.096 35.6745 107.763 34.3414 106.119 34.3414C104.474 34.3414 103.141 35.6745 103.141 37.319C103.141 38.9635 104.474 40.2966 106.119 40.2966Z" fill="#5FA2FF"/>
<path d="M129.939 16.8729C131.584 16.8729 132.917 15.5398 132.917 13.8954C132.917 12.2509 131.584 10.9178 129.939 10.9178C128.295 10.9178 126.962 12.2509 126.962 13.8954C126.962 15.5398 128.295 16.8729 129.939 16.8729Z" fill="#5FA2FF"/>
<path d="M124.183 68.0874H88.0547V71.6605H124.183V68.0874Z" fill="#3F3D56"/>
<path d="M114.456 97.4662H97.7812V80.7917H109.096V81.1888H98.1783V97.0692H114.059V89.129H114.456V97.4662Z" fill="#3F3D56"/>
<path d="M106.033 93.117L102.506 88.4144L103.776 87.4615L106.205 90.6992L117.368 79.5356L118.491 80.6583L106.033 93.117Z" fill="#5FA2FF"/>
<path d="M67.6179 55.0587C67.5877 55.1959 67.5681 55.3353 67.5591 55.4757L57.0061 61.776L54.441 60.2478L51.7065 63.9525L57.1939 68L69.2333 58.1708C69.7243 58.3589 70.2591 58.3878 70.7663 58.2536C71.2736 58.1195 71.7294 57.8288 72.0731 57.42C72.4169 57.0113 72.6322 56.504 72.6905 55.9655C72.7488 55.427 72.6473 54.883 72.3996 54.4056C72.1518 53.9283 71.7695 53.5403 71.3035 53.2933C70.8375 53.0464 70.3098 52.952 69.7907 53.0229C69.2717 53.0938 68.7857 53.3266 68.3976 53.6902C68.0095 54.0539 67.7375 54.5312 67.6179 55.0587Z" fill="#FFB8B8"/>
<path d="M43.1416 59.0084L51.8235 65L55.7065 60.2859L47.2669 53.7287C46.9038 53.4466 46.4851 53.2392 46.0363 53.1193C45.5876 52.9994 45.1183 52.9695 44.6571 53.0313C44.196 53.0932 43.7528 53.2456 43.3546 53.4791C42.9565 53.7127 42.6117 54.0225 42.3415 54.3896C41.8151 55.1048 41.6036 55.9932 41.7537 56.8594C41.9037 57.7256 42.403 58.4986 43.1416 59.0084Z" fill="#5FA2FF"/>
<path d="M25.7065 127.237L28.5217 128L32.7065 117.127L28.5519 116L25.7065 127.237Z" fill="#FFB8B8"/>
<path d="M33.5552 132.271L24.2618 129.836L25.2026 126.246L30.9054 127.74C31.8577 127.99 32.6718 128.607 33.1688 129.457C33.6657 130.307 33.8047 131.319 33.5552 132.271Z" fill="#2F2E41"/>
<path d="M51.7461 129L54.7065 128.48L54.0757 117L49.7065 117.768L51.7461 129Z" fill="#FFB8B8"/>
<path d="M61.2124 130.582L51.755 132.271L51.1022 128.617L56.9057 127.581C57.3855 127.495 57.8776 127.505 58.3537 127.609C58.8298 127.714 59.2807 127.911 59.6806 128.189C60.0805 128.468 60.4216 128.823 60.6845 129.233C60.9473 129.644 61.1267 130.102 61.2124 130.582Z" fill="#2F2E41"/>
<path d="M45.9902 41.7797C46.7363 41.9671 47.3434 42.7518 47.7079 43.661C48.0441 44.6158 48.2718 45.6077 48.3863 46.6168C48.6728 48.496 48.9478 50.5304 48.3554 52.2708C47.661 54.3107 45.8109 55.3791 44.206 54.877C42.6011 54.375 41.3247 52.4903 40.8886 50.3209C40.4916 48.1289 40.7474 45.8641 41.6223 43.8251C42.0782 42.7538 42.7066 41.7655 43.5417 41.2821C43.9513 41.0264 44.4396 40.9403 44.9082 41.0411C45.3768 41.1419 45.7911 41.4221 46.0677 41.8254" fill="#2F2E41"/>
<path d="M49.938 75L55.7065 126.207L50.9422 128L42.1552 93.662L29.9215 125.058L24.7065 125.346C24.7065 125.346 31.8617 76.493 37.1645 75.3827L49.938 75Z" fill="#2F2E41"/>
<path d="M45.7065 49C49.0203 49 51.7065 46.0899 51.7065 42.5C51.7065 38.9102 49.0203 36 45.7065 36C42.3928 36 39.7065 38.9102 39.7065 42.5C39.7065 46.0899 42.3928 49 45.7065 49Z" fill="#FFB8B8"/>
<path d="M47.7248 50.8632L41.3091 50C41.3091 50 37.125 55.1789 37.4039 64.0981C37.6829 73.0174 36.7065 75.7507 36.7065 75.7507L50.0834 76C48.1497 73.2574 56.238 57.5059 47.7248 50.8632Z" fill="#5FA2FF"/>
<path d="M51.1479 77.7546C51.0131 77.7556 50.8785 77.7675 50.7455 77.7902L42.4713 68.7579L43.3149 65.8743L39.2375 64L36.7065 70.3439L48.6108 80.0542C48.5468 80.5827 48.6412 81.1186 48.8815 81.5908C49.1218 82.0629 49.4966 82.4488 49.956 82.6972C50.4154 82.9457 50.9377 83.0447 51.4533 82.9814C51.969 82.918 52.4536 82.6951 52.8428 82.3424C53.2319 81.9897 53.5071 81.5239 53.6318 81.0069C53.7564 80.4899 53.7247 79.9462 53.5407 79.4482C53.3567 78.9502 53.0292 78.5214 52.6018 78.2188C52.1744 77.9163 51.6673 77.7544 51.1479 77.7546Z" fill="#FFB8B8"/>
<path d="M42.5068 55.0296L38.7065 64.4539L44.0048 67L48.3926 57.6733C48.5813 57.272 48.6874 56.8359 48.7042 56.3916C48.721 55.9474 48.6482 55.5043 48.4903 55.0895C48.3324 54.6748 48.0927 54.2971 47.7859 53.9796C47.479 53.6621 47.1116 53.4115 46.7059 53.2432C46.3146 53.0808 45.8956 52.9982 45.4727 53C45.0499 53.0019 44.6316 53.0882 44.2417 53.2541C43.8518 53.42 43.4979 53.6622 43.2002 53.9668C42.9026 54.2715 42.6669 54.6326 42.5068 55.0296Z" fill="#5FA2FF"/>
<path d="M43.5013 47.8571C44.461 47.3143 44.5634 46.0051 44.433 44.9264C44.3026 43.8478 44.0847 42.6454 44.7314 41.7635C45.5033 40.7109 47.0541 40.6899 48.376 40.6556C49.6979 40.6212 51.3078 40.2417 51.6503 38.9896C51.8766 38.1623 51.3924 37.2745 50.6975 36.7551C50.0026 36.2358 49.1333 36.0062 48.2884 35.788C46.3982 35.2998 44.4465 34.8076 42.5111 35.0759C40.5942 35.3416 38.861 36.3366 37.6866 37.8455C36.5122 39.3544 35.9911 41.2559 36.236 43.1386C36.5493 45.5469 37.0036 46.5985 36.7054 47.6604C36.1499 49.6382 33.7549 50.9088 33.7073 52.9597C33.6699 54.564 35.1154 55.8015 36.5257 56.6161C37.6443 57.2622 38.8516 57.8104 40.1407 57.9617C41.4299 58.1129 42.8178 57.8234 43.7782 56.9668C45.0168 55.862 45.3232 54.0163 44.968 52.412C44.6128 50.8078 43.7017 49.3831 42.8005 47.9996" fill="#2F2E41"/>
</svg>
