<svg width="300" height="196" viewBox="0 0 300 196" fill="none" xmlns="http://www.w3.org/2000/svg">
<g clip-path="url(#clip0)">
<path d="M244.523 195.258H239.675C239.066 195.258 238.481 195.015 238.05 194.584C237.619 194.153 237.377 193.569 237.376 192.959V152.552C237.377 151.943 237.619 151.358 238.05 150.927C238.481 150.496 239.066 150.253 239.675 150.253H244.523C245.133 150.253 245.717 150.496 246.148 150.927C246.579 151.358 246.822 151.943 246.823 152.552V192.959C246.822 193.569 246.579 194.153 246.148 194.584C245.717 195.015 245.133 195.258 244.523 195.258Z" fill="#5FA2FF"/>
<path d="M254.769 195.258H249.921C249.311 195.258 248.727 195.015 248.296 194.584C247.865 194.153 247.622 193.569 247.622 192.959V152.552C247.622 151.943 247.865 151.358 248.296 150.927C248.727 150.496 249.311 150.253 249.921 150.253H254.769C255.379 150.253 255.963 150.496 256.394 150.927C256.825 151.358 257.068 151.943 257.068 152.552V192.959C257.068 193.569 256.825 194.153 256.394 194.584C255.963 195.015 255.379 195.258 254.769 195.258Z" fill="#5FA2FF"/>
<path d="M256.413 165.336H237.69C236.95 165.335 236.24 165.04 235.717 164.517C235.193 163.994 234.899 163.284 234.898 162.544V157.288C234.899 156.548 235.193 155.838 235.717 155.315C236.24 154.791 236.95 154.497 237.69 154.496H256.413C257.153 154.497 257.863 154.791 258.387 155.315C258.91 155.838 259.204 156.548 259.205 157.288V162.544C259.204 163.284 258.91 163.994 258.387 164.517C257.863 165.04 257.153 165.335 256.413 165.336Z" fill="#2F2E41"/>
<path d="M248.808 67.3589C249.38 61.6569 253.128 56.2042 258.849 54.7202C261.64 53.979 264.604 54.2478 267.217 55.4792C269.582 56.6723 271.441 58.6732 272.458 61.1194C273.461 63.5393 273.845 66.171 273.575 68.7766C273.27 71.6243 272.361 74.3741 270.909 76.8427C269.357 79.5784 267.339 82.0242 265.221 84.3369C263.063 86.6932 260.622 88.8611 258.806 91.5064C257.195 93.8525 255.9 97.0389 257.487 99.7392C258.109 100.729 259.004 101.519 260.063 102.014C261.122 102.509 262.302 102.688 263.46 102.529C264.028 102.443 264.578 102.261 265.085 101.99C265.644 101.691 266.143 102.542 265.582 102.841C263.457 103.975 260.815 103.718 258.807 102.442C256.493 100.972 255.46 98.3759 255.893 95.6928C256.388 92.6336 258.521 90.0069 260.569 87.8049C262.709 85.5048 264.95 83.3084 266.931 80.8648C268.889 78.451 270.636 75.7868 271.684 72.8442C272.564 70.3851 272.858 67.7545 272.542 65.162C272.229 62.6862 271.267 60.2329 269.539 58.4011C268.585 57.4172 267.442 56.6355 266.178 56.1025C264.915 55.5694 263.558 55.296 262.186 55.2985C259.341 55.2621 256.582 56.2765 254.438 58.1474C252.323 60.0386 250.831 62.5259 250.158 65.2817C249.986 65.9643 249.864 66.6585 249.794 67.3589C249.731 67.9839 248.745 67.9904 248.808 67.3589H248.808Z" fill="#2F2E41"/>
<path d="M251.943 67.1327L247.265 65.5879C247.039 65.5136 246.831 65.3956 246.651 65.2407C246.471 65.0858 246.324 64.897 246.217 64.6851C246.11 64.4731 246.046 64.2422 246.029 64.0056C246.011 63.769 246.041 63.5312 246.115 63.3058C246.189 63.0805 246.307 62.8721 246.462 62.6924C246.617 62.5127 246.806 62.3653 247.018 62.2586C247.23 62.1519 247.461 62.0881 247.698 62.0707C247.934 62.0533 248.172 62.0826 248.398 62.1571L253.076 63.702C253.302 63.7762 253.511 63.894 253.691 64.0489C253.871 64.2038 254.018 64.3926 254.125 64.6046C254.232 64.8166 254.296 65.0476 254.314 65.2844C254.331 65.5212 254.302 65.7591 254.228 65.9846C254.153 66.21 254.035 66.4186 253.88 66.5984C253.725 66.7781 253.536 66.9256 253.324 67.0322C253.111 67.1388 252.88 67.2026 252.644 67.2199C252.407 67.2371 252.169 67.2075 251.943 67.1327H251.943Z" fill="#2F2E41"/>
<path d="M300 194.876H193.563V195.612H300V194.876Z" fill="#3F3D56"/>
<path d="M159.303 128.119C156.46 128.119 153.626 127.797 150.856 127.158C149.431 126.828 148.027 126.414 146.651 125.919H146.651L146.593 125.899C144.825 125.258 143.108 124.485 141.457 123.586C141.032 123.357 140.603 123.113 140.183 122.859C139.894 122.688 139.609 122.513 139.324 122.334C133.82 118.857 129.318 114.004 126.262 108.256C123.205 102.508 121.7 96.0626 121.895 89.5553C122.089 83.048 123.977 76.7039 127.372 71.1488C130.766 65.5936 135.55 61.0194 141.252 57.8772C146.954 54.735 153.376 53.1336 159.885 53.2307C166.395 53.3279 172.767 55.1204 178.372 58.4313C183.977 61.7422 188.623 66.4573 191.85 72.1113C195.077 77.7653 196.775 84.1629 196.775 90.6731V90.6728C196.758 97.0975 195.096 103.411 191.948 109.011C188.8 114.612 184.27 119.314 178.791 122.668C178.147 123.06 177.484 123.436 176.763 123.817C175.783 124.336 174.781 124.809 173.783 125.223L173.598 125.302C173.253 125.445 172.908 125.581 172.559 125.711C172.4 125.772 172.233 125.835 172.067 125.896C167.985 127.369 163.679 128.122 159.34 128.119H159.303ZM146.765 125.263L146.82 125.281C148.189 125.777 149.586 126.19 151.004 126.518C153.726 127.145 156.51 127.462 159.303 127.462C159.315 127.462 159.327 127.463 159.339 127.462C163.603 127.465 167.834 126.725 171.844 125.278C172.005 125.22 172.167 125.158 172.326 125.096C172.602 124.994 172.874 124.888 173.144 124.779V124.778L173.349 124.692C174.388 124.267 175.434 123.778 176.456 123.237C177.165 122.862 177.817 122.492 178.449 122.107C183.832 118.811 188.282 114.193 191.375 108.69C194.468 103.188 196.101 96.9854 196.118 90.6734V90.6731C196.118 84.2771 194.45 77.9918 191.279 72.437C188.109 66.8822 183.545 62.2499 178.038 58.997C172.531 55.7442 166.271 53.9831 159.876 53.8876C153.481 53.7921 147.171 55.3654 141.569 58.4523C135.968 61.5393 131.267 66.0332 127.932 71.4908C124.597 76.9484 122.743 83.1812 122.551 89.5743C122.36 95.9673 123.839 102.3 126.841 107.947C129.844 113.594 134.267 118.361 139.674 121.778C139.953 121.953 140.233 122.126 140.52 122.295C140.933 122.545 141.353 122.784 141.769 123.008C143.376 123.883 145.046 124.636 146.765 125.263L146.765 125.263Z" fill="#E6E6E6"/>
<path d="M91.637 74.9062C88.794 74.9058 85.9602 74.5834 83.1897 73.9452C81.7649 73.615 80.3609 73.201 78.9849 72.7054H78.9848L78.9272 72.6858C77.1592 72.0449 75.4422 71.2716 73.7906 70.3723C73.3662 70.1443 72.9371 69.8995 72.5169 69.6461C72.2277 69.4751 71.9427 69.2997 71.6577 69.1207C66.154 65.6433 61.6519 60.7913 58.5955 55.0432C55.5391 49.295 54.034 42.8494 54.2287 36.3421C54.4233 29.8349 56.311 23.4907 59.7055 17.9356C63.1 12.3804 67.8841 7.80615 73.5858 4.66399C79.2875 1.52184 85.7099 -0.0796377 92.2193 0.0175316C98.7288 0.114701 105.1 1.90717 110.706 5.2181C116.311 8.52904 120.957 13.2441 124.184 18.8981C127.411 24.5521 129.109 30.9497 129.109 37.4599V37.4596C129.092 43.8843 127.43 50.1976 124.282 55.7983C121.134 61.3989 116.604 66.1004 111.125 69.4549C110.481 69.8472 109.818 70.2232 109.097 70.6043C108.117 71.1233 107.115 71.5955 106.117 72.0099L105.932 72.0891C105.587 72.2319 105.242 72.3682 104.893 72.4975C104.734 72.5591 104.567 72.6223 104.401 72.6826C100.319 74.1559 96.0129 74.9083 91.6738 74.9062C91.6616 74.9059 91.6496 74.9062 91.637 74.9062ZM79.0994 72.0494L79.1543 72.068C80.5228 72.5635 81.9197 72.9765 83.3376 73.3049C86.0596 73.9322 88.844 74.249 91.6374 74.2493C91.6494 74.2493 91.6613 74.2496 91.6735 74.2493C95.9367 74.2514 100.168 73.5122 104.178 72.0648C104.339 72.0064 104.501 71.9451 104.66 71.8832C104.936 71.7806 105.208 71.675 105.478 71.5653V71.565L105.683 71.4784C106.722 71.054 107.768 70.5648 108.79 70.0237C109.499 69.6487 110.151 69.2791 110.783 68.8939C116.166 65.5983 120.616 60.9793 123.709 55.477C126.802 49.9747 128.435 43.7722 128.452 37.4602V37.4599C128.452 31.064 126.784 24.7786 123.613 19.2238C120.443 13.669 115.879 9.03671 110.372 5.78385C104.865 2.53098 98.6051 0.769932 92.2099 0.67441C85.8147 0.578888 79.505 2.15219 73.9033 5.23913C68.3016 8.32608 63.6015 12.82 60.2664 18.2776C56.9314 23.7352 55.0767 29.968 54.8854 36.3611C54.694 42.7541 56.1726 49.0867 59.1752 54.734C62.1778 60.3813 66.6008 65.1483 72.0078 68.5648C72.2872 68.7402 72.5671 68.9125 72.8537 69.0822C73.2672 69.3314 73.6868 69.5707 74.1033 69.7946C75.7102 70.6696 77.3802 71.4232 79.0994 72.0494V72.0494Z" fill="#E6E6E6"/>
<path d="M37.4383 150.456C34.5953 150.455 31.7614 150.133 28.991 149.495C27.5662 149.165 26.1622 148.751 24.7862 148.255H24.786L24.7285 148.235C22.9605 147.595 21.2434 146.821 19.5918 145.922C19.1674 145.694 18.7384 145.449 18.3182 145.196C18.029 145.025 17.744 144.849 17.459 144.67C11.9553 141.193 7.45319 136.341 4.39679 130.593C1.34039 124.845 -0.164724 118.399 0.0299302 111.892C0.224585 105.384 2.11228 99.0403 5.5068 93.4852C8.90132 87.93 13.6854 83.3558 19.3871 80.2136C25.0888 77.0714 31.5112 75.47 38.0206 75.5671C44.5301 75.6643 50.9018 77.4568 56.5071 80.7677C62.1125 84.0786 66.7579 88.7937 69.9851 94.4477C73.2123 100.102 74.9098 106.499 74.9101 113.009V113.009C74.8928 119.434 73.231 125.747 70.0829 131.348C66.9349 136.949 62.4054 141.65 56.9259 145.005C56.2826 145.397 55.6194 145.773 54.8984 146.154C53.9183 146.673 52.9166 147.145 51.9185 147.56L51.7335 147.639C51.3881 147.781 51.0428 147.918 50.6943 148.047C50.5355 148.109 50.3687 148.172 50.2021 148.232C46.1207 149.706 41.8142 150.458 37.4751 150.456C37.4629 150.456 37.4507 150.456 37.4383 150.456ZM24.9007 147.599L24.9556 147.618C26.324 148.113 27.721 148.526 29.1388 148.854C31.8609 149.482 34.6452 149.799 37.4386 149.799C37.4505 149.8 37.4621 149.799 37.4747 149.799C41.738 149.801 45.9691 149.062 49.9791 147.614C50.1406 147.556 50.3023 147.495 50.4609 147.433C50.7374 147.33 51.009 147.225 51.2796 147.115V147.115L51.4839 147.028C52.5235 146.604 53.569 146.114 54.5913 145.573C55.3004 145.198 55.9522 144.829 56.5843 144.443C61.9676 141.148 66.4176 136.529 69.5105 131.027C72.6033 125.524 74.2361 119.322 74.2532 113.01V113.009C74.2529 106.614 72.5852 100.328 69.4146 94.7734C66.2441 89.2186 61.6802 84.5863 56.1732 81.3334C50.6662 78.0806 44.4064 76.3195 38.0112 76.224C31.6159 76.1285 25.3063 77.7018 19.7046 80.7887C14.1029 83.8757 9.40274 88.3696 6.06771 93.8272C2.73267 99.2848 0.877998 105.518 0.686638 111.911C0.495278 118.304 1.97384 124.636 4.97648 130.284C7.97912 135.931 12.4021 140.698 17.8091 144.114C18.0885 144.29 18.3684 144.462 18.655 144.632C19.0685 144.881 19.4881 145.12 19.9046 145.344C21.5115 146.219 23.1815 146.973 24.9007 147.599V147.599Z" fill="#E6E6E6"/>
<path d="M57.9028 86.6772C60.7761 86.6772 63.1054 84.348 63.1054 81.4746C63.1054 78.6013 60.7761 76.272 57.9028 76.272C55.0295 76.272 52.7002 78.6013 52.7002 81.4746C52.7002 84.348 55.0295 86.6772 57.9028 86.6772Z" fill="#CCCCCC"/>
<path d="M114.4 14.0839C117.274 14.0839 119.603 11.7546 119.603 8.88133C119.603 6.00802 117.274 3.67874 114.4 3.67874C111.527 3.67874 109.198 6.00802 109.198 8.88133C109.198 11.7546 111.527 14.0839 114.4 14.0839Z" fill="#CCCCCC"/>
<path d="M187.979 74.1951C190.853 74.1951 193.182 71.8658 193.182 68.9925C193.182 66.1192 190.853 63.7899 187.979 63.7899C185.106 63.7899 182.777 66.1192 182.777 68.9925C182.777 71.8658 185.106 74.1951 187.979 74.1951Z" fill="#CCCCCC"/>
<path d="M247.294 102.521C257.003 102.521 264.873 94.6501 264.873 84.9411C264.873 75.232 257.003 67.3613 247.294 67.3613C237.585 67.3613 229.714 75.232 229.714 84.9411C229.714 94.6501 237.585 102.521 247.294 102.521Z" fill="#5FA2FF"/>
<path d="M201.498 140.214C201.258 140.214 201.019 140.176 200.79 140.102C200.502 140.01 200.235 139.862 200.005 139.666C199.775 139.47 199.586 139.231 199.449 138.961L197.24 134.646C197.103 134.377 197.019 134.084 196.995 133.783C196.971 133.482 197.006 133.179 197.099 132.892C197.192 132.604 197.34 132.338 197.536 132.108C197.732 131.878 197.971 131.689 198.24 131.551L234.209 113.141C234.752 112.863 235.383 112.812 235.963 113C236.544 113.187 237.026 113.598 237.304 114.141L239.513 118.456C239.79 118.999 239.841 119.63 239.654 120.21C239.466 120.791 239.056 121.273 238.513 121.551L202.544 139.961C202.221 140.128 201.862 140.215 201.498 140.214Z" fill="#5FA2FF"/>
<path d="M262.326 157.781H232.434C231.694 157.78 230.984 157.486 230.461 156.962C229.937 156.439 229.643 155.729 229.642 154.989V123.619C229.642 118.915 231.511 114.403 234.837 111.077C238.164 107.75 242.675 105.882 247.38 105.882C252.084 105.882 256.596 107.75 259.922 111.077C263.249 114.403 265.118 118.915 265.118 123.619V154.989C265.117 155.729 264.822 156.439 264.299 156.962C263.775 157.486 263.066 157.78 262.326 157.781Z" fill="#CCCCCC"/>
<path d="M250.883 154.372C250.86 154.372 250.837 154.371 250.814 154.371L245.968 154.23C245.358 154.213 244.781 153.953 244.362 153.51C243.944 153.066 243.719 152.475 243.736 151.865L244.906 111.475C244.914 111.173 244.982 110.876 245.106 110.6C245.229 110.325 245.406 110.076 245.626 109.869C245.671 109.827 245.717 109.787 245.764 109.749C246.19 109.406 246.725 109.227 247.271 109.243L252.117 109.383C252.727 109.402 253.304 109.661 253.722 110.105C254.141 110.548 254.366 111.139 254.349 111.749L253.179 152.139C253.161 152.737 252.912 153.304 252.483 153.72C252.054 154.137 251.481 154.37 250.883 154.372Z" fill="#5FA2FF"/>
<path d="M246.196 108.36C246.591 108.041 247.087 107.874 247.595 107.89L252.441 108.031C253.007 108.048 253.543 108.289 253.931 108.7C254.32 109.112 254.529 109.661 254.514 110.227L255.643 128.938C255.626 129.504 255.385 130.04 254.973 130.428C254.562 130.816 254.013 131.026 253.447 131.01L253.447 131.01L244.33 130.87C244.05 130.861 243.774 130.798 243.518 130.683C243.263 130.569 243.032 130.405 242.839 130.201C242.647 129.997 242.497 129.757 242.397 129.495C242.297 129.233 242.25 128.954 242.258 128.674L244.26 110.316C244.276 109.746 245.653 108.863 246.068 108.472C246.109 108.433 246.152 108.395 246.196 108.36Z" fill="#CCCCCC"/>
<path d="M239.38 111.7C239.849 111.894 240.233 112.25 240.462 112.704L242.657 117.026C242.912 117.531 242.957 118.117 242.782 118.655C242.606 119.194 242.224 119.64 241.72 119.897L225.829 129.84C225.324 130.095 224.738 130.14 224.2 129.964C223.662 129.789 223.215 129.407 222.958 128.902L222.958 128.902L218.721 120.829C218.594 120.579 218.517 120.307 218.496 120.027C218.474 119.748 218.508 119.467 218.595 119.2C218.682 118.934 218.82 118.687 219.003 118.474C219.185 118.261 219.408 118.086 219.658 117.959L237.591 111.766C237.841 111.639 238.114 111.562 238.393 111.54C238.673 111.519 238.954 111.553 239.221 111.64C239.275 111.658 239.328 111.678 239.38 111.7Z" fill="#CCCCCC"/>
<path d="M241.42 89.2366C240.334 89.2062 238.983 89.1683 237.942 88.4078C237.632 88.1721 237.377 87.8715 237.195 87.527C237.014 87.1825 236.91 86.8024 236.89 86.4135C236.872 86.137 236.917 85.8598 237.023 85.6037C237.129 85.3476 237.293 85.1195 237.502 84.9373C238.046 84.4776 238.839 84.3701 239.695 84.6216L238.809 78.1419L239.459 78.0527L240.502 85.6702L239.958 85.421C239.328 85.1317 238.463 84.9847 237.926 85.439C237.794 85.5577 237.691 85.7053 237.625 85.8703C237.559 86.0352 237.533 86.2131 237.547 86.3901C237.563 86.6796 237.641 86.9623 237.776 87.2189C237.911 87.4755 238.1 87.7 238.329 87.8772C239.139 88.469 240.217 88.5457 241.438 88.5797L241.42 89.2366Z" fill="#2F2E41"/>
<path d="M235.59 78.701H232.052V79.358H235.59V78.701Z" fill="#2F2E41"/>
<path d="M246.758 78.701H243.22V79.358H246.758V78.701Z" fill="#2F2E41"/>
<path d="M158.085 111C167.794 111 175.664 103.129 175.664 93.4202C175.664 83.7112 167.794 75.8405 158.085 75.8405C148.376 75.8405 140.505 83.7112 140.505 93.4202C140.505 103.129 148.376 111 158.085 111Z" fill="#5FA2FF"/>
<path d="M150.109 83.9546C148.057 83.4706 145.842 82.8195 144.378 81.204C143.132 79.8288 142.548 77.7063 143.652 76.0759C144.66 74.5872 146.648 74.0409 148.322 73.7617C150.267 73.4372 152.267 73.3898 154.092 72.5619C154.988 72.1565 155.77 71.536 156.369 70.7554C156.925 69.9752 157.407 69.1452 157.81 68.276C158.191 67.429 158.701 66.6458 159.321 65.9541C160.027 65.2634 160.936 64.8193 161.915 64.688C164.117 64.3533 166.208 65.371 167.941 66.6349C169.619 67.8829 171.141 69.3276 172.475 70.9379C175.505 74.5483 177.59 78.8545 178.544 83.47C178.672 84.0907 179.622 83.828 179.494 83.208C178.582 78.8402 176.687 74.7374 173.953 71.2109C172.599 69.4525 171.044 67.8588 169.319 66.4622C167.534 65.0237 165.472 63.7701 163.123 63.6513C162.037 63.588 160.953 63.8033 159.974 64.2767C159.074 64.7512 158.316 65.4567 157.779 66.3208C156.672 67.9991 156.139 70.1678 154.353 71.3031C152.545 72.453 150.281 72.4643 148.229 72.7843C146.405 73.0689 144.373 73.6699 143.138 75.1352C141.772 76.756 141.823 78.9647 142.844 80.7522C143.978 82.7384 146.085 83.8223 148.2 84.4685C148.743 84.6344 149.294 84.7744 149.847 84.9048C150.464 85.0503 150.727 84.1004 150.109 83.9546V83.9546Z" fill="#2F2E41"/>
<path d="M157.334 99.2898L157.315 98.6329C158.538 98.5989 159.615 98.5222 160.425 97.9307C160.654 97.7535 160.843 97.5289 160.978 97.2722C161.113 97.0155 161.191 96.7328 161.207 96.4432C161.221 96.2663 161.194 96.0885 161.129 95.9236C161.063 95.7587 160.96 95.6112 160.828 95.4925C160.291 95.0386 159.426 95.1855 158.796 95.4745L158.252 95.7237L159.294 88.1062L159.945 88.1954L159.059 94.6751C159.915 94.4233 160.709 94.5317 161.252 94.9908C161.461 95.173 161.625 95.401 161.731 95.6569C161.837 95.9129 161.882 96.1899 161.863 96.4663C161.844 96.8554 161.74 97.2355 161.559 97.5801C161.377 97.9247 161.122 98.2255 160.812 98.4613C159.772 99.2215 158.42 99.2593 157.334 99.2898Z" fill="#2F2E41"/>
<path d="M166.703 88.7542H163.165V89.4111H166.703V88.7542Z" fill="#2F2E41"/>
<path d="M155.534 88.7542H151.996V89.4111H155.534V88.7542Z" fill="#2F2E41"/>
<path d="M36.8767 133.336C46.5857 133.336 54.4565 125.466 54.4565 115.757C54.4565 106.048 46.5857 98.1768 36.8767 98.1768C27.1676 98.1768 19.2969 106.048 19.2969 115.757C19.2969 125.466 27.1676 133.336 36.8767 133.336Z" fill="#5FA2FF"/>
<path d="M36.1262 121.626L36.1079 120.969C37.3301 120.935 38.4076 120.859 39.2172 120.267C39.4467 120.09 39.6354 119.865 39.7704 119.609C39.9054 119.352 39.9835 119.069 39.9994 118.78C40.0136 118.603 39.9869 118.425 39.9212 118.26C39.8555 118.095 39.7527 117.948 39.6207 117.829C39.0833 117.375 38.2185 117.522 37.5881 117.811L37.0446 118.06L38.0869 110.443L38.7378 110.532L37.8512 117.012C38.7076 116.76 39.5012 116.868 40.0448 117.327C40.2535 117.509 40.4173 117.737 40.5233 117.993C40.6293 118.249 40.6747 118.526 40.6559 118.803C40.6367 119.192 40.5327 119.572 40.3511 119.917C40.1695 120.261 39.9148 120.562 39.6047 120.798C38.5644 121.558 37.2125 121.596 36.1262 121.626Z" fill="#2F2E41"/>
<path d="M45.4947 111.091H41.9565V111.748H45.4947V111.091Z" fill="#2F2E41"/>
<path d="M34.3263 111.091H30.7881V111.748H34.3263V111.091Z" fill="#2F2E41"/>
<path d="M92.0602 57.2783C101.769 57.2783 109.64 49.4076 109.64 39.6985C109.64 29.9895 101.769 22.1187 92.0602 22.1187C82.3512 22.1187 74.4805 29.9895 74.4805 39.6985C74.4805 49.4076 82.3512 57.2783 92.0602 57.2783Z" fill="#CCCCCC"/>
<path d="M104.485 46.1998L104.467 45.5429C105.689 45.5089 106.766 45.4322 107.576 44.8407C107.806 44.6635 107.994 44.4389 108.129 44.1822C108.264 43.9255 108.342 43.6428 108.358 43.3532C108.373 43.1763 108.346 42.9985 108.28 42.8336C108.214 42.6687 108.112 42.5212 107.98 42.4025C107.442 41.9482 106.577 42.0952 105.947 42.3845L105.403 42.6337L106.446 35.0162L107.097 35.1054L106.21 41.5851C107.067 41.3333 107.86 41.4414 108.404 41.9008C108.612 42.083 108.776 42.311 108.882 42.5669C108.988 42.8229 109.034 43.0999 109.015 43.3763C108.996 43.7654 108.892 44.1455 108.71 44.4901C108.528 44.8347 108.274 45.1355 107.964 45.3712C106.923 46.1315 105.571 46.1693 104.485 46.1998Z" fill="#2F2E41"/>
<path d="M102.686 35.6642H99.1475V36.3212H102.686V35.6642Z" fill="#2F2E41"/>
<path d="M102.452 21.0828C101.795 17.1687 99.3161 13.804 96.126 11.5326C92.9987 9.34527 89.2601 8.20226 85.4443 8.2669C78.0558 8.34819 70.8315 12.4864 66.8702 18.696C62.4817 25.5754 62.3951 34.559 65.3619 41.9971C66.1203 43.9131 67.0818 45.7424 68.2301 47.4535C69.5036 49.3405 71.0464 51.0052 72.5469 52.7095C75.3433 55.8856 78.5494 60.3028 76.6755 64.7346C75.9833 66.3715 74.5232 67.8597 72.6651 67.9769C71.0965 68.0759 69.3574 67.3257 68.6618 65.8512C67.8827 64.1994 68.9615 62.2444 70.5553 61.5683C72.227 60.8593 73.9644 61.9053 74.5819 63.5143C74.8887 64.2551 74.8991 65.0854 74.611 65.8336C74.5495 65.9475 74.5336 66.0804 74.5664 66.2056C74.5992 66.3307 74.6784 66.4388 74.7878 66.5078C74.9008 66.5729 75.035 66.5909 75.1612 66.5578C75.2874 66.5248 75.3954 66.4433 75.4619 66.331C75.7936 65.5019 75.8656 64.5915 75.6684 63.7206C75.4712 62.8496 75.014 62.0591 74.3575 61.4537C73.6912 60.8155 72.8203 60.434 71.8994 60.3771C70.9785 60.3201 70.0673 60.5914 69.3275 61.1427C67.7652 62.2838 66.9392 64.3262 67.7309 66.1693C68.4163 67.765 70.0749 68.7288 71.7498 68.9322C72.6737 69.0233 73.6054 68.8736 74.4543 68.4977C75.3033 68.1218 76.0404 67.5326 76.594 66.7873C77.8293 65.1698 78.3891 63.1362 78.1555 61.1144C77.6071 56.071 73.5779 52.6229 70.5531 48.932C67.8633 45.6248 65.9678 41.7448 65.0121 37.5903C64.0342 33.5069 64.0707 29.2462 65.1183 25.1801C66.1344 21.3248 68.2228 17.8366 71.1413 15.1203C73.9424 12.5244 77.3632 10.6915 81.076 9.79714C84.7467 8.88332 88.6095 9.11838 92.1423 10.4706C95.8454 11.9396 99.1316 14.8462 100.698 18.5474C101.074 19.4453 101.344 20.3841 101.502 21.3448C101.607 21.9688 102.556 21.7041 102.452 21.0828H102.452Z" fill="#2F2E41"/>
<path d="M102.43 21.2312C104.075 19.6461 106.757 19.4175 108.74 20.4912C110.79 21.6018 111.613 23.9937 111.087 26.207C110.817 27.4433 110.103 28.5376 109.08 29.2822C108.563 29.642 109.055 30.4966 109.577 30.1331C111.795 28.589 112.729 25.6134 111.972 23.0394C111.182 20.3518 108.557 18.7473 105.815 18.8544C104.295 18.8947 102.842 19.4926 101.733 20.5344C101.276 20.9752 101.973 21.6715 102.43 21.2312Z" fill="#2F2E41"/>
<path d="M41.3535 104.65C43.4739 104.453 45.2491 103.049 46.1905 101.17C46.6712 100.197 46.9234 99.1276 46.928 98.0427C46.9325 96.9578 46.6893 95.8863 46.2168 94.9097C45.2176 92.862 43.5504 91.216 41.4902 90.2429C39.0939 89.0822 36.3878 88.7609 33.7519 88.8674C28.7848 89.0679 23.3125 90.4624 20.2591 94.6977C18.8228 96.6184 18.1986 99.0265 18.5211 101.403C18.9074 103.897 20.4254 106.057 22.0462 107.919C23.7449 109.87 25.7051 111.628 27.0477 113.863C28.2094 115.798 28.8343 118.233 28.0572 120.428C27.8719 120.949 27.5969 121.432 27.2445 121.858C26.8427 122.343 27.5361 123.043 27.9413 122.554C29.3393 120.868 29.6219 118.641 29.1817 116.542C28.697 114.231 27.299 112.277 25.7702 110.532C22.7955 107.136 18.3653 103.427 19.6156 98.354C20.2027 96.155 21.5386 94.2297 23.393 92.9101C25.3813 91.4685 27.7421 90.6754 30.1411 90.2446C34.7316 89.4204 40.2907 89.5066 43.759 93.0833C45.2005 94.5698 46.1919 96.6469 45.9264 98.7549C45.6869 100.656 44.4732 102.52 42.6986 103.313C42.2723 103.503 41.818 103.621 41.3535 103.664C40.7274 103.723 40.7213 104.709 41.3535 104.65H41.3535Z" fill="#2F2E41"/>
</g>
<defs>
<clipPath id="clip0">
<rect width="300" height="195.612" fill="white"/>
</clipPath>
</defs>
</svg>
