<svg width="200" height="130" viewBox="0 0 200 130" fill="none" xmlns="http://www.w3.org/2000/svg">
<g clip-path="url(#clip0)">
<path d="M185.331 111.861L165.928 78.2436C165.874 78.1491 165.796 78.0705 165.702 78.0159C165.607 77.9613 165.501 77.9325 165.392 77.9325C165.283 77.9325 165.176 77.9613 165.082 78.0159C164.988 78.0705 164.91 78.1491 164.856 78.2436L145.447 111.861C145.39 111.955 145.36 112.063 145.358 112.173C145.357 112.283 145.386 112.391 145.44 112.487C145.495 112.582 145.574 112.661 145.67 112.716C145.765 112.77 145.874 112.798 145.984 112.797H151.773C151.938 112.797 152.095 112.863 152.211 112.979C152.327 113.095 152.392 113.252 152.393 113.416V120.598C152.393 120.679 152.408 120.76 152.439 120.835C152.47 120.91 152.515 120.978 152.572 121.035C152.63 121.093 152.697 121.138 152.772 121.17C152.847 121.201 152.927 121.217 153.008 121.217H160.563C160.727 121.217 160.885 121.152 161.001 121.036C161.117 120.92 161.182 120.762 161.182 120.598V117.123C161.182 116.959 161.247 116.802 161.363 116.686C161.479 116.571 161.636 116.506 161.8 116.506H168.982C169.146 116.506 169.303 116.571 169.419 116.686C169.535 116.802 169.601 116.959 169.601 117.123V120.591C169.601 120.755 169.666 120.912 169.783 121.029C169.899 121.145 170.056 121.21 170.22 121.21H177.773C177.937 121.209 178.094 121.144 178.211 121.028C178.327 120.912 178.393 120.755 178.394 120.591V113.409C178.394 113.244 178.459 113.087 178.576 112.971C178.692 112.855 178.849 112.789 179.014 112.789H184.803C184.911 112.788 185.017 112.758 185.11 112.703C185.202 112.648 185.279 112.57 185.333 112.476C185.386 112.382 185.414 112.276 185.414 112.168C185.413 112.061 185.385 111.955 185.331 111.861ZM158.278 115.581C158.162 115.699 158.004 115.767 157.838 115.768H155.114C154.949 115.768 154.792 115.703 154.676 115.587C154.56 115.471 154.494 115.313 154.494 115.149C154.494 114.985 154.56 114.827 154.676 114.711C154.792 114.595 154.949 114.53 155.114 114.53H157.838C157.92 114.529 158 114.545 158.076 114.576C158.151 114.607 158.219 114.653 158.277 114.71C158.334 114.768 158.38 114.836 158.411 114.912C158.442 114.987 158.458 115.068 158.458 115.149C158.456 115.311 158.392 115.466 158.278 115.581ZM176.106 115.581C176.049 115.64 175.981 115.687 175.906 115.719C175.83 115.751 175.75 115.768 175.668 115.768H172.945C172.781 115.768 172.624 115.702 172.508 115.586C172.392 115.47 172.326 115.313 172.326 115.149C172.327 114.985 172.392 114.828 172.508 114.712C172.624 114.596 172.781 114.531 172.945 114.53H175.668C175.791 114.529 175.911 114.564 176.013 114.632C176.116 114.7 176.196 114.797 176.243 114.911C176.29 115.024 176.302 115.149 176.277 115.27C176.253 115.39 176.193 115.501 176.106 115.587V115.581Z" fill="#F2F2F2"/>
<path d="M65.3708 112.157L45.9639 78.5411C45.9092 78.4472 45.8308 78.3692 45.7366 78.3149C45.6423 78.2607 45.5355 78.2322 45.4268 78.2322C45.3181 78.2322 45.2113 78.2607 45.117 78.3149C45.0228 78.3692 44.9444 78.4472 44.8897 78.5411L28.125 107.576C30.2223 110.215 32.5747 112.642 35.1479 114.82H37.8743C37.9968 114.82 38.1165 114.856 38.2184 114.924C38.3202 114.992 38.3995 115.089 38.4464 115.202C38.4933 115.315 38.5055 115.44 38.4816 115.56C38.4578 115.68 38.3988 115.79 38.3122 115.877C38.2556 115.936 38.1876 115.983 38.1124 116.015C38.0371 116.047 37.9562 116.064 37.8743 116.064H36.7216C38.1335 117.126 39.6363 118.061 41.2127 118.858V117.426C41.2132 117.262 41.2789 117.104 41.3953 116.988C41.5118 116.872 41.6695 116.807 41.834 116.807H49.014C49.1783 116.807 49.3359 116.872 49.452 116.988C49.5682 117.104 49.6334 117.262 49.6334 117.426V120.892C49.6322 120.982 49.652 121.071 49.6914 121.152C49.7405 121.26 49.8195 121.351 49.9191 121.414C50.0187 121.478 50.1346 121.512 50.2528 121.511H57.8072C57.9029 121.511 57.9974 121.489 58.0829 121.445C58.1683 121.402 58.2425 121.339 58.2993 121.262C58.3819 121.155 58.4255 121.023 58.4228 120.888V113.706C58.4228 113.542 58.4881 113.384 58.6042 113.268C58.7204 113.152 58.8779 113.087 59.0422 113.087H64.8319C64.9412 113.088 65.0489 113.06 65.1438 113.006C65.2388 112.952 65.3177 112.873 65.3725 112.779C65.4273 112.684 65.4561 112.577 65.4558 112.468C65.4555 112.358 65.4262 112.251 65.3708 112.157ZM52.5414 115.001C52.5988 114.942 52.6671 114.896 52.7426 114.864C52.8181 114.832 52.8991 114.815 52.9811 114.814H55.7057C55.87 114.814 56.0275 114.879 56.1437 114.995C56.2598 115.112 56.3251 115.269 56.3251 115.433C56.3241 115.597 56.2586 115.754 56.1426 115.87C56.0267 115.986 55.8697 116.052 55.7057 116.053H52.9811C52.8997 116.053 52.8191 116.037 52.7438 116.006C52.6686 115.975 52.6002 115.929 52.5426 115.872C52.485 115.814 52.4394 115.746 52.4084 115.671C52.3774 115.595 52.3615 115.515 52.3617 115.433C52.3634 115.271 52.4278 115.116 52.5414 115.001ZM40.3519 102.561C40.2705 102.561 40.1898 102.545 40.1146 102.514C40.0393 102.483 39.9709 102.438 39.9134 102.38C39.8558 102.322 39.8102 102.254 39.7792 102.179C39.7481 102.104 39.7323 102.023 39.7325 101.941V97.2371C39.7323 97.1556 39.7481 97.075 39.7792 96.9997C39.8102 96.9245 39.8558 96.8561 39.9134 96.7985C39.9709 96.741 40.0393 96.6953 40.1146 96.6643C40.1898 96.6333 40.2705 96.6174 40.3519 96.6177H50.5036C50.6678 96.6177 50.8254 96.6829 50.9415 96.7991C51.0577 96.9152 51.123 97.0728 51.123 97.2371V101.941C51.123 102.106 51.0577 102.263 50.9415 102.379C50.8254 102.496 50.6678 102.561 50.5036 102.561H40.3519Z" fill="#F2F2F2"/>
<path d="M142.091 51.767H118.072V46.5723C118.072 46.4091 118.04 46.2474 117.978 46.0965C117.915 45.9456 117.824 45.8086 117.708 45.6931C117.593 45.5777 117.456 45.4862 117.305 45.4238C117.154 45.3615 116.992 45.3295 116.829 45.3298H109.776V39.8058C109.776 39.5983 109.694 39.3994 109.547 39.2527C109.401 39.106 109.202 39.0236 108.994 39.0236H99.9092C99.7017 39.0236 99.5028 39.106 99.3561 39.2527C99.2094 39.3994 99.127 39.5983 99.127 39.8058V45.3391H90.8316C90.5021 45.3391 90.186 45.47 89.953 45.703C89.72 45.9361 89.5891 46.2521 89.5891 46.5816V51.7632H66.6922C66.6255 51.7637 66.5617 51.7905 66.5147 51.8379C66.4678 51.8852 66.4414 51.9492 66.4414 52.0158V120.98C66.4414 121.047 66.4678 121.11 66.5147 121.158C66.5617 121.205 66.6255 121.232 66.6922 121.232H81.9131C81.9801 121.232 82.0444 121.206 82.0917 121.158C82.1391 121.111 82.1657 121.047 82.1657 120.98V111.702C82.1667 111.635 82.1939 111.571 82.2415 111.524C82.289 111.477 82.3532 111.45 82.4202 111.449H88.8481C88.9149 111.45 88.9789 111.477 89.0261 111.524C89.0734 111.571 89.1002 111.635 89.1007 111.702V120.98C89.1012 121.046 89.1277 121.11 89.1745 121.157C89.2214 121.204 89.2849 121.231 89.3514 121.232H119.43C119.497 121.232 119.561 121.205 119.608 121.158C119.656 121.111 119.682 121.047 119.683 120.98V111.702C119.683 111.636 119.71 111.572 119.757 111.525C119.804 111.477 119.867 111.45 119.934 111.449H126.363C126.431 111.449 126.495 111.476 126.543 111.523C126.59 111.571 126.617 111.635 126.618 111.702V120.98C126.618 121.046 126.645 121.11 126.692 121.157C126.739 121.204 126.802 121.231 126.869 121.232H142.091C142.158 121.232 142.222 121.205 142.269 121.158C142.316 121.11 142.342 121.047 142.342 120.98V52.0196C142.342 51.9529 142.316 51.8889 142.269 51.8416C142.222 51.7943 142.158 51.7675 142.091 51.767ZM79.4393 108.227C79.4393 108.293 79.4131 108.357 79.3665 108.404C79.3199 108.451 79.2566 108.477 79.1904 108.478H69.7891C69.7559 108.478 69.723 108.472 69.6923 108.459C69.6616 108.447 69.6336 108.428 69.6099 108.405C69.5863 108.382 69.5675 108.354 69.5546 108.324C69.5416 108.293 69.5349 108.26 69.5346 108.227V105.016C69.5351 104.949 69.5621 104.885 69.6098 104.837C69.6575 104.79 69.7219 104.763 69.7891 104.763H79.1904C79.2568 104.764 79.3201 104.791 79.3666 104.839C79.4132 104.886 79.4393 104.95 79.4393 105.016V108.227ZM79.4393 99.9298C79.4395 99.9628 79.4333 99.9954 79.4209 100.026C79.4085 100.056 79.3903 100.084 79.3672 100.108C79.3441 100.131 79.3166 100.15 79.2862 100.163C79.2559 100.175 79.2233 100.182 79.1904 100.182H69.7891C69.7558 100.183 69.7227 100.176 69.6919 100.164C69.661 100.151 69.6329 100.133 69.6093 100.109C69.5856 100.086 69.5668 100.058 69.554 100.027C69.5412 99.9962 69.5346 99.9632 69.5346 99.9298V96.7206C69.5346 96.6873 69.5412 96.6543 69.554 96.6235C69.5668 96.5927 69.5856 96.5648 69.6093 96.5413C69.6329 96.5178 69.661 96.4993 69.6919 96.4867C69.7227 96.4741 69.7558 96.4677 69.7891 96.468H79.1904C79.2233 96.4682 79.2559 96.475 79.2862 96.4878C79.3166 96.5006 79.3441 96.5193 79.3672 96.5428C79.3903 96.5662 79.4085 96.594 79.4209 96.6245C79.4333 96.655 79.4395 96.6877 79.4393 96.7206V99.9298ZM79.4393 91.6345C79.4393 91.7008 79.4132 91.7645 79.3666 91.8118C79.3201 91.8591 79.2568 91.8861 79.1904 91.8871H69.7891C69.7219 91.8871 69.6575 91.8606 69.6098 91.8132C69.5621 91.7659 69.5351 91.7016 69.5346 91.6345V88.4234C69.5351 88.3562 69.5621 88.292 69.6098 88.2446C69.6575 88.1973 69.7219 88.1708 69.7891 88.1708H79.1904C79.2568 88.1717 79.3201 88.1988 79.3666 88.2461C79.4132 88.2933 79.4393 88.357 79.4393 88.4234V91.6345ZM79.4393 83.3372C79.4395 83.3702 79.4333 83.4028 79.4209 83.4333C79.4085 83.4639 79.3903 83.4916 79.3672 83.5151C79.3441 83.5386 79.3166 83.5572 79.2862 83.5701C79.2559 83.5829 79.2233 83.5896 79.1904 83.5899H69.7891C69.7558 83.5901 69.7227 83.5838 69.6919 83.5712C69.661 83.5586 69.6329 83.54 69.6093 83.5165C69.5856 83.4931 69.5668 83.4651 69.554 83.4344C69.5412 83.4036 69.5346 83.3706 69.5346 83.3372V80.128C69.5346 80.0947 69.5412 80.0617 69.554 80.0309C69.5668 80.0001 69.5856 79.9722 69.6093 79.9487C69.6329 79.9252 69.661 79.9067 69.6919 79.8941C69.7227 79.8815 69.7558 79.8751 69.7891 79.8754H79.1904C79.2233 79.8756 79.2559 79.8824 79.2862 79.8952C79.3166 79.908 79.3441 79.9267 79.3672 79.9502C79.3903 79.9736 79.4085 80.0014 79.4209 80.0319C79.4333 80.0624 79.4395 80.0951 79.4393 80.128V83.3372ZM79.4393 75.0419C79.4393 75.1082 79.4132 75.1719 79.3666 75.2192C79.3201 75.2665 79.2568 75.2935 79.1904 75.2945H69.7891C69.7219 75.2945 69.6575 75.268 69.6098 75.2206C69.5621 75.1733 69.5351 75.1091 69.5346 75.0419V71.8308C69.5349 71.7976 69.5416 71.7648 69.5546 71.7342C69.5675 71.7037 69.5863 71.676 69.6099 71.6527C69.6336 71.6294 69.6616 71.611 69.6923 71.5985C69.723 71.5861 69.7559 71.5798 69.7891 71.58H79.1904C79.2566 71.5805 79.3199 71.6072 79.3665 71.6541C79.4131 71.7011 79.4393 71.7646 79.4393 71.8308V75.0419ZM79.4393 66.7465C79.4393 66.8127 79.4131 66.8762 79.3665 66.9232C79.3199 66.9701 79.2566 66.9968 79.1904 66.9973H69.7891C69.7559 66.9975 69.723 66.9912 69.6923 66.9788C69.6616 66.9663 69.6336 66.9479 69.6099 66.9246C69.5863 66.9013 69.5675 66.8736 69.5546 66.8431C69.5416 66.8125 69.5349 66.7797 69.5346 66.7465V63.5354C69.5351 63.4682 69.5621 63.404 69.6098 63.3567C69.6575 63.3093 69.7219 63.2828 69.7891 63.2828H79.1904C79.2568 63.2838 79.3201 63.3108 79.3666 63.3581C79.4132 63.4054 79.4393 63.469 79.4393 63.5354V66.7465ZM79.4393 58.4493C79.4395 58.4822 79.4333 58.5149 79.4209 58.5454C79.4085 58.5759 79.3903 58.6037 79.3672 58.6271C79.3441 58.6506 79.3166 58.6693 79.2862 58.6821C79.2559 58.6949 79.2233 58.7017 79.1904 58.7019H69.7891C69.7558 58.7022 69.7227 58.6958 69.6919 58.6832C69.661 58.6706 69.6329 58.6521 69.6093 58.6286C69.5856 58.6051 69.5668 58.5772 69.554 58.5464C69.5412 58.5156 69.5346 58.4826 69.5346 58.4493V55.24C69.5346 55.2067 69.5412 55.1737 69.554 55.1429C69.5668 55.1122 69.5856 55.0842 69.6093 55.0607C69.6329 55.0373 69.661 55.0187 69.6919 55.0061C69.7227 54.9935 69.7558 54.9872 69.7891 54.9874H79.1904C79.2233 54.9877 79.2559 54.9944 79.2862 55.0072C79.3166 55.02 79.3441 55.0387 79.3672 55.0622C79.3903 55.0856 79.4085 55.1134 79.4209 55.1439C79.4333 55.1745 79.4395 55.2071 79.4393 55.24V58.4493ZM101.73 108.225C101.73 108.258 101.723 108.291 101.71 108.322C101.697 108.352 101.678 108.38 101.655 108.403C101.631 108.427 101.603 108.445 101.572 108.457C101.542 108.47 101.509 108.476 101.475 108.476H92.0741C92.0076 108.476 91.9439 108.45 91.8968 108.403C91.8498 108.355 91.8234 108.292 91.8234 108.225V105.016C91.8234 104.949 91.8497 104.885 91.8967 104.838C91.9437 104.791 92.0075 104.764 92.0741 104.763H101.475C101.543 104.763 101.607 104.79 101.655 104.837C101.702 104.885 101.729 104.949 101.73 105.016V108.225ZM101.73 99.928C101.73 99.9613 101.723 99.9943 101.711 100.025C101.698 100.056 101.679 100.084 101.655 100.107C101.632 100.131 101.604 100.149 101.573 100.162C101.542 100.174 101.509 100.181 101.475 100.181H92.0741C92.0411 100.181 92.0083 100.174 91.9777 100.161C91.9472 100.149 91.9195 100.13 91.8962 100.107C91.8729 100.083 91.8544 100.055 91.8419 100.025C91.8294 99.9939 91.8231 99.9611 91.8234 99.928V96.7206C91.8231 96.6875 91.8294 96.6547 91.8419 96.6241C91.8544 96.5934 91.8729 96.5656 91.8962 96.5421C91.9195 96.5186 91.9472 96.5 91.9777 96.4873C92.0083 96.4745 92.0411 96.468 92.0741 96.468H101.475C101.509 96.4677 101.542 96.4741 101.573 96.4867C101.604 96.4993 101.632 96.5178 101.655 96.5413C101.679 96.5648 101.698 96.5927 101.711 96.6235C101.723 96.6543 101.73 96.6873 101.73 96.7206V99.928ZM101.73 91.6326C101.729 91.6998 101.702 91.764 101.655 91.8114C101.607 91.8587 101.543 91.8852 101.475 91.8852H92.0741C92.0087 91.8848 91.9461 91.859 91.8993 91.8133C91.8525 91.7675 91.8253 91.7055 91.8234 91.6401V88.4234C91.8234 88.3567 91.8497 88.2927 91.8967 88.2454C91.9437 88.1981 92.0075 88.1712 92.0741 88.1708H101.475C101.543 88.1708 101.607 88.1973 101.655 88.2446C101.702 88.292 101.729 88.3562 101.73 88.4234V91.6326ZM101.73 83.3354C101.73 83.3687 101.723 83.4017 101.711 83.4325C101.698 83.4633 101.679 83.4912 101.655 83.5147C101.632 83.5382 101.604 83.5567 101.573 83.5693C101.542 83.5819 101.509 83.5882 101.475 83.588H92.0741C92.0411 83.588 92.0083 83.5815 91.9777 83.5687C91.9472 83.556 91.9195 83.5374 91.8962 83.5139C91.8729 83.4904 91.8544 83.4625 91.8419 83.4319C91.8294 83.4013 91.8231 83.3685 91.8234 83.3354V80.128C91.8231 80.0949 91.8294 80.0621 91.8419 80.0315C91.8544 80.0008 91.8729 79.973 91.8962 79.9495C91.9195 79.926 91.9472 79.9074 91.9777 79.8947C92.0083 79.8819 92.0411 79.8754 92.0741 79.8754H101.475C101.509 79.8751 101.542 79.8815 101.573 79.8941C101.604 79.9067 101.632 79.9252 101.655 79.9487C101.679 79.9722 101.698 80.0001 101.711 80.0309C101.723 80.0617 101.73 80.0947 101.73 80.128V83.3354ZM101.73 75.04C101.729 75.1072 101.702 75.1714 101.655 75.2188C101.607 75.2661 101.543 75.2926 101.475 75.2926H92.0741C92.0075 75.2921 91.9437 75.2653 91.8967 75.218C91.8497 75.1707 91.8234 75.1067 91.8234 75.04V71.8308C91.8234 71.7643 91.8498 71.7005 91.8968 71.6535C91.9439 71.6064 92.0076 71.58 92.0741 71.58H101.475C101.509 71.5798 101.542 71.5861 101.572 71.5985C101.603 71.611 101.631 71.6294 101.655 71.6527C101.678 71.676 101.697 71.7037 101.71 71.7342C101.723 71.7648 101.73 71.7976 101.73 71.8308V75.04ZM101.73 66.7446C101.73 66.7778 101.723 66.8106 101.71 66.8412C101.697 66.8717 101.678 66.8994 101.655 66.9227C101.631 66.946 101.603 66.9644 101.572 66.9769C101.542 66.9894 101.509 66.9956 101.475 66.9954H92.0741C92.0089 66.9954 91.9462 66.97 91.8994 66.9246C91.8526 66.8792 91.8253 66.8173 91.8234 66.7521V63.5354C91.8234 63.4687 91.8497 63.4048 91.8967 63.3574C91.9437 63.3101 92.0075 63.2833 92.0741 63.2828H101.475C101.543 63.2828 101.607 63.3093 101.655 63.3567C101.702 63.404 101.729 63.4682 101.73 63.5354V66.7446ZM101.73 58.4474C101.73 58.4807 101.723 58.5137 101.711 58.5445C101.698 58.5753 101.679 58.6032 101.655 58.6267C101.632 58.6502 101.604 58.6688 101.573 58.6813C101.542 58.6939 101.509 58.7003 101.475 58.7H92.0741C92.0411 58.7 92.0083 58.6935 91.9777 58.6808C91.9472 58.6681 91.9195 58.6494 91.8962 58.6259C91.8729 58.6024 91.8544 58.5746 91.8419 58.5439C91.8294 58.5133 91.8231 58.4805 91.8234 58.4474V55.24C91.8231 55.207 91.8294 55.1741 91.8419 55.1435C91.8544 55.1129 91.8729 55.085 91.8962 55.0615C91.9195 55.038 91.9472 55.0194 91.9777 55.0067C92.0083 54.994 92.0411 54.9874 92.0741 54.9874H101.475C101.509 54.9872 101.542 54.9935 101.573 55.0061C101.604 55.0187 101.632 55.0373 101.655 55.0607C101.679 55.0842 101.698 55.1122 101.711 55.1429C101.723 55.1737 101.73 55.2067 101.73 55.24V58.4474ZM116.958 108.223C116.958 108.256 116.952 108.289 116.939 108.32C116.926 108.35 116.908 108.378 116.884 108.401C116.861 108.425 116.833 108.443 116.802 108.456C116.772 108.468 116.739 108.474 116.706 108.474H107.299C107.232 108.474 107.168 108.448 107.12 108.401C107.073 108.354 107.045 108.29 107.044 108.223V105.016C107.045 104.949 107.073 104.885 107.12 104.838C107.168 104.791 107.232 104.764 107.299 104.763H116.698C116.765 104.763 116.83 104.79 116.877 104.837C116.924 104.885 116.951 104.949 116.951 105.016L116.958 108.223ZM116.958 99.9261C116.959 99.9594 116.952 99.9923 116.94 100.023C116.927 100.054 116.908 100.082 116.885 100.105C116.861 100.129 116.833 100.147 116.803 100.16C116.772 100.173 116.739 100.179 116.706 100.179H107.299C107.232 100.179 107.167 100.152 107.12 100.105C107.072 100.058 107.045 99.9933 107.044 99.9261V96.7206C107.045 96.6534 107.072 96.5892 107.12 96.5419C107.167 96.4945 107.232 96.468 107.299 96.468H116.698C116.731 96.4677 116.764 96.4741 116.795 96.4867C116.826 96.4993 116.854 96.5179 116.877 96.5414C116.901 96.5649 116.92 96.5929 116.932 96.6236C116.945 96.6544 116.951 96.6874 116.951 96.7206L116.958 99.9261ZM116.958 91.6307C116.958 91.6639 116.952 91.6968 116.939 91.7274C116.926 91.7581 116.908 91.7859 116.884 91.8094C116.861 91.8328 116.833 91.8514 116.802 91.8641C116.772 91.8768 116.739 91.8834 116.706 91.8834H107.299C107.232 91.8829 107.168 91.8562 107.12 91.809C107.073 91.7617 107.045 91.6978 107.044 91.6307V88.4234C107.045 88.3564 107.073 88.2924 107.12 88.2452C107.168 88.1979 107.232 88.1712 107.299 88.1708H116.698C116.731 88.1708 116.764 88.1773 116.795 88.19C116.826 88.2027 116.853 88.2213 116.877 88.2447C116.9 88.2682 116.919 88.2961 116.932 88.3267C116.944 88.3574 116.951 88.3902 116.951 88.4234L116.958 91.6307ZM116.958 83.3335C116.959 83.3667 116.952 83.3997 116.94 83.4305C116.927 83.4612 116.908 83.4892 116.885 83.5127C116.861 83.5362 116.833 83.5548 116.803 83.5674C116.772 83.58 116.739 83.5864 116.706 83.5861H107.299C107.232 83.5861 107.167 83.5596 107.12 83.5122C107.072 83.4649 107.045 83.4007 107.044 83.3335V80.128C107.045 80.0608 107.072 79.9966 107.12 79.9493C107.167 79.9019 107.232 79.8754 107.299 79.8754H116.698C116.731 79.8751 116.764 79.8815 116.795 79.8941C116.826 79.9067 116.854 79.9253 116.877 79.9488C116.901 79.9723 116.92 80.0003 116.932 80.031C116.945 80.0618 116.951 80.0948 116.951 80.128L116.958 83.3335ZM116.958 75.0381C116.958 75.0713 116.952 75.1042 116.939 75.1348C116.926 75.1655 116.908 75.1933 116.884 75.2168C116.861 75.2402 116.833 75.2588 116.802 75.2715C116.772 75.2842 116.739 75.2908 116.706 75.2908H107.299C107.232 75.2903 107.168 75.2636 107.12 75.2163C107.073 75.1691 107.045 75.1052 107.044 75.0381V71.8308C107.045 71.7639 107.073 71.7001 107.12 71.6532C107.168 71.6063 107.232 71.58 107.299 71.58H116.698C116.731 71.5798 116.764 71.5861 116.795 71.5986C116.825 71.6111 116.853 71.6295 116.877 71.6528C116.9 71.6761 116.919 71.7038 116.932 71.7344C116.944 71.7649 116.951 71.7977 116.951 71.8308L116.958 75.0381ZM116.958 66.7428C116.958 66.7759 116.952 66.8086 116.939 66.8392C116.926 66.8697 116.908 66.8974 116.884 66.9207C116.861 66.9441 116.833 66.9625 116.802 66.975C116.772 66.9875 116.739 66.9938 116.706 66.9935H107.299C107.232 66.9935 107.168 66.9672 107.12 66.9203C107.073 66.8734 107.045 66.8096 107.044 66.7428V63.5354C107.045 63.4684 107.073 63.4044 107.12 63.3572C107.168 63.31 107.232 63.2833 107.299 63.2828H116.698C116.765 63.2828 116.83 63.3094 116.877 63.3568C116.924 63.4042 116.951 63.4684 116.951 63.5354L116.958 66.7428ZM116.958 58.4455C116.959 58.4788 116.952 58.5117 116.94 58.5425C116.927 58.5733 116.908 58.6012 116.885 58.6247C116.861 58.6482 116.833 58.6668 116.803 58.6794C116.772 58.692 116.739 58.6984 116.706 58.6982H107.299C107.232 58.6982 107.167 58.6716 107.12 58.6243C107.072 58.577 107.045 58.5127 107.044 58.4455V55.24C107.045 55.1729 107.072 55.1086 107.12 55.0613C107.167 55.014 107.232 54.9874 107.299 54.9874H116.698C116.731 54.9872 116.764 54.9935 116.795 55.0061C116.826 55.0187 116.854 55.0373 116.877 55.0609C116.901 55.0844 116.92 55.1123 116.932 55.1431C116.945 55.1738 116.951 55.2068 116.951 55.24L116.958 58.4455ZM139.249 108.221C139.248 108.288 139.221 108.352 139.173 108.399C139.126 108.446 139.061 108.472 138.995 108.472H129.593C129.56 108.472 129.527 108.466 129.497 108.454C129.466 108.441 129.439 108.423 129.415 108.399C129.392 108.376 129.374 108.348 129.361 108.318C129.349 108.287 129.342 108.254 129.342 108.221V105.016C129.342 104.983 129.349 104.95 129.361 104.919C129.374 104.889 129.392 104.861 129.415 104.837C129.439 104.814 129.466 104.795 129.497 104.783C129.527 104.77 129.56 104.763 129.593 104.763H138.995C139.062 104.764 139.126 104.791 139.173 104.838C139.221 104.885 139.248 104.949 139.249 105.016V108.221ZM139.249 99.9242C139.249 99.9914 139.221 100.056 139.174 100.103C139.126 100.15 139.062 100.177 138.995 100.177H129.593C129.56 100.177 129.527 100.17 129.497 100.158C129.466 100.145 129.439 100.126 129.415 100.103C129.392 100.079 129.374 100.051 129.361 100.021C129.349 99.9901 129.342 99.9573 129.342 99.9242V96.7206C129.342 96.6875 129.349 96.6547 129.361 96.6241C129.374 96.5934 129.392 96.5656 129.415 96.5421C129.439 96.5186 129.466 96.5 129.497 96.4873C129.527 96.4745 129.56 96.468 129.593 96.468H138.995C139.062 96.468 139.126 96.4945 139.174 96.5419C139.221 96.5892 139.249 96.6534 139.249 96.7206V99.9242ZM139.249 91.6289C139.248 91.6959 139.221 91.7599 139.173 91.8071C139.126 91.8543 139.062 91.881 138.995 91.8815H129.593C129.528 91.8815 129.466 91.8564 129.419 91.8114C129.372 91.7664 129.345 91.705 129.342 91.6401V88.4234C129.342 88.3903 129.349 88.3575 129.361 88.3268C129.374 88.2962 129.392 88.2683 129.415 88.2449C129.439 88.2214 129.466 88.2027 129.497 88.19C129.527 88.1773 129.56 88.1708 129.593 88.1708H138.995C139.062 88.1712 139.126 88.1979 139.173 88.2452C139.221 88.2924 139.248 88.3564 139.249 88.4234V91.6289ZM139.249 83.3316C139.249 83.3988 139.221 83.4631 139.174 83.5104C139.126 83.5577 139.062 83.5843 138.995 83.5843H129.593C129.56 83.5843 129.527 83.5777 129.497 83.565C129.466 83.5523 129.439 83.5336 129.415 83.5102C129.392 83.4867 129.374 83.4588 129.361 83.4282C129.349 83.3975 129.342 83.3647 129.342 83.3316V80.128C129.342 80.0949 129.349 80.0621 129.361 80.0315C129.374 80.0008 129.392 79.973 129.415 79.9495C129.439 79.926 129.466 79.9074 129.497 79.8947C129.527 79.8819 129.56 79.8754 129.593 79.8754H138.995C139.062 79.8754 139.126 79.9019 139.174 79.9493C139.221 79.9966 139.249 80.0608 139.249 80.128V83.3316ZM139.249 75.0363C139.248 75.1033 139.221 75.1673 139.173 75.2145C139.126 75.2617 139.062 75.2884 138.995 75.2889H129.593C129.56 75.2889 129.527 75.2823 129.497 75.2696C129.466 75.2569 129.439 75.2383 129.415 75.2148C129.392 75.1913 129.374 75.1634 129.361 75.1328C129.349 75.1022 129.342 75.0694 129.342 75.0363V71.8308C129.342 71.7978 129.349 71.7651 129.361 71.7345C129.374 71.704 129.392 71.6762 129.415 71.6529C129.439 71.6296 129.466 71.6111 129.497 71.5986C129.527 71.5861 129.56 71.5798 129.593 71.58H138.995C139.061 71.58 139.126 71.6063 139.173 71.6532C139.221 71.7001 139.248 71.7639 139.249 71.8308V75.0363ZM139.249 66.7409C139.248 66.8077 139.221 66.8715 139.173 66.9184C139.126 66.9654 139.061 66.9917 138.995 66.9917H129.593C129.528 66.9922 129.466 66.9675 129.419 66.9227C129.372 66.878 129.345 66.8168 129.342 66.7521V63.5354C129.342 63.5023 129.349 63.4695 129.361 63.4389C129.374 63.4082 129.392 63.3804 129.415 63.3569C129.439 63.3334 129.466 63.3148 129.497 63.3021C129.527 63.2893 129.56 63.2828 129.593 63.2828H138.995C139.062 63.2833 139.126 63.31 139.173 63.3572C139.221 63.4044 139.248 63.4684 139.249 63.5354V66.7409ZM139.249 58.4437C139.249 58.5108 139.221 58.5751 139.174 58.6224C139.126 58.6697 139.062 58.6963 138.995 58.6963H129.593C129.56 58.6963 129.527 58.6897 129.497 58.677C129.466 58.6643 129.439 58.6457 129.415 58.6222C129.392 58.5987 129.374 58.5708 129.361 58.5402C129.349 58.5096 129.342 58.4768 129.342 58.4437V55.24C129.342 55.207 129.349 55.1741 129.361 55.1435C129.374 55.1129 129.392 55.085 129.415 55.0615C129.439 55.038 129.466 55.0194 129.497 55.0067C129.527 54.994 129.56 54.9874 129.593 54.9874H138.995C139.062 54.9874 139.126 55.014 139.174 55.0613C139.221 55.1086 139.249 55.1729 139.249 55.24V58.4437Z" fill="#F2F2F2"/>
<path d="M35.105 52.478C35.5009 51.9746 35.8617 51.4443 36.1847 50.8912L28.5742 49.6412L36.8078 49.7029C37.5985 47.9859 38.0301 46.1254 38.0761 44.2356C38.1221 42.3457 37.7816 40.4665 37.0754 38.7129L26.0349 44.439L36.2165 36.9539C35.2596 35.3106 33.9751 33.8815 32.4427 32.7555C30.9102 31.6295 29.1627 30.8306 27.3085 30.4085C25.4543 29.9863 23.5331 29.9498 21.6643 30.3014C19.7954 30.653 18.0188 31.385 16.4448 32.4521C14.8708 33.5192 13.533 34.8985 12.5145 36.5044C11.496 38.1103 10.8185 39.9084 10.5242 41.7872C10.2299 43.6659 10.325 45.585 10.8037 47.4255C11.2823 49.2659 12.1342 50.9882 13.3065 52.4855C12.6897 53.2694 12.1595 54.1176 11.7253 55.0155L21.5944 60.139L11.0647 56.6042C10.3268 58.791 10.1457 61.1272 10.5377 63.4016C10.9298 65.6759 11.8827 67.8167 13.3102 69.6302C12.1547 71.0946 11.3087 72.7785 10.8233 74.5797C12.6764 79.9377 14.8574 85.1765 17.3541 90.2666C18.6904 91.0285 20.1453 91.5605 21.658 91.8403C21.4757 92.3579 21.3833 92.9028 21.3848 93.4515C21.3708 94.2618 21.5723 95.0613 21.9686 95.7681C21.6209 96.372 21.4184 97.0486 21.3773 97.7442C23.0863 100.66 24.9672 103.472 27.0098 106.165C26.912 105.771 26.7582 105.393 26.5532 105.042C26.9483 104.334 27.1558 103.536 27.1558 102.726C27.1558 101.915 26.9483 101.117 26.5532 100.409C26.9483 99.7007 27.1558 98.9032 27.1558 98.0923C27.1558 97.2813 26.9483 96.4838 26.5532 95.7756C26.9561 95.0706 27.1641 94.271 27.1558 93.459C27.1587 92.9022 27.0637 92.3492 26.8751 91.8254C29.2059 91.3682 31.3803 90.3202 33.1899 88.7817C34.9996 87.2433 36.3839 85.2659 37.2103 83.0391C38.0366 80.8122 38.2773 78.4105 37.9094 76.0639C37.5414 73.7174 36.577 71.5046 35.1087 69.6376C37.0325 67.193 38.0784 64.1724 38.0784 61.0616C38.0784 57.9507 37.0325 54.9302 35.1087 52.4855L35.105 52.478Z" fill="#F2F2F2"/>
<path d="M199.978 63.5429L199.417 63.4512H199.967C199.868 61.332 199.485 59.2356 198.829 57.218L196.872 58.2341L198.713 56.8755C197.04 52.0093 193.841 47.8134 189.59 44.9125C187.633 45.7557 185.895 47.0371 184.51 48.6581C183.126 50.279 182.133 52.1962 181.606 54.2618C181.08 56.3274 181.035 58.4863 181.475 60.572C181.915 62.6577 182.828 64.6146 184.143 66.2918C183.526 67.0776 182.996 67.9277 182.562 68.8274L192.442 73.9734L181.913 70.431C181.175 72.6224 180.994 74.963 181.386 77.2419C181.778 79.5207 182.73 81.6662 184.158 83.485C182.803 85.2131 181.875 87.2373 181.452 89.3923C181.028 91.5472 181.12 93.7718 181.721 95.8844C182.321 97.9969 183.413 99.9375 184.906 101.548C186.4 103.158 188.253 104.392 190.315 105.149C191.063 103.373 191.791 101.517 192.472 99.6079C193.075 97.9238 193.649 96.2078 194.19 94.475C195.77 89.3954 197.091 84.239 198.15 79.0258C199.347 73.0901 200.021 67.903 200.021 64.617C200.002 64.2558 199.993 63.9003 199.978 63.5429Z" fill="#F2F2F2"/>
<path d="M99.5518 129.011C154.533 129.011 199.104 126.917 199.104 124.333C199.104 121.749 154.533 119.655 99.5518 119.655C44.5709 119.655 0 121.749 0 124.333C0 126.917 44.5709 129.011 99.5518 129.011Z" fill="#3F3D56"/>
<path d="M152.396 75.7754C150.536 72.5531 142.853 73.5018 135.254 77.8937C133.931 78.6558 132.657 79.5002 131.44 80.4218C130.773 72.0642 126.956 64.2722 120.761 58.6231C114.566 52.9741 106.455 49.8902 98.072 49.9958C89.6886 50.1014 81.6586 53.3886 75.6076 59.1919C69.5566 64.9952 65.9369 72.8809 65.4812 81.2526C63.9561 79.9963 62.3287 78.8696 60.6159 77.8843C53.0316 73.5018 45.3463 72.5531 43.4881 75.7754C41.6299 78.9977 46.295 85.1692 53.8942 89.5611C58.8176 92.4035 63.7671 93.8014 67.1522 93.5637C69.0886 99.3225 72.573 104.437 77.2234 108.347C70.558 109.282 65.6571 112.4 65.6571 116.109C65.6571 120.551 72.695 124.155 81.3758 124.155C90.0566 124.155 97.0945 120.551 97.0945 116.109C97.0945 116.098 97.0945 116.086 97.0945 116.073C97.5611 116.093 98.0295 116.104 98.4998 116.105C98.9701 116.106 99.4386 116.096 99.9052 116.073C99.9052 116.086 99.9052 116.098 99.9052 116.109C99.9052 120.551 106.943 124.155 115.624 124.155C124.305 124.155 131.343 120.551 131.343 116.109C131.343 112.4 126.442 109.281 119.776 108.347C124.42 104.444 127.901 99.3396 129.84 93.5918C133.15 93.5057 137.587 92.1191 142.003 89.5686C149.604 85.1692 154.268 78.9959 152.396 75.7754Z" fill="#5FA2FF"/>
<path opacity="0.1" d="M43.4883 77.4595C45.3483 74.2372 53.0318 75.186 60.631 79.5778C62.3163 80.5448 63.9192 81.6489 65.4234 82.8788C65.4963 81.2957 65.4963 82.9798 65.4926 81.2508C63.967 79.9983 62.3396 78.8754 60.6273 77.8937C53.0318 73.5018 45.3464 72.5531 43.4883 75.7754C43.0785 76.4846 42.9868 77.3379 43.172 78.2829C43.2362 77.9944 43.3428 77.7169 43.4883 77.4595Z" fill="black"/>
<path opacity="0.1" d="M152.438 77.4595C150.577 74.2372 142.894 75.1859 135.293 79.5778C133.521 80.5995 132.845 80.9738 131.438 82.1302C131.363 80.5472 131.363 82.2313 131.369 80.5022C132.791 79.3252 133.493 78.9341 135.299 77.8937C142.907 73.5018 150.583 72.5531 152.443 75.7754C152.853 76.4846 152.945 77.3379 152.759 78.2829C152.693 77.994 152.585 77.7166 152.438 77.4595Z" fill="black"/>
<path d="M89.6396 81.1254C91.5329 81.1254 93.0678 79.1155 93.0678 76.6362C93.0678 74.1569 91.5329 72.147 89.6396 72.147C87.7463 72.147 86.2114 74.1569 86.2114 76.6362C86.2114 79.1155 87.7463 81.1254 89.6396 81.1254Z" fill="#444053"/>
<path d="M107.352 81.1254C109.245 81.1254 110.78 79.1155 110.78 76.6362C110.78 74.1569 109.245 72.147 107.352 72.147C105.458 72.147 103.923 74.1569 103.923 76.6362C103.923 79.1155 105.458 81.1254 107.352 81.1254Z" fill="#444053"/>
<path d="M119.799 90.7568C119.799 97.2015 109.034 108.059 98.1708 108.059C87.3081 108.059 76.9487 96.9564 76.9487 90.5173C76.9487 84.0782 87.0892 89.9559 97.9426 89.9559C108.796 89.9559 119.799 84.3103 119.799 90.7568Z" fill="#3F3D56"/>
<path d="M80.373 91.8572C80.373 91.8572 99.8998 96.2041 116.301 91.9807C116.301 91.9807 118.309 91.9807 116.938 94.301C116.581 94.9018 116.062 95.3896 115.441 95.7082C112.278 97.3232 100.573 102.099 81.8569 96.0095C81.2752 95.8276 80.7478 95.5041 80.3219 95.0681C79.896 94.6321 79.585 94.0972 79.4168 93.5114C79.2035 92.7236 79.2989 91.9676 80.373 91.8572Z" fill="#F6F8FB"/>
<path opacity="0.1" d="M98.3749 54.3699C106.802 54.3703 114.911 57.5894 121.043 63.3691C127.176 69.1488 130.87 77.0526 131.369 85.4648C131.432 84.6415 131.463 83.81 131.463 82.9704C131.397 74.2468 127.886 65.9027 121.694 59.7572C115.502 53.6117 107.132 50.1631 98.4077 50.1631C89.6837 50.1631 81.3135 53.6117 75.1216 59.7572C68.9297 65.9027 65.4182 74.2468 65.3525 82.9704C65.3525 83.631 65.375 84.2803 65.4124 84.9371C66.0405 76.6247 69.7858 68.8565 75.8982 63.1882C82.0106 57.52 90.0388 54.3703 98.3749 54.3699Z" fill="black"/>
<path d="M102.104 11.6169C102.104 12.1732 101.995 12.7241 101.782 13.2381C101.569 13.7521 101.257 14.2192 100.864 14.6126C100.47 15.006 100.003 15.318 99.4892 15.5309C98.9752 15.7438 98.4243 15.8534 97.8679 15.8534C97.3115 15.8534 96.7606 15.7438 96.2466 15.5309C95.7326 15.318 95.2656 15.006 94.8722 14.6126C94.4788 14.2192 94.1667 13.7521 93.9538 13.2381C93.7409 12.7241 93.6313 12.1732 93.6313 11.6169C93.6313 11.5476 93.6313 11.4803 93.6313 11.4129C93.6872 10.3285 94.1574 9.3069 94.9447 8.55909C95.732 7.81129 96.7764 7.39435 97.8623 7.39435C98.9482 7.39435 99.9926 7.81129 100.78 8.55909C101.567 9.3069 102.037 10.3285 102.093 11.4129C102.103 11.4803 102.104 11.5495 102.104 11.6169Z" fill="#3F3D56"/>
<path opacity="0.1" d="M102.104 11.6169C102.104 12.1732 101.995 12.7241 101.782 13.2381C101.569 13.7522 101.257 14.2192 100.864 14.6126C100.47 15.006 100.003 15.3181 99.4892 15.531C98.9752 15.7439 98.4243 15.8535 97.8679 15.8535C97.3115 15.8535 96.7606 15.7439 96.2466 15.531C95.7326 15.3181 95.2656 15.006 94.8722 14.6126C94.4788 14.2192 94.1667 13.7522 93.9538 13.2381C93.7409 12.7241 93.6313 12.1732 93.6313 11.6169C93.6313 11.5476 93.6313 11.4803 93.6313 11.4129C94.8256 10.4374 96.3203 9.90451 97.8623 9.90451C99.4043 9.90451 100.899 10.4374 102.093 11.4129C102.103 11.4803 102.104 11.5495 102.104 11.6169Z" fill="black"/>
<path d="M97.8675 23.6585C101.562 23.6585 104.557 20.6634 104.557 16.9687C104.557 13.274 101.562 10.2789 97.8675 10.2789C94.1729 10.2789 91.1777 13.274 91.1777 16.9687C91.1777 20.6634 94.1729 23.6585 97.8675 23.6585Z" fill="#3F3D56"/>
<path d="M93.8254 10.6812C93.8258 9.65499 94.1986 8.66375 94.8745 7.89151C95.5503 7.11927 96.4835 6.61848 97.5006 6.4821C96.9021 6.40202 96.2934 6.45079 95.7154 6.62515C95.1373 6.79951 94.6031 7.09542 94.1487 7.49306C93.6943 7.8907 93.3302 8.38087 93.0807 8.93073C92.8312 9.48059 92.7021 10.0774 92.7021 10.6812C92.7021 11.285 92.8312 11.8819 93.0807 12.4317C93.3302 12.9816 93.6943 13.4718 94.1487 13.8694C94.6031 14.2671 95.1373 14.563 95.7154 14.7373C96.2934 14.9117 96.9021 14.9605 97.5006 14.8804C96.4835 14.744 95.5503 14.2432 94.8745 13.471C94.1986 12.6987 93.8258 11.7075 93.8254 10.6812Z" fill="#3F3D56"/>
<path d="M90.3208 19.684C89.5515 19.0043 89.0552 18.0684 88.9241 17.0503C88.7929 16.0322 89.0359 15.0012 89.6078 14.1487C89.1704 14.5289 88.8157 14.9947 88.5655 15.5174C88.3153 16.0401 88.1751 16.6086 88.1534 17.1877C88.1317 17.7668 88.229 18.3442 88.4393 18.8842C88.6497 19.4241 88.9686 19.9152 89.3763 20.327C89.784 20.7388 90.2719 21.0626 90.8097 21.2784C91.3475 21.4941 91.9239 21.5972 92.5032 21.5813C93.0825 21.5654 93.6524 21.4309 94.1776 21.1859C94.7027 20.941 95.1721 20.5909 95.5566 20.1574C95.6816 20.0165 95.7967 19.867 95.9009 19.7102C95.1256 20.3828 94.1324 20.751 93.1059 20.7462C92.0795 20.7413 91.0897 20.3639 90.3208 19.684Z" fill="#3F3D56"/>
<path d="M94.3701 25.4512C94.037 25.5635 93.6665 25.5878 93.3802 25.7899C92.8188 26.1773 92.8432 26.9987 93.006 27.6612C93.3802 29.1582 94.3159 30.6009 95.7324 31.2166C96.5895 31.5909 97.5476 31.6264 98.4795 31.6152C99.4956 31.604 100.639 31.4748 101.268 30.6795C101.58 30.281 101.713 29.7757 101.838 29.2836C102.149 28.0672 102.462 26.8228 102.349 25.5728C101.734 25.6271 101.039 25.6627 100.568 25.2753C100.096 24.8879 99.9727 24.1525 99.7632 23.5369C99.7407 23.439 99.6852 23.3517 99.606 23.2899C99.5189 23.2475 99.4211 23.2325 99.3253 23.2468C98.6819 23.271 98.0376 23.2391 97.3997 23.1514C97.0012 23.099 96.0206 22.6836 95.7156 23.0335C95.4966 23.2899 95.6351 24.0627 95.4686 24.4201C95.3636 24.6566 95.2123 24.8696 95.0236 25.0467C94.835 25.2238 94.6128 25.3613 94.3701 25.4512Z" fill="#FFC1C7"/>
<path opacity="0.05" d="M94.3701 25.4512C94.037 25.5635 93.6665 25.5878 93.3802 25.7899C92.8188 26.1773 92.8432 26.9987 93.006 27.6612C93.3802 29.1582 94.3159 30.6009 95.7324 31.2166C96.5895 31.5909 97.5476 31.6264 98.4795 31.6152C99.4956 31.604 100.639 31.4748 101.268 30.6795C101.58 30.281 101.713 29.7757 101.838 29.2836C102.149 28.0672 102.462 26.8228 102.349 25.5728C101.734 25.6271 101.039 25.6627 100.568 25.2753C100.096 24.8879 99.9727 24.1525 99.7632 23.5369C99.7407 23.439 99.6852 23.3517 99.606 23.2899C99.5189 23.2475 99.4211 23.2325 99.3253 23.2468C98.6819 23.271 98.0376 23.2391 97.3997 23.1514C97.0012 23.099 96.0206 22.6836 95.7156 23.0335C95.4966 23.2899 95.6351 24.0627 95.4686 24.4201C95.3636 24.6566 95.2123 24.8696 95.0236 25.0467C94.835 25.2238 94.6128 25.3613 94.3701 25.4512Z" fill="black"/>
<path d="M59.4242 69.1062C57.9272 69.1511 56.3984 69.0875 54.9332 69.4168C54.6535 69.4486 54.3952 69.5817 54.2071 69.7911C53.9919 70.098 54.1061 70.5265 54.2838 70.8577C54.6895 71.606 55.3676 72.1695 56.1776 72.4314C57.0683 72.7159 58.0283 72.6074 58.9602 72.6373C60.2315 72.6778 61.481 72.9784 62.6316 73.5205C62.8936 73.644 63.1705 73.7825 63.4568 73.7395C63.8704 73.6758 64.1286 73.2623 64.2821 72.8731C64.4536 72.405 64.5918 71.9254 64.6956 71.4378C64.9127 70.5153 64.9426 68.6926 63.6758 68.4438C63.0957 68.3315 62.4127 68.7319 61.855 68.8479C61.0542 69.0071 60.2406 69.0935 59.4242 69.1062Z" fill="#444053"/>
<path d="M136.148 69.5384C136.505 69.4166 136.812 69.1813 137.022 68.8685C137.583 68.0508 137.583 67.074 137.881 66.1776C138.255 65.0118 139.084 64.05 139.604 62.9403C140.07 61.9472 140.285 60.8547 140.229 59.7592C140.225 59.6799 140.204 59.6023 140.168 59.5317C140.132 59.4611 140.081 59.399 140.019 59.3494C139.957 59.2999 139.885 59.2641 139.808 59.2444C139.731 59.2248 139.651 59.2216 139.573 59.2352C138.867 59.3718 138.227 59.8827 137.778 60.4665C137.2 61.215 136.822 62.1057 136.229 62.8449C135.635 63.584 134.803 64.1772 134.097 64.8565C133.212 65.7098 132.518 66.638 133.308 67.7457C133.949 68.6552 134.836 69.9688 136.148 69.5384Z" fill="#444053"/>
<path d="M90.2872 45.0341C85.5776 51.156 79.7324 56.313 73.0715 60.2232C71.0336 61.419 68.9079 62.5043 67.0965 64.0219C65.723 65.1746 64.5572 66.5519 63.3988 67.9217C63.2658 68.0517 63.1746 68.2185 63.1369 68.4007C63.132 68.5327 63.1556 68.6642 63.2061 68.7862C63.5804 69.8902 64.0145 71.0879 65.0137 71.6904C67.6036 67.9479 72.7496 66.9804 76.6961 64.7162C78.53 63.6645 80.201 62.3584 81.8926 61.0934C84.3378 59.2633 86.8372 57.5099 89.3908 55.8332C91.0843 54.7217 92.8284 53.6289 94.7707 53.0506C98.8875 51.8193 103.379 53.0506 107.181 55.0716C110.983 57.0926 114.331 59.8546 118.057 62.0047C123.121 64.9239 128.77 66.6455 134.363 68.3427C134.563 66.9991 134.685 65.6817 134.969 64.3531C133.573 64.1567 132.254 63.6046 130.952 63.0638C129.498 62.4575 128.035 61.8438 126.728 60.9624C125.866 60.3786 125.082 59.6824 124.228 59.0911C122.368 57.7812 120.213 56.9579 118.328 55.6873C115.873 54.0331 113.974 51.6921 111.728 49.7628C110.75 48.9226 109.709 48.161 108.667 47.4013C107.589 46.6135 106.494 45.8182 105.252 45.3298C103.777 44.7478 102.168 44.628 100.587 44.5158C97.05 44.2538 93.6386 43.9057 90.2872 45.0341Z" fill="#575A89"/>
<path d="M97.7739 24.8749C100.358 24.8749 102.452 22.7804 102.452 20.1967C102.452 17.613 100.358 15.5185 97.7739 15.5185C95.1902 15.5185 93.0957 17.613 93.0957 20.1967C93.0957 22.7804 95.1902 24.8749 97.7739 24.8749Z" fill="#FFC1C7"/>
<path d="M97.6355 29.9516C96.7934 29.8469 95.9859 29.5526 95.2739 29.0908C94.5618 28.6224 94.049 27.9062 93.8349 27.0811C93.6834 26.4205 93.7676 25.7076 93.5018 25.0863C92.658 25.5093 91.782 25.8647 90.8821 26.1492C90.3749 26.3083 89.8454 26.4542 89.4337 26.7892C88.5486 27.5096 88.498 28.8195 88.5224 29.9591C88.5145 30.1849 88.5429 30.4104 88.6066 30.6272C88.6907 30.8328 88.8147 31.0198 88.9715 31.1773C89.9333 32.2065 91.4285 32.6332 92.3398 33.7129C91.8645 34.2455 91.5577 34.9072 91.4584 35.6141C91.4365 35.8983 91.3965 36.1808 91.3387 36.4599C91.2627 36.69 91.1707 36.9144 91.0636 37.1317C90.4722 38.479 90.4928 40.0022 90.403 41.4693C90.3132 42.9364 90.0587 44.4989 89.0669 45.5861C89.4711 46.0203 90.0026 46.1475 90.5845 46.2018C91.1665 46.256 91.769 46.1793 92.3622 46.2018C93.9266 46.2467 95.4031 46.8867 96.9113 47.304C98.4196 47.7213 100.132 47.8915 101.466 47.0738C101.934 46.7875 102.331 46.3926 102.8 46.1101C103.362 45.7695 104.02 45.6067 104.671 45.4477L104.905 37.6332C104.911 37.0855 104.95 36.5387 105.023 35.9958C105.362 33.8589 106.726 32.0493 108.047 30.3371C107.969 29.5567 107.715 28.8042 107.304 28.1364C106.892 27.4686 106.335 26.903 105.673 26.4823C105.08 26.1302 104.453 25.8393 103.801 25.614L102.263 25.0227C102.127 24.9571 101.976 24.9287 101.825 24.9404C101.492 25.0002 101.365 25.4063 101.346 25.7431C101.316 26.2746 101.395 26.8079 101.376 27.3393C101.357 27.8708 101.225 28.4322 100.848 28.8083C100.578 29.0503 100.259 29.2315 99.9128 29.3397C99.1269 29.6391 98.4645 30.0751 97.6355 29.9516Z" fill="#FF6584"/>
<path d="M91.4267 49.5364C91.4885 50.5787 91.5502 51.6322 91.3743 52.6614C91.1984 53.6906 90.768 54.7086 89.9858 55.401C89.3814 55.9343 88.5318 56.3366 88.3821 57.1356C88.3455 57.3106 88.3598 57.4925 88.4233 57.6596C88.5899 58.0526 89.0783 58.2303 89.5012 58.163C89.9195 58.0662 90.306 57.8639 90.6239 57.5754C91.272 57.0457 91.8928 56.4836 92.484 55.8912C93.0061 55.3841 93.5469 54.8489 93.7658 54.1547C93.8567 53.8239 93.9076 53.4834 93.9174 53.1405C94.039 51.2692 94.0708 49.3979 94.1045 47.5266C94.127 46.1644 94.1419 44.759 93.6404 43.4922C93.7153 43.6793 91.8927 43.8571 91.7542 43.8664C90.9682 43.9357 91.118 44.2594 91.1629 45.0004C91.2502 46.5174 91.3381 48.0294 91.4267 49.5364Z" fill="#FFC1C7"/>
<path d="M105.053 49.5364C104.992 50.5787 104.93 51.6322 105.106 52.6614C105.282 53.6906 105.712 54.7086 106.494 55.401C107.099 55.9343 107.948 56.3366 108.098 57.1356C108.135 57.3106 108.12 57.4925 108.057 57.6596C107.89 58.0526 107.402 58.2303 106.979 58.163C106.561 58.0662 106.174 57.8639 105.856 57.5754C105.208 57.0457 104.587 56.4836 103.996 55.8912C103.474 55.3841 102.933 54.8489 102.714 54.1547C102.623 53.8239 102.573 53.4834 102.563 53.1405C102.441 51.2692 102.409 49.3979 102.376 47.5266C102.353 46.1644 102.338 44.759 102.84 43.4922C102.765 43.6793 104.588 43.8571 104.726 43.8664C105.512 43.9357 105.362 44.2594 105.317 45.0004C105.235 46.5174 105.147 48.0294 105.053 49.5364Z" fill="#FFC1C7"/>
<path opacity="0.1" d="M89.0782 29.2705C88.4176 31.2203 88.6852 33.3873 89.3608 35.3278C89.5254 35.805 89.7182 36.3027 89.6415 36.8024C89.5854 37.058 89.5078 37.3084 89.4094 37.5509C89.2182 38.1374 89.1833 38.7637 89.3084 39.3679C89.3361 39.5494 89.4074 39.7214 89.5161 39.8694C89.5829 39.9378 89.6453 40.0103 89.7032 40.0864C89.9596 40.4869 89.4562 40.9828 89.5161 41.4562C89.561 41.8492 89.9596 42.0812 90.2384 42.3638C91.0262 43.1628 90.8746 44.4634 90.6688 45.5674C91.625 45.4832 92.4503 44.701 93.4084 44.7646C93.7233 44.7906 94.0241 44.907 94.2744 45.0999C94.5247 45.2928 94.7139 45.5539 94.8193 45.8518C94.7837 44.9256 95.1131 44.1359 95.1935 43.2115C95.3002 42.0082 94.5218 40.9304 94.1456 39.7852C93.5974 38.116 93.9061 36.3027 93.7714 34.5456C93.713 33.8927 93.6181 33.2436 93.4869 32.6013C93.3167 31.7218 93.0678 30.76 92.323 30.2604C91.363 29.6223 89.9184 30.0751 89.0782 29.2705Z" fill="black"/>
<path d="M88.8912 28.8962C88.2306 30.8461 88.4982 33.013 89.1738 34.9535C89.3384 35.4307 89.5312 35.9285 89.4544 36.4281C89.3984 36.6837 89.3207 36.9341 89.2224 37.1766C89.0312 37.7632 88.9963 38.3895 89.1214 38.9936C89.1491 39.1751 89.2204 39.3472 89.3291 39.4951C89.3958 39.5636 89.4583 39.6361 89.5162 39.7122C89.7726 40.1126 89.2692 40.6085 89.3291 41.082C89.374 41.4749 89.7726 41.707 90.0514 41.9895C90.8392 42.7886 90.6876 44.0891 90.4818 45.1932C91.438 45.109 92.2632 44.3268 93.2213 44.3904C93.5363 44.4163 93.837 44.5327 94.0873 44.7256C94.3377 44.9185 94.5269 45.1796 94.6323 45.4776C94.5967 44.5513 94.926 43.7616 95.0065 42.8372C95.1132 41.634 94.3347 40.5561 93.9586 39.4109C93.4103 37.7417 93.7191 35.9285 93.5843 34.1713C93.526 33.5185 93.431 32.8693 93.2999 32.2271C93.1296 31.3476 92.8807 30.3858 92.136 29.8861C91.176 29.248 89.7314 29.7009 88.8912 28.8962Z" fill="#FF6584"/>
<path opacity="0.1" d="M107.408 29.2705C108.068 31.2203 107.8 33.3873 107.125 35.3278C106.96 35.805 106.768 36.3027 106.844 36.8024C106.9 37.058 106.978 37.3084 107.076 37.5509C107.268 38.1374 107.302 38.7637 107.177 39.3679C107.15 39.5494 107.078 39.7214 106.97 39.8694C106.903 39.9378 106.84 40.0103 106.783 40.0864C106.526 40.4869 107.03 40.9828 106.97 41.4562C106.925 41.8492 106.526 42.0812 106.247 42.3638C105.46 43.1628 105.611 44.4634 105.817 45.5674C104.861 45.4832 104.035 44.701 103.077 44.7646C102.762 44.7906 102.462 44.907 102.211 45.0999C101.961 45.2928 101.772 45.5539 101.666 45.8518C101.702 44.9256 101.373 44.1359 101.292 43.2115C101.186 42.0082 101.964 40.9304 102.34 39.7852C102.888 38.116 102.58 36.3027 102.714 34.5456C102.772 33.8959 102.865 33.2499 102.995 32.6107C103.165 31.7312 103.414 30.7694 104.159 30.2697C105.123 29.6223 106.567 30.0751 107.408 29.2705Z" fill="black"/>
<path d="M107.595 28.8962C108.255 30.8461 107.987 33.013 107.312 34.9535C107.147 35.4307 106.955 35.9285 107.031 36.4281C107.087 36.6837 107.165 36.9341 107.263 37.1766C107.455 37.7632 107.489 38.3895 107.364 38.9936C107.337 39.1751 107.265 39.3472 107.157 39.4951C107.09 39.5636 107.027 39.6361 106.97 39.7122C106.713 40.1126 107.217 40.6085 107.157 41.082C107.112 41.4749 106.713 41.707 106.434 41.9895C105.647 42.7886 105.798 44.0891 106.004 45.1932C105.048 45.109 104.222 44.3268 103.264 44.3904C102.949 44.4163 102.649 44.5327 102.398 44.7256C102.148 44.9185 101.959 45.1796 101.853 45.4776C101.889 44.5513 101.56 43.7616 101.479 42.8372C101.373 41.634 102.151 40.5561 102.527 39.4109C103.075 37.7417 102.767 35.9285 102.901 34.1713C102.959 33.5217 103.053 32.8757 103.182 32.2364C103.352 31.3569 103.601 30.3951 104.346 29.8955C105.31 29.248 106.754 29.7009 107.595 28.8962Z" fill="#FF6584"/>
<path d="M97.6807 19.5417C100.781 19.5417 103.295 17.8661 103.295 15.7992C103.295 13.7322 100.781 12.0566 97.6807 12.0566C94.5803 12.0566 92.0669 13.7322 92.0669 15.7992C92.0669 17.8661 94.5803 19.5417 97.6807 19.5417Z" fill="#3F3D56"/>
<path opacity="0.05" d="M93.0022 35.6366C93.0005 34.973 93.2507 34.3335 93.7022 33.8472C94.1537 33.361 94.773 33.0642 95.4348 33.0168C95.3731 33.0168 95.3113 33.0168 95.2477 33.0168C94.5529 33.0168 93.8866 33.2928 93.3952 33.7841C92.9039 34.2754 92.6279 34.9418 92.6279 35.6366C92.6279 36.3314 92.9039 36.9977 93.3952 37.489C93.8866 37.9803 94.5529 38.2564 95.2477 38.2564C95.3113 38.2564 95.3731 38.2564 95.4348 38.247C94.7746 38.1997 94.1567 37.9042 93.7054 37.42C93.2541 36.9357 93.0029 36.2985 93.0022 35.6366Z" fill="black"/>
<path d="M95.0608 38.2545C96.1977 38.2545 97.1193 37.0816 97.1193 35.6347C97.1193 34.1878 96.1977 33.0149 95.0608 33.0149C93.924 33.0149 93.0024 34.1878 93.0024 35.6347C93.0024 37.0816 93.924 38.2545 95.0608 38.2545Z" fill="#FF6584"/>
<path opacity="0.05" d="M103.668 35.6366C103.67 34.973 103.42 34.3335 102.968 33.8472C102.517 33.361 101.898 33.0642 101.236 33.0168C101.299 33.0168 101.361 33.0168 101.423 33.0168C102.118 33.0168 102.784 33.2928 103.275 33.7841C103.767 34.2754 104.043 34.9418 104.043 35.6366C104.043 36.3314 103.767 36.9977 103.275 37.489C102.784 37.9803 102.118 38.2564 101.423 38.2564C101.361 38.2564 101.299 38.2564 101.236 38.247C101.896 38.1997 102.514 37.9042 102.965 37.42C103.417 36.9357 103.668 36.2985 103.668 35.6366Z" fill="black"/>
<path d="M101.61 38.2545C102.747 38.2545 103.669 37.0816 103.669 35.6347C103.669 34.1878 102.747 33.0149 101.61 33.0149C100.473 33.0149 99.5518 34.1878 99.5518 35.6347C99.5518 37.0816 100.473 38.2545 101.61 38.2545Z" fill="#FF6584"/>
<path opacity="0.1" d="M97.6807 19.1693C94.6755 19.1693 92.2203 17.5937 92.0669 15.6139C92.0669 15.6757 92.0669 15.7374 92.0669 15.801C92.0669 17.8595 94.5819 19.5436 97.6807 19.5436C100.78 19.5436 103.295 17.8595 103.295 15.801C103.295 15.7374 103.295 15.6757 103.295 15.6139C103.143 17.5937 100.688 19.1693 97.6807 19.1693Z" fill="black"/>
<path d="M64.5571 6.38666L61.6529 8.22987L63.4157 5.0225C62.9165 4.62425 62.2989 4.40368 61.6604 4.39563H61.6136C61.4119 4.39926 61.2102 4.38486 61.0111 4.35258L60.0268 4.97572L60.4478 4.2085C59.7501 3.96443 59.1475 3.50593 58.7262 2.8986L56.9654 4.02137L58.0844 1.99478C57.0552 0.759738 55.6667 0 54.1379 0C52.3059 0 50.6741 1.09095 49.6206 2.7882C49.3091 3.29782 48.8676 3.71543 48.3415 3.99822C47.8154 4.28101 47.2235 4.41881 46.6266 4.3975H46.5293C44.5064 4.3975 42.8672 6.69168 42.8672 9.51917C42.8672 12.3467 44.5064 14.6409 46.5293 14.6409C46.9735 14.6392 47.4107 14.5301 47.8036 14.3227C49.1229 13.636 50.8557 13.6229 52.2367 14.2348C52.8296 14.4994 53.4717 14.6362 54.121 14.6362C54.7704 14.6362 55.4124 14.4994 56.0054 14.2348C56.7008 13.9334 57.4528 13.785 58.2105 13.7995C58.9682 13.814 59.714 13.9912 60.3973 14.319C60.7873 14.5225 61.2204 14.6297 61.6604 14.6315C63.6832 14.6315 65.3225 12.3392 65.3225 9.50982C65.3327 8.42113 65.0695 7.34728 64.5571 6.38666Z" fill="#F2F2F2"/>
<path opacity="0.03" d="M59.0837 13.8811C58.0268 13.6807 56.9342 13.7999 55.9455 14.2236C55.3529 14.4882 54.7111 14.6249 54.0621 14.6249C53.4131 14.6249 52.7713 14.4882 52.1787 14.2236C51.4776 13.9161 50.7181 13.7645 49.9527 13.7794C49.1873 13.7942 48.4342 13.9752 47.7456 14.3097C47.3532 14.5184 46.9158 14.6282 46.4713 14.6296C44.673 14.6296 43.1797 12.8201 42.8672 10.4324C43.2263 10.1702 43.5313 9.84104 43.7654 9.46306C44.8189 7.76581 46.4507 6.67673 48.2827 6.67673C50.1146 6.67673 51.7277 7.75271 52.7737 9.43311C53.0881 9.94013 53.528 10.3574 54.0508 10.6446C54.5737 10.9318 55.1619 11.0791 55.7584 11.0724H55.8052C57.2423 11.063 58.4811 12.2101 59.0837 13.8811Z" fill="black"/>
<path d="M163.731 38.4959L162.283 39.4147L163.162 37.8166C162.913 37.6174 162.604 37.5073 162.284 37.5041H162.262C162.161 37.5051 162.06 37.4975 161.961 37.4816L161.47 37.7923L161.68 37.418C161.332 37.2957 161.032 37.0672 160.821 36.7649L159.943 37.3263L160.505 36.3177C160.271 36.0138 159.972 35.7661 159.63 35.5926C159.288 35.419 158.912 35.3241 158.529 35.3147C157.616 35.3147 156.802 35.8592 156.283 36.7051C156.127 36.9595 155.906 37.168 155.643 37.309C155.38 37.4501 155.084 37.5187 154.786 37.5078H154.738C153.729 37.5078 152.911 38.6512 152.911 40.0621C152.911 41.4731 153.729 42.6127 154.738 42.6127C154.959 42.612 155.178 42.5574 155.374 42.4536C155.717 42.2868 156.093 42.1965 156.475 42.1891C156.857 42.1817 157.236 42.2572 157.586 42.4106C157.88 42.5415 158.199 42.6091 158.521 42.6091C158.844 42.6091 159.162 42.5415 159.457 42.4106C159.804 42.2601 160.179 42.186 160.557 42.1934C160.935 42.2009 161.307 42.2896 161.648 42.4536C161.842 42.5551 162.058 42.6084 162.277 42.6089C163.286 42.6089 164.103 41.4656 164.103 40.0546C164.111 39.5122 163.983 38.9764 163.731 38.4959Z" fill="#F2F2F2"/>
<path opacity="0.03" d="M161.004 42.2384C160.477 42.1383 159.932 42.1976 159.438 42.4087C159.144 42.5397 158.825 42.6073 158.503 42.6071C158.18 42.6054 157.861 42.5366 157.567 42.405C157.218 42.2507 156.839 42.1746 156.457 42.182C156.075 42.1894 155.7 42.2802 155.357 42.448C155.161 42.5515 154.942 42.6061 154.721 42.6071C153.824 42.6071 153.078 41.7032 152.922 40.5131C153.102 40.3824 153.254 40.2185 153.371 40.0303C153.895 39.1826 154.709 38.64 155.617 38.64C156.525 38.64 157.335 39.177 157.863 40.0153C158.02 40.2694 158.241 40.4784 158.503 40.6217C158.766 40.765 159.061 40.8378 159.36 40.8331H159.384C160.082 40.8331 160.699 41.4038 161.004 42.2384Z" fill="black"/>
<path d="M134.008 17.1633L136.336 18.6397L134.923 16.0705C135.323 15.7507 135.818 15.5736 136.33 15.5671H136.367C136.529 15.5688 136.691 15.5562 136.85 15.5297L137.638 16.0312L137.301 15.4155C137.861 15.2174 138.344 14.8465 138.68 14.3564L140.091 15.2509L139.201 13.6303C140.026 12.6386 141.137 12.0304 142.363 12.0304C143.83 12.0304 145.138 12.9043 145.982 14.2647C146.232 14.6714 146.584 15.0048 147.004 15.2313C147.424 15.4577 147.897 15.569 148.373 15.554H148.454C150.074 15.554 151.386 17.3916 151.386 19.6577C151.386 21.9238 150.076 23.7614 148.454 23.7614C148.097 23.7604 147.746 23.6731 147.43 23.5069C146.878 23.2378 146.274 23.092 145.66 23.0797C145.047 23.0674 144.437 23.1889 143.875 23.4358C143.4 23.648 142.885 23.7577 142.365 23.7577C141.844 23.7577 141.33 23.648 140.855 23.4358C140.297 23.1941 139.695 23.0752 139.087 23.0871C138.48 23.0991 137.882 23.2416 137.335 23.5051C137.023 23.6675 136.676 23.7528 136.324 23.7539C134.704 23.7539 133.39 21.9163 133.39 19.6502C133.386 18.7828 133.598 17.9279 134.008 17.1633Z" fill="#F2F2F2"/>
<path opacity="0.03" d="M138.394 23.1514C139.24 22.9902 140.115 23.0853 140.907 23.4247C141.382 23.6369 141.897 23.7465 142.417 23.7465C142.938 23.7465 143.452 23.6369 143.927 23.4247C144.49 23.178 145.099 23.0564 145.713 23.0684C146.327 23.0803 146.931 23.2255 147.483 23.4939C147.798 23.6611 148.149 23.7491 148.506 23.7503C149.945 23.7503 151.143 22.3 151.392 20.382C151.105 20.1712 150.861 19.9076 150.673 19.6054C149.829 18.245 148.521 17.373 147.052 17.373C145.583 17.373 144.294 18.2356 143.45 19.5811C143.198 19.9865 142.845 20.32 142.426 20.5495C142.007 20.7789 141.536 20.8965 141.059 20.8909H141.021C139.869 20.9059 138.877 21.8191 138.394 23.1514Z" fill="black"/>
<path d="M45.1724 122.361C44.3996 120.931 45.2753 119.18 46.2821 117.905C47.2888 116.631 48.5182 115.302 48.492 113.678C48.4546 111.343 45.9752 109.964 44.001 108.727C42.5329 107.81 41.1786 106.723 39.9665 105.488C39.4582 105.012 39.0381 104.45 38.7259 103.828C38.3161 102.915 38.3273 101.876 38.3516 100.875C38.4377 97.544 38.6024 94.2156 38.8456 90.8897" stroke="#3F3D56" stroke-width="4" stroke-miterlimit="10"/>
<path d="M35.0824 90.7044C35.1086 90.0925 35.289 89.4971 35.607 88.9736C35.925 88.4502 36.3703 88.0156 36.9013 87.7104L37.7153 89.3216L37.6872 87.3773C38.0761 87.2619 38.4816 87.2132 38.8867 87.2332C39.6062 87.2662 40.2997 87.5117 40.8796 87.9388C41.4595 88.366 41.8997 88.9554 42.1446 89.6327C42.3895 90.31 42.4281 91.0447 42.2554 91.744C42.0827 92.4432 41.7066 93.0755 41.1746 93.5609C40.6425 94.0464 39.9785 94.3631 39.2665 94.4712C38.5544 94.5793 37.8263 94.4737 37.1742 94.168C36.5221 93.8622 35.9753 93.37 35.603 92.7535C35.2307 92.137 35.0495 91.4239 35.0824 90.7044Z" fill="#57B894"/>
<path d="M41.578 115.347C41.9602 116.09 42.5862 116.679 43.351 117.015C44.1159 117.351 44.973 117.414 45.7788 117.194C46.5845 116.973 47.2898 116.482 47.7764 115.802C48.263 115.123 48.5012 114.297 48.4512 113.464C48.4012 112.63 48.0659 111.838 47.5016 111.222C46.9374 110.606 46.1784 110.203 45.352 110.08C44.5257 109.957 43.6822 110.122 42.963 110.547C42.2438 110.972 41.6927 111.632 41.4021 112.415L43.6757 114.266L41.1738 113.686C41.1726 114.264 41.3113 114.834 41.578 115.347Z" fill="#57B894"/>
<path d="M43.376 108.278C44.2701 108.321 45.1488 108.033 45.8441 107.469C46.5395 106.905 47.0028 106.105 47.1457 105.221C47.2885 104.338 47.1008 103.432 46.6184 102.678C46.136 101.924 45.3927 101.374 44.5305 101.133L44.5492 102.63L43.724 100.996H43.7147C43.2311 100.964 42.746 101.029 42.2877 101.186C41.8293 101.344 41.4071 101.591 41.0455 101.914C40.684 102.237 40.3905 102.628 40.1823 103.066C39.974 103.503 39.8551 103.978 39.8326 104.462C39.81 104.946 39.8843 105.43 40.051 105.885C40.2178 106.34 40.4736 106.758 40.8036 107.112C41.1336 107.467 41.5311 107.753 41.9727 107.952C42.4144 108.152 42.8915 108.261 43.376 108.274V108.278Z" fill="#57B894"/>
<path d="M34.5361 102.394C35.0991 102.42 35.6604 102.315 36.1759 102.087C36.6913 101.859 37.1469 101.515 37.5067 101.081C37.8664 100.647 38.1206 100.136 38.2491 99.5872C38.3777 99.0384 38.3771 98.4674 38.2474 97.9189C38.1177 97.3704 37.8625 96.8595 37.5019 96.4264C37.1412 95.9933 36.685 95.6498 36.169 95.423C35.6531 95.1962 35.0915 95.0923 34.5286 95.1194C33.9657 95.1464 33.4167 95.3038 32.9249 95.5791L33.5686 97.3437L32.2456 96.0713C31.8938 96.3926 31.6088 96.7801 31.4068 97.2116C31.2049 97.6432 31.0899 98.1103 31.0686 98.5863C31.0514 98.9233 31.0823 99.261 31.1603 99.5893C31.3411 100.36 31.7685 101.052 32.3778 101.558C32.987 102.064 33.7448 102.358 34.5361 102.394Z" fill="#57B894"/>
<path opacity="0.1" d="M35.5728 91.67C36.413 91.7636 37.2308 92.0237 38.0747 92.0761C38.9187 92.1285 39.8431 91.9264 40.3764 91.2714C40.6645 90.9178 40.8086 90.4705 41.0519 90.0869C41.2816 89.7275 41.5966 89.4305 41.9688 89.2224C42.2023 89.6839 42.3348 90.1898 42.3574 90.7065C42.3801 91.2232 42.2925 91.7388 42.1004 92.2189C41.9082 92.6991 41.616 93.1329 41.2432 93.4913C40.8704 93.8497 40.4255 94.1246 39.9381 94.2977C39.4508 94.4708 38.9321 94.5381 38.4167 94.4951C37.9013 94.4521 37.401 94.2998 36.9491 94.0484C36.4971 93.7969 36.1039 93.4521 35.7956 93.0369C35.4873 92.6216 35.271 92.1454 35.1611 91.6401C35.2977 91.6401 35.4418 91.655 35.5728 91.67Z" fill="black"/>
<path opacity="0.1" d="M34.5361 102.394C35.1638 102.423 35.7884 102.29 36.3491 102.006C36.9099 101.723 37.3878 101.299 37.7364 100.776C38.085 100.253 38.2924 99.6492 38.3386 99.0225C38.3848 98.3958 38.2681 97.7679 37.9998 97.1996C37.7099 97.3941 37.4608 97.6433 37.2663 97.9332C37.0081 98.3243 36.8509 98.7771 36.5459 99.1364C35.9845 99.8026 35.0095 100.022 34.13 99.9804C33.2505 99.9392 32.4028 99.6922 31.5271 99.6061C31.4073 99.5949 31.2838 99.5874 31.1528 99.5836C31.3329 100.357 31.761 101.05 32.3719 101.558C32.9827 102.065 33.7428 102.359 34.5361 102.394Z" fill="black"/>
<path opacity="0.1" d="M43.3761 108.278C43.9976 108.307 44.6162 108.176 45.173 107.898C45.7297 107.621 46.2059 107.205 46.5563 106.691C46.9066 106.176 47.1194 105.581 47.1743 104.961C47.2292 104.342 47.1243 103.718 46.8698 103.15C46.5689 103.35 46.3075 103.604 46.0988 103.899C45.8163 104.299 45.6404 104.758 45.3091 105.126C44.6935 105.811 43.6624 106.062 42.7305 106.03C41.8286 106.011 40.9603 105.789 40.064 105.721C40.2868 106.436 40.7242 107.065 41.3168 107.522C41.9094 107.979 42.6284 108.243 43.3761 108.278Z" fill="black"/>
<path opacity="0.1" d="M41.5781 115.347C42.0044 116.176 42.7319 116.809 43.6109 117.117C44.49 117.426 45.4538 117.385 46.304 117.005C47.1542 116.624 47.8262 115.932 48.1818 115.071C48.5374 114.21 48.5494 113.245 48.2155 112.376C47.9157 112.573 47.6465 112.813 47.4165 113.089C47.0703 113.512 46.842 113.989 46.4416 114.382C45.6931 115.113 44.4954 115.415 43.4251 115.443C42.8081 115.447 42.1914 115.415 41.5781 115.347Z" fill="black"/>
<path d="M153.052 120.952C152.49 119.896 153.128 118.601 153.873 117.66C154.618 116.719 155.524 115.738 155.503 114.539C155.477 112.814 153.645 111.796 152.183 110.881C151.097 110.202 150.096 109.397 149.201 108.482C148.826 108.129 148.515 107.714 148.284 107.254C147.982 106.58 147.99 105.813 148.009 105.074C148.072 102.614 148.197 100.155 148.383 97.6974" stroke="#3F3D56" stroke-width="4" stroke-miterlimit="10"/>
<path d="M145.593 97.5645C145.614 97.114 145.749 96.6761 145.983 96.291C146.218 95.9059 146.546 95.5858 146.936 95.3602L147.539 96.5522L147.52 95.1094C147.808 95.0254 148.108 94.9894 148.407 95.0028C148.939 95.0263 149.452 95.2072 149.881 95.5225C150.311 95.8378 150.637 96.2733 150.818 96.774C150.999 97.2746 151.028 97.8179 150.901 98.3349C150.773 98.852 150.496 99.3196 150.102 99.6786C149.709 100.038 149.218 100.272 148.691 100.352C148.165 100.431 147.626 100.353 147.144 100.127C146.662 99.9004 146.258 99.5361 145.983 99.08C145.709 98.6239 145.575 98.0965 145.6 97.5645H145.593Z" fill="#57B894"/>
<path d="M150.39 115.78C150.673 116.328 151.135 116.763 151.7 117.011C152.265 117.259 152.898 117.305 153.493 117.141C154.088 116.978 154.609 116.615 154.968 116.113C155.327 115.612 155.502 115.002 155.465 114.386C155.428 113.77 155.18 113.186 154.763 112.731C154.346 112.276 153.786 111.979 153.175 111.888C152.565 111.798 151.942 111.92 151.411 112.234C150.88 112.549 150.474 113.036 150.26 113.614L151.944 114.982L150.097 114.554C150.095 114.98 150.196 115.4 150.39 115.78Z" fill="#57B894"/>
<path d="M151.719 110.54C152.431 110.571 153.126 110.319 153.652 109.839C154.179 109.359 154.493 108.69 154.526 107.978C154.547 107.558 154.468 107.138 154.294 106.754C154.134 106.394 153.896 106.072 153.597 105.814C153.299 105.555 152.947 105.365 152.567 105.257L152.58 106.367L151.972 105.16C151.259 105.127 150.561 105.378 150.033 105.859C149.505 106.339 149.189 107.01 149.156 107.724C149.122 108.437 149.374 109.135 149.854 109.663C150.335 110.191 151.006 110.506 151.719 110.54Z" fill="#57B894"/>
<path d="M145.188 106.202C145.605 106.222 146.02 106.146 146.402 105.978C146.783 105.81 147.121 105.556 147.387 105.235C147.654 104.914 147.842 104.536 147.938 104.13C148.033 103.725 148.033 103.302 147.937 102.896C147.841 102.491 147.652 102.113 147.386 101.792C147.119 101.472 146.781 101.218 146.399 101.051C146.018 100.883 145.602 100.806 145.186 100.827C144.769 100.847 144.363 100.964 144 101.169L144.475 102.478L143.497 101.543C143.237 101.78 143.026 102.066 142.877 102.384C142.728 102.703 142.644 103.048 142.628 103.399C142.615 103.651 142.637 103.903 142.696 104.148C142.833 104.714 143.15 105.22 143.599 105.591C144.049 105.962 144.606 106.176 145.188 106.202Z" fill="#57B894"/>
<path opacity="0.1" d="M145.956 98.2812C146.575 98.3504 147.18 98.5432 147.803 98.5825C148.426 98.6218 149.113 98.4702 149.504 97.9874C149.717 97.7254 149.824 97.3961 150.002 97.1117C150.172 96.8467 150.404 96.6276 150.679 96.4736C150.892 96.8932 150.992 97.3615 150.968 97.8316C150.943 98.3018 150.796 98.7573 150.541 99.1527C150.285 99.548 149.93 99.8694 149.511 100.085C149.093 100.3 148.625 100.401 148.155 100.379C147.564 100.348 146.999 100.124 146.548 99.741C146.098 99.3579 145.786 98.837 145.66 98.2588C145.752 98.2625 145.847 98.27 145.956 98.2812Z" fill="black"/>
<path opacity="0.1" d="M145.188 106.202C145.652 106.224 146.113 106.125 146.527 105.915C146.941 105.706 147.294 105.393 147.551 105.007C147.809 104.621 147.962 104.175 147.997 103.713C148.031 103.25 147.946 102.786 147.748 102.366C147.534 102.51 147.35 102.694 147.206 102.907C147.018 103.197 146.899 103.53 146.674 103.796C146.255 104.288 145.538 104.451 144.889 104.421C144.24 104.391 143.615 104.206 142.967 104.148C142.877 104.138 142.78 104.133 142.696 104.131C142.829 104.7 143.145 105.21 143.595 105.584C144.045 105.958 144.604 106.175 145.188 106.202Z" fill="black"/>
<path opacity="0.1" d="M151.719 110.54C152.431 110.571 153.126 110.319 153.652 109.839C154.178 109.359 154.493 108.69 154.526 107.978C154.547 107.558 154.467 107.138 154.294 106.754C154.075 106.901 153.885 107.086 153.733 107.301C153.523 107.595 153.394 107.935 153.149 108.206C152.694 108.712 151.933 108.891 151.244 108.874C150.555 108.858 149.934 108.697 149.275 108.646C149.438 109.175 149.76 109.641 150.198 109.98C150.635 110.319 151.167 110.514 151.719 110.54Z" fill="black"/>
<path opacity="0.1" d="M150.391 115.78C150.707 116.389 151.244 116.854 151.892 117.08C152.54 117.306 153.251 117.276 153.877 116.996C154.504 116.716 155 116.207 155.263 115.573C155.527 114.939 155.538 114.228 155.295 113.586C155.073 113.731 154.874 113.909 154.704 114.112C154.448 114.425 154.279 114.777 153.983 115.068C153.433 115.607 152.546 115.83 151.757 115.851C151.3 115.854 150.844 115.831 150.391 115.78Z" fill="black"/>
<path d="M175.819 123.671C176.592 122.241 175.716 120.49 174.71 119.215C173.703 117.941 172.464 116.612 172.5 114.988C172.537 112.653 175.017 111.274 176.991 110.037C178.46 109.12 179.815 108.033 181.027 106.797C181.536 106.322 181.956 105.76 182.268 105.138C182.678 104.224 182.666 103.186 182.642 102.185C182.564 98.8488 182.399 95.5211 182.15 92.2015" stroke="#3F3D56" stroke-width="4" stroke-miterlimit="10"/>
<path d="M185.917 92.0143C185.89 91.4025 185.709 90.8073 185.391 90.2839C185.073 89.7605 184.628 89.3259 184.098 89.0203L183.282 90.6333L183.308 88.6816C182.919 88.5663 182.514 88.5176 182.109 88.5375C181.39 88.5711 180.697 88.8171 180.117 89.2443C179.538 89.6716 179.098 90.2609 178.854 90.9379C178.609 91.6149 178.571 92.3492 178.743 93.0481C178.916 93.7469 179.292 94.3789 179.823 94.8642C180.355 95.3496 181.018 95.6665 181.73 95.775C182.442 95.8834 183.169 95.7785 183.821 95.4736C184.473 95.1686 185.021 94.6772 185.393 94.0615C185.766 93.4459 185.948 92.7334 185.917 92.0143Z" fill="#57B894"/>
<path d="M179.422 116.657C179.04 117.4 178.414 117.989 177.649 118.325C176.884 118.661 176.027 118.724 175.221 118.503C174.415 118.283 173.71 117.791 173.223 117.112C172.737 116.433 172.499 115.607 172.549 114.773C172.599 113.939 172.934 113.148 173.498 112.532C174.062 111.916 174.821 111.513 175.648 111.39C176.474 111.267 177.318 111.432 178.037 111.857C178.756 112.282 179.307 112.942 179.598 113.725L177.324 115.576L179.826 114.995C179.827 115.574 179.688 116.144 179.422 116.657Z" fill="#57B894"/>
<path d="M177.623 109.587C176.729 109.63 175.851 109.343 175.155 108.779C174.46 108.215 173.997 107.415 173.854 106.531C173.711 105.647 173.899 104.742 174.381 103.988C174.863 103.234 175.607 102.684 176.469 102.443L176.45 103.94L177.285 102.306C177.768 102.274 178.253 102.339 178.712 102.496C179.17 102.654 179.592 102.901 179.954 103.224C180.315 103.547 180.609 103.938 180.817 104.376C181.025 104.813 181.144 105.288 181.167 105.772C181.189 106.256 181.115 106.74 180.948 107.195C180.782 107.65 180.526 108.067 180.196 108.422C179.866 108.777 179.468 109.063 179.027 109.262C178.585 109.462 178.108 109.571 177.623 109.584V109.587Z" fill="#57B894"/>
<path d="M186.463 103.704C185.9 103.73 185.339 103.625 184.824 103.397C184.308 103.169 183.853 102.825 183.493 102.391C183.133 101.957 182.879 101.446 182.75 100.897C182.622 100.348 182.622 99.7772 182.752 99.2288C182.882 98.6803 183.137 98.1694 183.498 97.7363C183.858 97.3032 184.314 96.9597 184.83 96.7329C185.346 96.5061 185.908 96.4022 186.471 96.4292C187.034 96.4563 187.583 96.6137 188.075 96.889L187.431 98.6536L188.754 97.3811C189.284 97.867 189.659 98.4992 189.831 99.1979C190.002 99.8965 189.963 100.63 189.718 101.307C189.473 101.983 189.033 102.572 188.454 102.999C187.875 103.425 187.182 103.671 186.463 103.704Z" fill="#57B894"/>
<path opacity="0.1" d="M185.426 92.9799C184.586 93.0735 183.768 93.3336 182.924 93.386C182.08 93.4384 181.156 93.2363 180.623 92.5813C180.335 92.2277 180.19 91.7804 179.947 91.3968C179.718 91.0374 179.403 90.7404 179.03 90.5323C178.797 90.9938 178.664 91.4997 178.642 92.0164C178.619 92.5331 178.707 93.0487 178.899 93.5288C179.091 94.009 179.383 94.4427 179.756 94.8012C180.129 95.1596 180.574 95.4345 181.061 95.6076C181.548 95.7807 182.067 95.848 182.582 95.805C183.098 95.762 183.598 95.6097 184.05 95.3583C184.502 95.1068 184.895 94.762 185.203 94.3468C185.512 93.9315 185.728 93.4553 185.838 92.95C185.705 92.95 185.563 92.9649 185.426 92.9799Z" fill="black"/>
<path opacity="0.1" d="M186.463 103.704C185.836 103.733 185.211 103.6 184.65 103.316C184.089 103.032 183.612 102.609 183.263 102.086C182.914 101.563 182.707 100.959 182.661 100.332C182.615 99.7057 182.731 99.0778 182.999 98.5095C183.289 98.704 183.539 98.9532 183.733 99.2431C183.991 99.6342 184.148 100.087 184.453 100.446C185.015 101.112 185.99 101.331 186.869 101.29C187.749 101.249 188.596 101.002 189.472 100.916C189.592 100.905 189.715 100.897 189.846 100.894C189.666 101.667 189.238 102.36 188.627 102.868C188.017 103.375 187.257 103.669 186.463 103.704Z" fill="black"/>
<path opacity="0.1" d="M177.623 109.587C177.002 109.617 176.383 109.486 175.827 109.208C175.27 108.931 174.794 108.515 174.443 108.001C174.093 107.486 173.88 106.891 173.825 106.271C173.77 105.651 173.875 105.028 174.13 104.46C174.431 104.66 174.692 104.914 174.901 105.209C175.183 105.609 175.359 106.068 175.69 106.436C176.306 107.121 177.337 107.372 178.269 107.34C179.171 107.321 180.039 107.099 180.936 107.031C180.713 107.746 180.275 108.375 179.683 108.832C179.09 109.289 178.371 109.553 177.623 109.587Z" fill="black"/>
<path opacity="0.1" d="M179.422 116.657C178.985 117.467 178.259 118.082 177.388 118.378C176.517 118.674 175.566 118.629 174.726 118.252C173.887 117.876 173.221 117.196 172.863 116.349C172.504 115.502 172.48 114.55 172.794 113.686C173.094 113.883 173.363 114.123 173.593 114.399C173.939 114.821 174.167 115.299 174.568 115.692C175.316 116.423 176.514 116.725 177.584 116.753C178.198 116.756 178.812 116.724 179.422 116.657Z" fill="black"/>
<path d="M39.5269 121.277C39.5269 121.277 42.3993 121.187 43.2694 120.572C44.1395 119.956 47.6912 119.219 47.9064 120.198C48.1216 121.176 52.2253 125.117 48.9805 125.143C45.7358 125.17 41.4412 124.638 40.5766 124.112C39.7121 123.586 39.5269 121.277 39.5269 121.277Z" fill="#656380"/>
<path opacity="0.2" d="M49.0348 124.808C45.79 124.835 41.4954 124.303 40.6309 123.777C39.9722 123.377 39.7102 121.938 39.6223 121.274H39.5269C39.5269 121.274 39.714 123.59 40.5729 124.118C41.4318 124.646 45.732 125.175 48.9768 125.149C49.9124 125.149 50.2362 124.808 50.2193 124.316C50.0883 124.618 49.7328 124.803 49.0348 124.808Z" fill="black"/>
<path d="M149.59 120.922C149.59 120.922 151.274 120.871 151.774 120.51C152.273 120.149 154.354 119.72 154.48 120.299C154.605 120.877 157 123.169 155.106 123.184C153.213 123.199 150.705 122.89 150.2 122.582C149.695 122.273 149.59 120.922 149.59 120.922Z" fill="#656380"/>
<path opacity="0.2" d="M155.133 122.984C153.239 122.999 150.731 122.688 150.226 122.381C149.852 122.147 149.689 121.307 149.638 120.92H149.59C149.59 120.92 149.697 122.273 150.2 122.58C150.703 122.887 153.213 123.199 155.106 123.182C155.653 123.182 155.842 122.984 155.831 122.696C155.748 122.872 155.539 122.98 155.133 122.984Z" fill="black"/>
<path d="M170.329 122.026C170.329 122.026 173.202 121.936 174.072 121.32C174.942 120.705 178.493 119.967 178.709 120.946C178.924 121.925 183.028 125.866 179.783 125.892C176.538 125.918 172.243 125.387 171.379 124.861C170.514 124.335 170.329 122.026 170.329 122.026Z" fill="#656380"/>
<path opacity="0.2" d="M179.837 125.557C176.592 125.583 172.298 125.052 171.433 124.526C170.774 124.125 170.512 122.686 170.425 122.022H170.329C170.329 122.022 170.516 124.339 171.375 124.866C172.234 125.394 176.534 125.924 179.779 125.897C180.715 125.897 181.038 125.557 181.022 125.065C180.891 125.366 180.535 125.551 179.837 125.557Z" fill="black"/>
</g>
<defs>
<clipPath id="clip0">
<rect width="200" height="129.011" fill="white"/>
</clipPath>
</defs>
</svg>
