<svg width="140" height="130" viewBox="0 0 140 130" fill="none" xmlns="http://www.w3.org/2000/svg">
<path d="M139.857 60.9741C139.858 66.141 137.908 71.1177 134.398 74.9092C130.887 78.7007 126.075 81.0277 120.924 81.425C120.75 81.4381 120.574 81.4513 120.398 81.4592V61.9917C120.398 61.7972 120.355 61.605 120.271 61.4294C120.187 61.2538 120.065 61.0991 119.914 60.9767C119.897 60.9588 119.877 60.9429 119.856 60.9294C119.837 60.9138 119.817 60.8998 119.796 60.8873C119.611 60.7684 119.399 60.6977 119.18 60.6816C118.961 60.6655 118.741 60.7046 118.541 60.7952L118.323 60.3166C118.562 60.208 118.821 60.1515 119.083 60.151L104.104 47.2472C104.22 47.1157 104.341 46.9869 104.462 46.858C107.286 43.8813 110.938 41.8198 114.945 40.9399C118.953 40.06 123.132 40.4021 126.943 41.9221C130.754 43.442 134.022 46.0698 136.324 49.4661C138.626 52.8624 139.857 56.871 139.857 60.9741Z" fill="#F2F2F2"/>
<path d="M120.398 60.7032C120.401 60.7687 120.378 60.8326 120.335 60.8821C120.29 60.9351 120.225 60.9679 120.156 60.9733C120.086 60.9787 120.018 60.9563 119.965 60.911L119.084 60.151L104.105 47.2473L62.0936 11.0499C61.8539 10.8448 61.5487 10.7322 61.2332 10.7327C60.9177 10.7332 60.6129 10.8467 60.3738 11.0526L3.79919 60.2036L3.28905 60.6454C3.26943 60.6627 3.24726 60.6769 3.22331 60.6875C3.18119 60.7061 3.13492 60.7134 3.08913 60.7085C3.02345 60.7015 2.96263 60.6706 2.91823 60.6217C2.89538 60.5958 2.87787 60.5657 2.86669 60.5331C2.85551 60.5004 2.85087 60.4659 2.85307 60.4314C2.85526 60.397 2.86424 60.3633 2.87947 60.3323C2.89471 60.3014 2.91591 60.2737 2.94185 60.2509L3.01285 60.1878L60.0293 10.6555C60.3643 10.3677 60.7911 10.2091 61.2327 10.2081C61.6743 10.2071 62.1017 10.3639 62.438 10.6502L104.463 46.8581L120.306 60.5113C120.334 60.5353 120.357 60.5647 120.372 60.5977C120.388 60.6307 120.397 60.6666 120.398 60.7032Z" fill="#3F3D56"/>
<path d="M88.4558 68.4686L87.7641 66.5647L85.3816 59.9906L80.2485 45.8351L74.5106 30.0124L64.1628 1.47266C63.9596 0.916109 63.5442 0.46276 63.0074 0.211887C62.4707 -0.0389855 61.8564 -0.0669345 61.2991 0.13416L1.47169 21.8263C0.914983 22.0292 0.461461 22.4447 0.210562 22.9815C-0.040338 23.5183 -0.0681489 24.1327 0.133224 24.69L14.8041 65.15L15.0539 65.8416L30.4532 72.8207L34.7816 74.7824L35.4837 75.1006L53.8099 83.4077L54.5199 83.15L66.5401 78.7927L84.6717 72.2185L87.1146 71.3323C87.6716 71.1295 88.1254 70.7143 88.3768 70.1775C88.6282 69.6408 88.6566 69.0262 88.4558 68.4686Z" fill="#E6E6E6"/>
<path d="M63.3683 34.7668C63.0699 33.9478 62.4588 33.2804 61.6691 32.9112C60.8794 32.542 59.9755 32.501 59.1556 32.7972L35.4834 41.3831L24.0523 45.5274C23.6461 45.6742 23.2729 45.8996 22.9539 46.1908C22.6349 46.4819 22.3764 46.8331 22.1932 47.2242C22.01 47.6153 21.9056 48.0387 21.8862 48.4701C21.8667 48.9015 21.9324 49.3326 22.0796 49.7386C22.2268 50.1446 22.4526 50.5177 22.7441 50.8364C23.0355 51.1551 23.3869 51.4132 23.7782 51.5961C24.1695 51.7789 24.593 51.8828 25.0244 51.9018C25.4559 51.9209 25.8869 51.8547 26.2928 51.7071L35.4834 48.3754L61.3988 38.9796C62.2179 38.6811 62.8852 38.07 63.2544 37.2803C63.6236 36.4906 63.6646 35.5867 63.3683 34.7668Z" fill="white"/>
<path d="M67.5365 46.2637C67.238 45.4447 66.627 44.7773 65.8372 44.4081C65.0475 44.0389 64.1436 43.9979 63.3238 44.2941L59.3135 45.7483L35.4835 54.3894L28.2205 57.0217C27.4014 57.3194 26.734 57.9301 26.365 58.7195C25.996 59.509 25.9555 60.4127 26.2524 61.2321C26.5493 62.0514 27.1594 62.7193 27.9485 63.0891C28.7377 63.4589 29.6413 63.5002 30.4609 63.204L35.4835 61.3817L65.5669 50.4738C65.6352 50.4502 65.701 50.4212 65.7667 50.3923C66.5305 50.0572 67.1383 49.4442 67.467 48.6775C67.7956 47.9109 67.8204 47.048 67.5365 46.2637Z" fill="white"/>
<path d="M71.7493 57.8816C71.4515 57.0626 70.841 56.3953 70.0517 56.0261C69.2624 55.6568 68.3588 55.6158 67.5393 55.9119L56.2922 59.9906L47.5853 63.1488L35.4836 67.5351L32.4333 68.6421C31.7283 68.899 31.1321 69.3887 30.7433 70.0305C30.3546 70.6722 30.1965 71.4274 30.2953 72.1712C30.3254 72.3925 30.3783 72.6102 30.4531 72.8207L34.7815 74.7824L35.4836 74.5273H35.4889L57.4493 66.5647L69.7797 62.0943C70.5992 61.7965 71.267 61.1855 71.6364 60.3956C72.0057 59.6056 72.0463 58.7014 71.7494 57.8816H71.7493Z" fill="white"/>
<path d="M47.1018 23.4645C46.8034 22.6455 46.1923 21.9782 45.4026 21.6089C44.6129 21.2397 43.709 21.1987 42.8891 21.4949L29.2937 26.4229C28.4747 26.7206 27.8073 27.3313 27.4382 28.1208C27.0692 28.9102 27.0287 29.8139 27.3256 30.6333C27.6226 31.4526 28.2326 32.1205 29.0218 32.4903C29.8109 32.8601 30.7146 32.9014 31.5342 32.6052L35.8364 31.0459L38.6842 30.0124L45.1323 27.6746C45.9512 27.3768 46.6185 26.7662 46.9877 25.9769C47.357 25.1876 47.398 24.2841 47.1018 23.4645Z" fill="white"/>
<path d="M101.356 30.0124H37.7186C37.3433 30.0128 36.9741 30.1077 36.645 30.2883C36.316 30.4689 36.0377 30.7294 35.8359 31.0459C35.6051 31.4042 35.4827 31.8215 35.4834 32.2476V75.1006L53.8096 83.4077L56.3919 84.5779L60.4705 86.4266C60.7093 86.5345 60.9684 86.5903 61.2305 86.5903C61.4926 86.5903 61.7516 86.5345 61.9905 86.4266L66.069 84.5779L78.8334 78.7927L90.7301 73.3992L103.592 67.5719V32.2476C103.591 31.6549 103.356 31.0866 102.937 30.6675C102.517 30.2484 101.949 30.0128 101.356 30.0124Z" fill="#5FA2FF"/>
<path d="M88.2086 59.9906H50.8674C50.0183 59.9911 49.2024 60.3202 48.5906 60.9089C47.9788 61.4977 47.6186 62.3004 47.5856 63.1488C47.5812 63.1916 47.5794 63.2346 47.5803 63.2777C47.5815 64.1491 47.9282 64.9844 48.5444 65.6006C49.1606 66.2168 49.996 66.5635 50.8674 66.5647H88.2086C89.0804 66.5647 89.9165 66.2184 90.5329 65.602C91.1494 64.9855 91.4957 64.1494 91.4957 63.2777C91.4957 62.4059 91.1494 61.5698 90.5329 60.9533C89.9165 60.3369 89.0804 59.9906 88.2086 59.9906Z" fill="white"/>
<path d="M90.3359 73.0021C89.7431 72.4951 88.9884 72.2171 88.2084 72.2185H50.8672C49.9954 72.2185 49.1593 72.5648 48.5428 73.1813C47.9264 73.7977 47.5801 74.6338 47.5801 75.5056C47.5801 76.3774 47.9264 77.2135 48.5428 77.8299C49.1593 78.4463 49.9954 78.7927 50.8672 78.7927H78.8336L90.7303 73.3992C90.6103 73.256 90.4783 73.1231 90.3359 73.0021Z" fill="white"/>
<path d="M56.3926 84.5779L60.4711 86.4266C60.71 86.5345 60.969 86.5903 61.2311 86.5903C61.4932 86.5903 61.7523 86.5345 61.9911 86.4266L66.0697 84.5779H56.3926Z" fill="white"/>
<path d="M79.857 45.9771C79.6256 45.3443 79.2053 44.7979 78.6532 44.4117C78.101 44.0256 77.4435 43.8184 76.7697 43.8181H62.3066C61.6752 43.8187 61.0572 44.001 60.5266 44.3433C59.996 44.6855 59.575 45.1733 59.3141 45.7483C59.1193 46.1741 59.0188 46.637 59.0195 47.1052C59.0208 47.9766 59.3675 48.812 59.9837 49.4282C60.5998 50.0443 61.4352 50.3911 62.3066 50.3923H76.7697C77.2985 50.3923 77.8195 50.2648 78.2885 50.0205C78.7575 49.7762 79.1606 49.4223 79.4636 48.989C79.7667 48.5556 79.9606 48.0555 80.0291 47.5312C80.0976 47.0068 80.0386 46.4737 79.857 45.9771Z" fill="white"/>
<path d="M77.558 78.7927L64.7936 84.5779L61.7722 85.948C61.6019 86.0247 61.4173 86.0644 61.2305 86.0644C61.0437 86.0644 60.859 86.0247 60.6887 85.948L57.6673 84.5779H56.3919L60.4705 86.4266C60.7093 86.5345 60.9684 86.5903 61.2305 86.5903C61.4926 86.5903 61.7516 86.5345 61.9905 86.4266L66.069 84.5779L78.8334 78.7927H77.558ZM77.558 78.7927L64.7936 84.5779L61.7722 85.948C61.6019 86.0247 61.4173 86.0644 61.2305 86.0644C61.0437 86.0644 60.859 86.0247 60.6887 85.948L57.6673 84.5779H56.3919L60.4705 86.4266C60.7093 86.5345 60.9684 86.5903 61.2305 86.5903C61.4926 86.5903 61.7516 86.5345 61.9905 86.4266L66.069 84.5779L78.8334 78.7927H77.558ZM77.558 78.7927L64.7936 84.5779L61.7722 85.948C61.6019 86.0247 61.4173 86.0644 61.2305 86.0644C61.0437 86.0644 60.859 86.0247 60.6887 85.948L57.6673 84.5779H56.3919L60.4705 86.4266C60.7093 86.5345 60.9684 86.5903 61.2305 86.5903C61.4926 86.5903 61.7516 86.5345 61.9905 86.4266L66.069 84.5779L78.8334 78.7927H77.558ZM120.398 60.7032C120.301 60.6067 120.194 60.5203 120.08 60.4455C119.821 60.278 119.525 60.1784 119.218 60.1559C118.911 60.1334 118.603 60.1887 118.323 60.3167L90.3356 73.0022L77.558 78.7927L64.7936 84.5779L61.7722 85.948C61.6019 86.0247 61.4172 86.0644 61.2305 86.0644C61.0437 86.0644 60.859 86.0247 60.6887 85.948L57.6673 84.5779L54.5196 83.15L35.4886 74.5274L35.4834 74.5247L30.2951 72.1712L14.8038 65.15L4.13787 60.3167C4.02936 60.2665 3.91558 60.2285 3.79865 60.2036C3.54106 60.1392 3.27227 60.1338 3.01231 60.1878C2.59644 60.2729 2.22264 60.4988 1.95392 60.8275C1.68519 61.1561 1.53798 61.5673 1.53711 61.9918V128.03C1.53765 128.519 1.73176 128.986 2.07685 129.332C2.42195 129.677 2.88984 129.871 3.37787 129.871H119.083C119.571 129.871 120.039 129.677 120.384 129.332C120.729 128.986 120.923 128.519 120.924 128.03V61.9918C120.925 61.5098 120.736 61.0469 120.398 60.7032V60.7032ZM120.398 128.03C120.398 128.379 120.259 128.714 120.013 128.96C119.766 129.207 119.432 129.345 119.083 129.345H3.37787C3.02919 129.345 2.69484 129.207 2.44829 128.96C2.20175 128.714 2.06317 128.379 2.06303 128.03V61.9918C2.06314 61.772 2.11831 61.5558 2.2235 61.3629C2.3287 61.1699 2.48057 61.0064 2.66523 60.8873C2.79517 60.8041 2.93832 60.7436 3.08856 60.7085C3.13285 60.6989 3.17765 60.6919 3.22274 60.6874C3.2741 60.68 3.32596 60.6765 3.37786 60.6769C3.56481 60.6772 3.74954 60.7175 3.91957 60.7953L15.0535 65.8416L30.4528 72.8207L34.7813 74.7824L35.4834 75.1006L53.8096 83.4077L56.3919 84.5779L60.4704 86.4266C60.7093 86.5345 60.9684 86.5903 61.2305 86.5903C61.4925 86.5903 61.7516 86.5345 61.9905 86.4266L66.069 84.5779L78.8334 78.7927L90.7301 73.3992L118.541 60.7953C118.741 60.7046 118.961 60.6655 119.18 60.6816C119.399 60.6977 119.611 60.7684 119.796 60.8873C119.817 60.8998 119.837 60.9138 119.856 60.9294C119.877 60.9429 119.897 60.9588 119.914 60.9767C120.065 61.0991 120.187 61.2538 120.271 61.4294C120.355 61.605 120.398 61.7972 120.398 61.9918L120.398 128.03ZM77.558 78.7927L64.7936 84.5779L61.7722 85.948C61.6019 86.0247 61.4173 86.0644 61.2305 86.0644C61.0437 86.0644 60.859 86.0247 60.6887 85.948L57.6673 84.5779H56.3919L60.4705 86.4266C60.7093 86.5345 60.9684 86.5903 61.2305 86.5903C61.4926 86.5903 61.7516 86.5345 61.9905 86.4266L66.069 84.5779L78.8334 78.7927H77.558ZM77.558 78.7927L64.7936 84.5779L61.7722 85.948C61.6019 86.0247 61.4173 86.0644 61.2305 86.0644C61.0437 86.0644 60.859 86.0247 60.6887 85.948L57.6673 84.5779H56.3919L60.4705 86.4266C60.7093 86.5345 60.9684 86.5903 61.2305 86.5903C61.4926 86.5903 61.7516 86.5345 61.9905 86.4266L66.069 84.5779L78.8334 78.7927H77.558ZM34.7813 74.7824L35.4834 75.1006V74.5274L34.7813 74.7824ZM77.558 78.7927L64.7936 84.5779L61.7722 85.948C61.6019 86.0247 61.4173 86.0644 61.2305 86.0644C61.0437 86.0644 60.859 86.0247 60.6887 85.948L57.6673 84.5779H56.3919L60.4705 86.4266C60.7093 86.5345 60.9684 86.5903 61.2305 86.5903C61.4926 86.5903 61.7516 86.5345 61.9905 86.4266L66.069 84.5779L78.8334 78.7927H77.558Z" fill="#3F3D56"/>
</svg>
