<svg width="20" height="23" viewBox="0 0 20 23" fill="none" xmlns="http://www.w3.org/2000/svg">
<path d="M15.7656 4.07812L13.2344 6.04688L14.125 9.09375L11.5 7.26562L8.875 9.09375L9.76562 6.04688L7.23438 4.07812L10.4219 3.98438L11.5 0.984375L12.5781 3.98438L15.7656 4.07812ZM19.2344 11.0156L17.5938 12.2344L18.2031 14.25L16.5156 13.0781L14.7812 14.25L15.3906 12.2344L13.75 11.0156L15.8125 10.9688L16.5156 9L17.1719 10.9688L19.2344 11.0156ZM16.9844 15.9375C17.4219 15.9375 17.7812 16.1562 18.0625 16.5938C18.375 17 18.4062 17.4062 18.1562 17.8125C17.8438 18.25 17.4844 18.6719 17.0781 19.0781C15.0156 21.0469 12.6562 22.0312 10 22.0312C7.34375 22.0312 4.98438 21.0469 2.92188 19.0781C0.984375 17.0156 0.015625 14.6562 0.015625 12C0.015625 9.34375 0.984375 6.98438 2.92188 4.92188C3.32812 4.51562 3.75 4.15625 4.1875 3.84375C4.625 3.625 5.04688 3.65625 5.45312 3.9375C5.85938 4.21875 6.0625 4.59375 6.0625 5.0625C5.9375 6.5 6.10938 7.92188 6.57812 9.32812C7.04688 10.7031 7.82812 11.9531 8.92188 13.0781C10.0469 14.1719 11.2969 14.9688 12.6719 15.4688C14.0781 15.9375 15.5156 16.0938 16.9844 15.9375ZM15.3438 17.9531C13.9062 17.8906 12.5156 17.5781 11.1719 17.0156C9.82812 16.4219 8.60938 15.5781 7.51562 14.4844C6.45312 13.3906 5.625 12.1719 5.03125 10.8281C4.4375 9.48438 4.10938 8.10938 4.04688 6.70312C2.64062 8.32812 1.95312 10.1719 1.98438 12.2344C2.04688 14.2656 2.82812 16.0781 4.32812 17.6719C5.92188 19.1719 7.73438 19.9531 9.76562 20.0156C11.8281 20.0469 13.6875 19.3594 15.3438 17.9531Z" fill="black"/>
</svg>
