<svg width="200" height="130" viewBox="0 0 200 130" fill="none" xmlns="http://www.w3.org/2000/svg">
<g clip-path="url(#clip0)">
<path d="M182.421 129.289L176.709 112.051C176.709 112.051 182.992 118.334 182.992 123.49L181.864 111.568C181.864 111.568 185.086 115.918 184.764 122.523C184.442 129.128 182.421 129.289 182.421 129.289Z" fill="#E6E6E6"/>
<path d="M59.7522 113.593L54.1772 96.7694C54.1772 96.7694 60.3093 102.901 60.3093 107.933L59.2087 96.2977C59.2087 96.2977 62.3533 100.543 62.0388 106.989C61.7244 113.436 59.7522 113.593 59.7522 113.593Z" fill="#E6E6E6"/>
<path d="M146.766 121.357C146.776 132.424 124.826 129.02 97.9537 129.043C71.0817 129.066 49.4637 132.508 49.4541 121.441C49.4446 110.374 71.3866 107.948 98.2585 107.925C125.131 107.901 146.757 110.29 146.766 121.357Z" fill="#E6E6E6"/>
<path d="M200 129.036H0V129.543H200V129.036Z" fill="#3F3D56"/>
<path d="M91.5751 118.1C100.382 118.1 107.522 110.96 107.522 102.153C107.522 93.346 100.382 86.2064 91.5751 86.2064C82.768 86.2064 75.6284 93.346 75.6284 102.153C75.6284 110.96 82.768 118.1 91.5751 118.1Z" fill="#5FA2FF"/>
<path d="M80.9258 85.0733C78.7157 85.0734 76.5529 84.433 74.6993 83.2294C72.8456 82.0259 71.3805 80.3109 70.4814 78.292L45.177 21.3067C44.3388 19.4191 43.8955 17.38 43.8743 15.3147C43.8532 13.2494 44.2546 11.2016 45.054 9.29722C45.8533 7.3928 47.0337 5.67197 48.5226 4.24051C50.0114 2.80906 51.7773 1.69722 53.7117 0.973338C55.6461 0.249454 57.7081 -0.0711813 59.7709 0.0311442C61.8337 0.13347 63.8539 0.656592 65.7071 1.56836C67.5603 2.48012 69.2075 3.76127 70.5474 5.33304C71.8873 6.90481 72.8916 8.73401 73.4986 10.7082L91.822 70.3062C92.3466 72.0121 92.4638 73.8172 92.1641 75.5766C91.8645 77.336 91.1564 79.0007 90.0968 80.4368C89.0371 81.8729 87.6554 83.0404 86.0627 83.8457C84.4699 84.6509 82.7105 85.0714 80.9258 85.0733H80.9258Z" fill="#5FA2FF"/>
<path d="M157.548 125.806H152.995C152.464 125.806 151.954 125.594 151.578 125.219C151.202 124.843 150.991 124.333 150.99 123.801V85.8554C150.991 85.3238 151.202 84.8141 151.578 84.4383C151.954 84.0624 152.464 83.8509 152.995 83.8503H157.548C158.08 83.8509 158.589 84.0624 158.965 84.4383C159.341 84.8141 159.553 85.3238 159.553 85.8554V123.801C159.553 124.333 159.341 124.843 158.965 125.219C158.589 125.594 158.08 125.806 157.548 125.806Z" fill="#5FA2FF"/>
<path d="M148.544 125.806H143.991C143.459 125.806 142.95 125.594 142.574 125.219C142.198 124.843 141.986 124.333 141.986 123.801V85.8554C141.986 85.3238 142.198 84.8141 142.574 84.4383C142.95 84.0624 143.459 83.8509 143.991 83.8503H148.544C149.075 83.8509 149.585 84.0624 149.961 84.4383C150.337 84.8141 150.548 85.3238 150.549 85.8554V123.801C150.548 124.333 150.337 124.843 149.961 125.219C149.585 125.594 149.075 125.806 148.544 125.806Z" fill="#5FA2FF"/>
<path d="M136.536 88.7972C136.536 88.7972 134.816 104.265 152.182 103.74C169.547 103.214 162.791 88.0157 162.791 88.0157C162.791 88.0157 159.162 85.1638 149.988 87.922C140.815 90.6802 136.536 88.7972 136.536 88.7972Z" fill="#CCCCCC"/>
<path d="M143.999 62.3193C143.161 62.3198 142.341 62.0729 141.643 61.6094L111.898 41.9228C111.455 41.6289 111.146 41.1713 111.04 40.6504C110.934 40.1295 111.039 39.5878 111.332 39.1442L113.845 35.3477C113.99 35.1281 114.177 34.9393 114.396 34.792C114.614 34.6447 114.859 34.5419 115.117 34.4894C115.375 34.4369 115.641 34.4357 115.899 34.486C116.158 34.5362 116.404 34.6369 116.624 34.7822L146.369 54.4687C147.136 54.9766 147.72 55.7186 148.033 56.5846C148.346 57.4505 148.371 58.3942 148.105 59.2756C147.839 60.1571 147.296 60.9292 146.556 61.4775C145.816 62.0258 144.92 62.321 143.999 62.3193Z" fill="#5FA2FF"/>
<path d="M149.399 44.2495C158.088 44.2495 165.131 37.2061 165.131 28.5176C165.131 19.8291 158.088 12.7856 149.399 12.7856C140.711 12.7856 133.667 19.8291 133.667 28.5176C133.667 37.2061 140.711 44.2495 149.399 44.2495Z" fill="#5FA2FF"/>
<path d="M151.239 35.1215C150.219 35.0932 148.95 35.0578 147.972 34.3436C147.681 34.1222 147.442 33.8398 147.271 33.5162C147.101 33.1926 147.003 32.8357 146.985 32.4703C146.967 32.2107 147.01 31.9505 147.109 31.7101C147.209 31.4696 147.363 31.2555 147.559 31.0843C148.069 30.6528 148.815 30.5516 149.619 30.7878L148.786 24.703L149.397 24.6193L150.376 31.7727L149.866 31.5385C149.274 31.267 148.462 31.1289 147.957 31.5555C147.833 31.667 147.736 31.8056 147.675 31.9605C147.613 32.1154 147.588 32.2825 147.601 32.4487C147.616 32.7205 147.69 32.986 147.816 33.227C147.943 33.4681 148.12 33.6789 148.336 33.8453C149.097 34.4011 150.108 34.4728 151.256 34.5049L151.239 35.1215Z" fill="#2F2E41"/>
<path d="M145.764 25.2278H142.441V25.8447H145.764V25.2278Z" fill="#2F2E41"/>
<path d="M156.251 25.2278H152.929V25.8447H156.251V25.2278Z" fill="#2F2E41"/>
<path d="M165.291 92.0562C165.291 92.0562 166.649 45.8738 147.633 49.0432C128.616 52.2126 136.54 96.8102 136.54 96.8102C136.54 96.8102 140.615 104.96 150.576 95.9047C160.537 86.8493 165.291 92.0562 165.291 92.0562Z" fill="#2F2E41"/>
<path d="M115.557 85.9662C115.17 85.9664 114.791 85.8547 114.466 85.6446C114.14 85.4345 113.883 85.1349 113.724 84.7819L111.861 80.6278C111.753 80.3876 111.694 80.1285 111.686 79.8653C111.678 79.6021 111.723 79.3399 111.816 79.0939C111.91 78.8478 112.051 78.6226 112.232 78.4311C112.413 78.2396 112.629 78.0856 112.87 77.9778L145.414 63.3781C145.927 63.148 146.481 63.0211 147.043 63.0049C147.605 62.9886 148.164 63.0831 148.69 63.2831C149.215 63.4831 149.696 63.7847 150.105 64.1706C150.514 64.5564 150.843 65.0191 151.073 65.532C151.303 66.045 151.43 66.5983 151.446 67.1603C151.463 67.7223 151.368 68.282 151.168 68.8075C150.968 69.3329 150.667 69.8139 150.281 70.2228C149.895 70.6317 149.432 70.9606 148.919 71.1907L116.374 85.7906C116.117 85.9063 115.839 85.9661 115.557 85.9662Z" fill="#5FA2FF"/>
<path d="M158.273 15.2298C155.212 13.1514 151.349 14.5633 148.374 16.0465C145.486 17.487 142.231 19.3199 138.962 17.9324C137.686 17.3905 136.648 16.3305 136.468 14.9124C136.253 13.223 137.275 11.6415 138.411 10.4929C139.646 9.31137 141.084 8.36325 142.657 7.69449C144.199 7.00075 145.823 6.50688 147.49 6.22489C150.792 5.65434 154.183 5.88104 157.38 6.88609C160.577 7.89115 163.487 9.64547 165.869 12.003C168.173 14.3529 169.953 17.1641 171.092 20.2517C172.231 23.3393 172.704 26.6331 172.478 29.9163C172.218 33.416 171.1 36.9845 168.858 39.7318C166.754 42.3094 163.604 44.1216 160.241 44.2729C159.418 44.3114 158.592 44.2444 157.785 44.0734C157.204 43.9495 156.956 44.8414 157.539 44.9657C161.041 45.7124 164.669 44.603 167.446 42.4183C170.37 40.1185 172.164 36.6368 172.951 33.0495C174.456 26.1844 172.57 18.7965 168.249 13.3007C166.115 10.5632 163.351 8.38211 160.193 6.94339C156.93 5.48677 153.367 4.83283 149.8 5.03631C146.243 5.21494 142.792 6.30835 139.781 8.21081C137.088 9.95127 134.053 13.6408 136.249 16.9051C137.07 18.1258 138.434 18.8694 139.849 19.175C141.474 19.491 143.155 19.3447 144.7 18.7525C148.218 17.51 151.473 14.7338 155.411 15.1545C156.269 15.2436 157.092 15.544 157.806 16.0288C158.3 16.3643 158.764 15.5628 158.273 15.2298L158.273 15.2298Z" fill="#2F2E41"/>
</g>
<defs>
<clipPath id="clip0">
<rect width="200" height="129.673" fill="white"/>
</clipPath>
</defs>
</svg>
