<svg width="24" height="24" viewBox="0 0 24 24" fill="none" xmlns="http://www.w3.org/2000/svg">
<path d="M20.2484 20.4062C20.2052 17.6409 19.3437 15.1264 17.812 13.3059C16.2891 11.4965 14.2253 10.5 12.0001 10.5C9.77483 10.5 7.71102 11.4965 6.18819 13.3059C4.65791 15.1245 3.79695 17.6355 3.75195 20.3974C4.61727 20.8308 8.19805 22.5 12.0001 22.5C16.1114 22.5 19.4459 20.8406 20.2484 20.4062Z" fill="white"/>
<path d="M12 9.75C14.2782 9.75 16.125 7.90317 16.125 5.625C16.125 3.34683 14.2782 1.5 12 1.5C9.72183 1.5 7.875 3.34683 7.875 5.625C7.875 7.90317 9.72183 9.75 12 9.75Z" fill="white"/>
</svg>
